<svg width="904" height="983" viewBox="0 0 904 983" fill="none" xmlns="http://www.w3.org/2000/svg">
<path d="M445.733 1.33334C439.067 3.33334 434.133 8.00001 430 16.5333C422.933 30.9333 422.267 57.6 428.133 94.6667C432.267 121.2 442 155.6 446 158C446.667 158.4 447.467 156.8 447.867 154.4C453.867 113.733 461.2 88 478.133 48C484 33.8667 484.8 30.8 484.133 25.7334C481.6 7.46668 463.6 -3.99999 445.733 1.33334Z" fill="white"/>
<path d="M529.2 30C528.8 31.7333 528.667 38.2666 528.933 44.2666C529.467 56.8 533.2 66.1333 541.333 75.6L546 81.0666L541.733 82C525.867 85.4666 509.867 100.533 502.8 118.533C500.4 124.667 499.6 140.533 501.2 149.333C502.667 157.067 510 170.8 516 176.8C529.067 189.867 543.067 195.2 562 194.4C572.667 194 576 193.333 583.333 189.867C596.667 183.6 606.267 173.867 613.067 160.133C618.533 148.933 618.667 148.267 618.667 135.333C618.667 123.067 618.267 121.2 614.267 112.8C611.333 106.533 607.467 101.333 602 96L594 88.2666L600.533 83.0666C607.867 77.3333 615.867 66.2666 618.267 58.4C620.533 50.9333 618.933 49.8666 608.4 52C597.067 54.1333 585.467 60.2666 577.867 68.1333L571.6 74.6666L570.667 69.3333C568.267 55.2 554.267 37.6 539.6 30.1333C531.2 25.8666 530.267 25.8666 529.2 30ZM582.667 102.267C589.067 106.4 593.867 111.333 597.733 117.867C601.2 123.733 601.333 124.133 598.8 123.2C597.733 122.8 596.533 123.067 596 123.867C595.6 124.667 596.267 125.333 597.6 125.467C598.933 125.467 599.333 125.867 598.4 126.267C595.867 127.2 596.267 129.067 599.067 129.733C600.533 130.133 600.533 130.133 598.667 130C597.2 129.867 594.8 129.2 593.467 128.667C591.2 127.733 591.2 127.867 593.867 130.533C596.933 133.6 596.667 136 593.067 136C591.467 136 591.2 136.8 592 139.6C592.8 143.2 592.8 143.2 590.667 140.667C588.533 138.133 588.533 138.133 589.067 141.6C589.733 145.733 588.133 146.533 586.133 143.067C585.467 141.733 584.4 141.2 583.867 141.733C583.333 142.267 583.6 143.467 584.4 144.267C585.333 145.2 586 146.4 586 146.933C586 148.667 582.267 148.133 581.467 146.267C581.067 145.467 581.067 146.267 581.467 148.133C582 150.933 581.6 151.733 579.467 152.4C577.467 152.933 576.933 153.733 577.467 155.333C578.267 157.2 577.867 157.467 575.2 156.667C573.067 156.133 572.533 156.267 573.733 157.067C575.2 158.133 574.933 158.933 572.533 161.2C569.067 164.4 566.533 164.8 565.6 162.267C565.333 161.467 564.533 161.067 564 161.6C563.467 162.133 563.6 163.333 564.4 164.267C566.133 166.4 562.933 171.467 560.8 170C560 169.6 558.8 170.533 558.133 172.267L557.067 175.333L556.133 172.267C555.2 169.333 551.333 168 551.333 170.667C551.333 171.333 552.4 172 553.6 172C555.333 172 555.467 172.4 554.267 173.6C553.2 174.667 552.267 174.667 550.8 173.467C549.467 172.4 548.667 172.267 548 173.333C546.533 175.733 544.4 174.8 545.333 172C545.867 170.533 545.6 169.333 544.8 169.333C544 169.333 543.333 170.267 543.333 171.333C543.333 173.6 541.2 174 540 172C539.467 171.2 538.533 170.933 537.867 171.467C537.2 171.867 533.467 168.933 529.467 164.933C514.133 149.2 512.933 126.267 526.8 110.8C532.8 104.133 542.267 98.6666 547.867 98.6666C551.2 98.6666 551.333 98.8 551.333 107.2C551.333 114.667 551.733 116.133 554.267 117.867C555.867 119.067 558.533 120 560 120C561.467 120 564.133 119.067 565.733 117.867C568.267 116.133 568.667 114.667 568.667 107.467C568.667 102.933 569.067 98.6666 569.467 98.2666C570.933 96.8 576.933 98.6666 582.667 102.267Z" fill="white"/>
<path d="M593.333 121.333C593.733 122 594.4 122.667 594.8 122.667C595.067 122.667 595.333 122 595.333 121.333C595.333 120.533 594.667 120 593.867 120C593.2 120 592.933 120.533 593.333 121.333Z" fill="white"/>
<path d="M588.133 132.667C588.667 133.733 589.2 134.667 589.467 134.667C589.733 134.667 590 133.733 590 132.667C590 131.6 589.467 130.667 588.667 130.667C588 130.667 587.733 131.6 588.133 132.667Z" fill="white"/>
<path d="M585.333 137.333C584.933 138 585.2 138.667 585.867 138.667C586.667 138.667 587.333 138 587.333 137.333C587.333 136.533 587.067 136 586.8 136C586.4 136 585.733 136.533 585.333 137.333Z" fill="white"/>
<path d="M571.333 149.867C571.333 150.133 572.267 151.067 573.333 152C574.533 152.933 575.333 153.067 575.333 152.267C575.333 151.6 574.4 150.667 573.333 150.133C572.267 149.733 571.333 149.6 571.333 149.867Z" fill="white"/>
<path d="M568 158.667C567.467 159.467 567.6 160.8 568.4 161.6C570.134 163.333 571.467 161.067 570.134 158.8C569.2 157.467 568.8 157.467 568 158.667Z" fill="white"/>
<path d="M557.867 167.6C556.267 169.6 556.267 169.733 558.4 168.933C559.733 168.4 561.467 168 562.133 168C562.8 168 563.333 167.333 563.333 166.667C563.333 164.533 559.867 165.067 557.867 167.6Z" fill="white"/>
<path d="M548 168C547.6 168.667 547.867 169.333 548.533 169.333C549.333 169.333 550 168.667 550 168C550 167.2 549.733 166.667 549.467 166.667C549.067 166.667 548.4 167.2 548 168Z" fill="white"/>
<path d="M837.333 30.7999C816.267 33.1999 806.8 40.3999 772 79.9999C764 89.1999 755.467 98.7999 753.2 101.333C750.933 103.867 741.067 114.933 731.333 126C716.4 142.667 687.2 174.933 684.667 177.333C684.267 177.733 672.133 191.2 657.733 207.333C643.467 223.467 620.667 248.667 607.2 263.467C593.733 278.133 574.533 299.2 564.667 310C554.8 320.933 542.8 334.133 538 339.333C533.2 344.4 523.067 355.733 515.467 364.267C507.867 372.8 498.667 382 494.8 384.533C486.533 390.267 475.2 393.333 462.533 393.333C433.867 393.333 396.533 406.533 371.2 425.6C352.8 439.467 325.733 468.667 318.8 482.4C317.6 484.8 316 486.4 315.333 486C314.533 485.467 314 479.733 314 473.067C314 459.067 309.867 432.4 305.2 416.133C293.467 375.867 272 342.667 249.333 330C234 321.467 219.2 320.933 203.733 328.133C185.2 336.933 175.867 357.867 180.667 380.4C183.733 395.2 195.867 415.6 212.933 434.533C216.533 438.4 219.2 441.867 219.067 442.133C218.8 442.4 216.133 441.733 213.2 440.667C210.133 439.6 201.067 437.867 192.8 436.667C173.333 433.733 160.533 435.2 146.8 442C128.133 451.067 118.133 464.533 115.6 483.867L114.667 490.933L96.4001 497.333C86.4001 500.8 72.1334 506.533 64.6667 510.133L51.0667 516.533L48.5334 513.467C43.6001 507.333 45.6001 502.267 55.7334 495.6C64.2667 489.867 81.8667 480.667 88.0001 478.667C96.2667 475.867 99.3334 472.533 99.3334 465.867C99.3334 453.867 91.4667 451.867 71.2001 458.667C48.5334 466.267 30.8001 476.4 17.8667 489.2C4.66675 502.533 0.666748 515.6 0.666748 546.667C0.666748 568.667 2.00008 582.267 6.93341 608C20.5334 681.2 55.4667 750.667 106.933 807.467C112.4 813.467 124.667 825.6 134.4 834.4C177.067 873.6 213.2 896.133 282.4 927.2L290.267 930.667L289.733 942.933L289.333 955.333L256.4 956C223.867 956.667 223.467 956.667 220.133 959.867C216.4 963.333 215.333 971.2 218 976.133C221.733 983.067 209.333 982.667 454.8 982.667H682.267L686.8 978.133C692.8 972.133 693.067 965.467 687.467 959.867L683.6 956H648.667H613.867L614.267 943.2L614.667 930.533L628.4 925.067C663.867 911.2 710.4 884.533 742.267 860C761.733 844.933 798.4 808.933 813.867 789.467C866.533 723.333 898.933 643.2 903.333 568.267C905.2 534.667 902.267 510.667 894.667 498.8C891.067 493.067 879.6 482.133 871.333 476.4C856.667 466.4 820.933 452.533 813.733 454C806.267 455.733 802.533 466.933 807.467 472.933C808.4 473.867 816.933 478.533 826.533 483.2C846.8 493.067 858 501.867 858 508C858 511.6 855.067 516 852.667 516C852 516 844.4 512.533 835.733 508.267C826.933 504.133 816.933 499.6 813.467 498.133C810 496.8 804.933 493.333 802.267 490.4C794.533 482.133 779.067 472.533 766.933 468.4C756.8 465.067 754.4 464.8 734.667 464.933C717.2 464.933 711.467 465.467 702.933 467.733C694.533 470 677.467 476.4 667.867 480.8C666.8 481.2 666.133 478.267 665.733 471.733C664.667 454.133 655.333 439.467 640.933 432.4C634.533 429.333 631.6 428.667 622.667 428.667C604.533 428.667 591.867 436.267 575.733 457.067L566.667 468.533L566.267 460.933C566 455.067 566.533 452.133 568.533 448.933C571.2 444.667 654.267 361.467 805.733 211.6C849.2 168.667 887.733 129.467 891.333 124.667C900.533 112.533 903.867 101.333 903.067 84.9332C902.667 74.5332 901.867 71.1999 898.133 63.0666C887.733 40.6666 863.6 27.8666 837.333 30.7999ZM856 57.0666C856.667 57.5999 855.867 58.2666 854 58.7999C850.933 59.5999 851.067 59.7332 855.067 59.8666C863.6 60.1332 869.067 66.6666 870.933 78.6666C873.067 91.8666 869.067 98.2666 842.667 122.533C826.533 137.467 776 187.333 664.8 298C570.133 392.133 545.067 417.867 538.533 427.333C535.067 432.267 527.333 453.6 527.333 458.133C527.333 462.533 525.867 462.133 518.667 456C515.333 453.067 512 450.667 511.2 450.667C510.533 450.667 510 453.067 510 455.867C510 458.8 509.467 461.467 508.667 462C508 462.4 504.8 468 501.6 474.4C494 489.333 490.8 495.2 489.867 496C489.467 496.4 487.067 500.267 484.667 504.667C478.533 516 463.733 535.2 453.333 545.333C448.4 550.133 443.467 555.067 442.267 556.267C441.067 557.6 439.067 558.667 437.733 558.667C434.933 558.667 433.467 560.8 435.6 561.867C436.533 562.267 436.133 562.4 434.533 562C432.933 561.6 430.933 562.133 430 563.333C429.067 564.4 427.467 565.333 426.4 565.333C425.333 565.333 424.8 565.867 425.2 566.533C425.733 567.2 424.267 568.133 422.133 568.667C420.133 569.067 416.933 570.8 415.2 572.4C413.467 574 411.867 575.067 411.733 574.667C411.6 574.267 410.267 574.933 408.933 576.133C407.6 577.2 405.867 578 405.067 577.733C404.267 577.467 402.667 578.133 401.6 579.333C400.4 580.4 397.867 582 396 582.667C392.8 583.867 392.533 584.4 394.133 586.4C395.6 588.267 395.6 588.4 394.133 587.067C392 585.2 388.267 586.267 389.6 588.533C390.133 589.333 389.467 589.2 388.267 588.133C386.267 586.533 386 586.667 386 589.2C386 590.667 385.467 592 384.667 592C384 592 383.467 591.6 383.733 590.933C383.867 590.4 383.333 590 382.667 590C381.867 590 381.467 590.533 381.733 591.2C381.867 591.733 369.867 591.867 355.067 591.333C333.067 590.533 327.733 590 326.4 588.4C325.467 587.2 323.733 581.733 322.533 576.267C313.333 534.933 344.267 474.667 390.667 443.467C411.867 429.2 440.667 419.867 469.733 418C488.533 416.8 502.133 411.867 513.467 402.4C519.867 396.933 541.067 374.133 626.667 280C645.733 259.067 669.867 232.667 680.267 221.333C697.733 202.133 754.667 138.4 799.067 88.2666C820.533 63.9999 827.6 58.3999 840 55.5999C843.067 54.9332 854 55.9999 856 57.0666ZM235.067 354.533C245.6 359.867 259.333 377.6 268.8 398.133C277.333 416.533 285.467 446.4 284.4 455.333C284 459.067 283.867 459.067 268.8 446C216.267 400.533 199.6 375.867 210.4 359.867C215.867 351.733 225.6 349.733 235.067 354.533ZM632.667 462C637.467 466.667 639.6 475.6 638 484.267C636.4 492.533 632.133 500.667 619.067 520.4C613.2 529.333 607.467 538.667 606.4 541.2C604.133 546.533 605.2 552.8 608.667 554.667C614.933 558 617.733 556.4 634.8 540C660 515.867 683.333 502 709.867 495.2C722 492.133 725.467 491.733 739.2 492.267C757.2 493.067 766.267 495.867 776.533 504C791.333 515.733 793.333 536.4 780.667 547.067C772.8 553.733 766.667 553.333 743.333 544.533C734 540.933 732 540.667 714 540.667C697.467 540.667 693.467 541.2 686.4 543.733C668.667 550 651.2 563.867 644.8 576.533C643.2 579.867 640.8 582.8 639.6 583.2C635.867 584.4 574.533 590.533 556.8 591.467C542.8 592.267 540.533 592.133 541.467 590.533C542.133 589.467 545.6 584.267 549.2 578.8C557.467 566.267 566.133 547.733 576.667 520C591.467 481.067 600.4 465.867 611.733 460C619.2 456.267 627.467 456.933 632.667 462ZM211.333 467.067C228.133 471.467 247.467 479.467 260.8 487.467C268.8 492.267 294.133 511.2 301.733 518C302 518.267 300.533 524.933 298.4 532.933C295.067 545.867 294.667 549.467 294.8 567.067L294.933 586.933L289.467 586.133C286.533 585.733 277.467 584.8 269.333 584C235.333 580.533 169.867 568.267 137.333 559.067C130.8 557.2 124.8 555.333 124.267 555.067C121.467 553.467 139.867 544.133 158.267 538.133C184 529.467 212.267 531.467 240.8 544.133C253.2 549.467 256.533 549.2 259.2 542.4C261.333 536.8 257.2 530.933 245.733 523.067C231.6 513.6 222.667 510.4 208 509.6C199.2 509.2 193.6 509.6 187.333 511.333C172.8 515.2 167.2 516 161.733 515.2C146.133 512.667 137.467 494.267 144.8 479.067C148 472.533 153.2 468.4 162.667 464.933C171.867 461.6 194 462.667 211.333 467.067ZM60.2667 556.4C107.2 580.667 187.6 601.2 272 610.533C358.133 620.133 377.6 621.333 449.333 621.333C508.4 621.333 578 617.6 612.667 612.667C614.533 612.4 620.533 611.867 626 611.333C688.933 605.733 775.733 586.267 822 567.067C836.667 561.067 860.4 548.933 868.533 543.333L874.933 538.8L875.867 544.933C877.467 556.933 877.067 559.2 871.733 564.267C849.467 585.467 794.933 606.667 719.6 623.2C681.067 631.733 618.8 640.4 575.333 643.333C568.4 643.867 561.333 644.4 559.733 644.667C558.133 644.933 538.933 645.867 517.067 646.8C402.4 651.467 274 642.4 185.333 623.333C119.467 609.2 62.6667 587.467 36.9334 566.667L29.3334 560.533L29.4667 551.2C29.4667 536.4 29.8667 536.133 39.7334 543.6C44.2667 547.2 53.6001 552.933 60.2667 556.4ZM57.6001 613.867C80.0001 625.067 88.1334 628.533 108.8 636C116.8 638.8 124.133 641.6 124.933 642.267C127.733 644 148 649.2 168.667 653.467C179.333 655.6 188.8 657.733 189.733 658C190.933 658.4 190 659.867 187.067 662.267C184.667 664.267 182.4 666.267 182 666.667C181.067 667.6 167.867 677.467 159.867 682.933C152.667 688 142.533 693.333 140 693.333C138 693.333 112.133 675.733 105.867 670C98.8001 663.733 92.4001 663.467 89.2001 669.467C86.2667 675.333 87.6001 678.933 95.3334 685.6L101.867 691.333L94.2667 695.6C90.1334 698 87.3334 700 88.0001 700.133C91.4667 700.533 94.8001 699.467 99.4667 696.533L104.533 693.333L108.267 696.533C110.267 698.133 118.667 703.6 126.667 708.4C148.933 721.867 168.933 728.533 203.333 733.867C222.533 736.8 222.667 736.8 218.667 738.933C216.533 740.133 207.733 746 199.333 752C181.867 764.267 163.6 773.733 150.8 776.933C146 778.133 142 779.733 142 780.533C142.133 785.6 188 835.2 204.4 847.867C214.267 855.467 209.467 853.867 196.4 845.2C171.333 828.4 149.067 808.8 126.667 783.6C82.8001 734.133 48.1334 669.733 38.6667 619.733C36.6667 608.8 36.1334 604 37.3334 604C37.6001 604 46.8001 608.4 57.6001 613.867ZM246.667 667.867C256.933 669.333 269.2 670.8 274 671.333C278.8 671.733 287.467 672.667 293.333 673.333C343.467 679.2 380.4 681.333 432.4 681.333C455.2 681.467 474 681.733 474 682C474 683.467 465.067 702.533 461.733 708.4C455.867 718.4 453.867 724.267 454.667 728.133C455.733 733.067 458.4 734.933 464.533 735.2C471.2 735.333 475.733 732.8 480 726.667C484.4 720.267 499.333 687.333 499.333 684C499.333 681.867 500.267 681.333 503.733 681.333C510.4 681.333 565.333 677.467 579.333 676C586.267 675.333 596 674.4 600.933 674C605.867 673.6 610.933 673.067 612.267 672.8C613.6 672.533 619.467 671.867 625.333 671.467C631.2 670.933 643.067 669.6 651.733 668.533C660.4 667.333 667.733 666.667 668.133 667.067C669.333 668.267 652.133 697.2 641.6 711.6C624.4 735.333 610.933 751.067 588.667 773.867C556.133 807.067 531.6 825.6 501.467 839.467C487.733 845.867 484.133 845.867 489.6 839.467C493.733 834.533 496.667 828 496.667 823.333C496.667 817.467 491.733 819.467 480.533 830C473.733 836.533 459.867 844.933 458.4 843.6C458.133 843.2 459.067 842.533 460.533 842C465.333 840.533 466.133 837.2 464.133 827.6C463.333 824 462.667 822.933 461.867 824.267C461.067 825.467 460.667 825.6 460.667 824.4C460.667 823.467 462.8 820.533 465.467 817.733C469.067 814 471.333 812.8 473.867 813.067C476 813.333 478.933 812.267 481.2 810.533C484.267 808.133 484.8 806.8 484.533 802.4C484.133 798 484.933 796.267 489.467 790.933C501.067 777.333 517.6 749.6 526.133 729.333C530.933 717.6 537.733 696.4 538.8 689.067C539.867 682.667 537.467 682.267 534.267 688.133C530.667 694.667 510.4 724.933 504.4 732.533C481.733 761.467 447.067 795.467 420.133 815.733C405.733 826.4 383.867 837.6 366.667 843.067C345.333 850 335.333 851.333 306.667 851.333C281.733 851.333 279.067 851.067 265.6 847.6C257.6 845.467 244.8 841.2 236.933 837.867C223.6 832.267 206.133 823.333 204.667 821.333C204.267 820.8 202.533 819.6 200.667 818.667C195.2 815.867 176.667 802.267 176.667 801.067C176.667 800.533 181.467 797.6 187.2 794.667C193.067 791.733 198.133 788.8 198.667 788.133C199.067 787.333 201.733 786.933 204.667 787.067C212 787.333 215.867 783.6 214.8 777.2C214 772.533 214.267 772.133 221.867 766.933C226.133 763.867 236.533 754.933 244.933 746.933C258.533 734 260.8 732.4 266 731.6C280.933 729.6 315.867 716.267 325.067 709.2C328.133 706.8 328.533 698 325.733 695.067C323.733 693.2 324 692.4 328.133 685.867C330.667 681.867 332.133 678.667 331.467 678.667C330.8 681.733 328.533 684.133 324.8 681.067C321.2 686 318.133 686.667 318.133 681.867C318.133 689.333 315.333 696.667 312 726.4C291.6 814.8 287.867 855.333 301.2 731.6C302.8 739.733 304.8 737.067 304.8 730.667C304.8 726.267 306.933 722.933 309.467 727.333C312 721.6 314.133 722 314.133 727.733C314.133 731.6 312 735.467 309.467 731.733C306.933 739.6 304.8 740.533 304.8 734C304.8 748.533 309.467 754.933 312.8 734C307.6 731.333 317.733 732 312.8 729.467C314.667 719.6 318.133 700.667 331.333 725.467C334.267 715.867 338.8 713.067 341.467 725.467C346.533 720.533 359.067 728.667 341.467 715.733C339.733 689.733 337.2 679.467 335.867 715.733" fill="white"/>
<path d="M834.933 82C826.8 89.7333 832.4 102.667 844 102.667C848.8 102.667 850.4 102 853.2 98.5333C858.667 92.1333 857.733 84 851.2 80.6666C845.467 77.6 839.2 78.1333 834.933 82Z" fill="white"/>
<path d="M808.533 115.867C803.867 120.667 803.6 124 807.733 128.8C812 133.6 818.8 133.6 823.067 128.667C826.933 124.133 826.8 119.333 822.667 115.333C818.267 110.933 813.333 111.067 808.533 115.867Z" fill="white"/>
<path d="M796.267 151.6C795.733 152 795.333 153.067 795.333 153.867C795.333 154.667 796 154.533 796.933 153.6C797.733 152.8 798.133 151.733 797.867 151.333C797.467 150.933 796.667 151.067 796.267 151.6Z" fill="white"/>
<path d="M789.067 161.333C786 164.267 783.867 166.667 784.4 166.667C785.734 166.667 787.467 165.2 791.867 160.267C797.2 154.4 795.867 154.933 789.067 161.333Z" fill="white"/>
<path d="M634 302.4C623.867 315.467 599.333 348.267 599.333 348.8C599.333 350.8 602.267 348.4 606.133 343.067C608.533 339.6 611.467 335.867 612.667 334.667C613.733 333.467 616.8 329.733 619.333 326.267C621.867 322.667 625.2 318.267 626.8 316.267C632.4 309.067 639.333 298.667 639.333 297.467C639.333 296.8 640.133 295.867 641.067 295.6C641.867 295.2 642.133 294.8 641.333 294.8C640.667 294.667 637.333 298.133 634 302.4Z" fill="white"/>
<path d="M479.333 437.2C478.667 438.667 477.2 440.533 476.4 441.6C475.467 442.533 472.933 446 470.8 449.2C468.667 452.533 466.4 455.867 465.867 456.533C465.2 457.333 459.067 466.4 452.267 476.667C445.467 486.933 436.933 499.2 433.2 504C423.6 516.267 412.133 533.333 412.933 534C413.333 534.4 416 531.2 419.067 526.933C422.133 522.8 425.867 517.733 427.333 515.867C432.4 509.2 436.533 503.333 454.133 477.333C463.867 463.067 472.133 451.067 472.533 450.667C473.333 450 480.8 439.333 482.533 436.267C483.067 435.467 482.933 434.667 482.133 434.667C481.333 434.667 480.133 435.867 479.333 437.2Z" fill="white"/>
<path d="M436.667 452.933C432 460.133 427.867 466.267 427.333 466.667C426.933 467.067 425.2 469.467 423.6 472.133C420.8 476.8 420.533 476.933 414.133 476.267C408.4 475.733 407.067 476.133 404.133 479.067C400.533 482.8 399.6 488.8 402 493.333C403.733 496.4 401.067 502.8 394.667 511.2C389.2 518.4 388.267 522.267 393.6 515.733C395.733 513.333 397.867 510.667 398.667 509.733C399.333 508.933 401.467 506.133 403.2 503.733C406 499.867 407.067 499.333 412.267 499.333C421.867 499.333 427.2 491.067 423.2 482.267C422 479.467 422.533 478 428.267 470.133C436.133 459.067 438.533 455.333 442 449.067C443.467 446.4 445.2 443.867 446 443.333C446.667 442.933 447.333 442 447.333 441.2C447.333 437.867 444.4 441.2 436.667 452.933Z" fill="white"/>
<path d="M480.133 460.267C477.067 464.533 477.467 469.733 481.067 473.067C484.933 476.667 488.667 476.8 492.8 473.467C496.267 470.667 497.067 462.933 494.133 459.467C491.333 456.133 482.667 456.667 480.133 460.267Z" fill="white"/>
<path d="M460.667 501.6C460.667 504.4 462.933 507.067 464.533 506.133C465.467 505.467 465.467 504.4 464.267 502.667C462.533 499.6 460.667 499.2 460.667 501.6Z" fill="white"/>
<path d="M386.4 526.4C380.933 526.933 378 530.933 378 538C378 545.2 382.533 549.733 389.467 549.733C395.6 549.733 401.067 544.533 401.067 538.8C401.067 530 395.733 525.467 386.4 526.4Z" fill="white"/>
<path d="M433.067 529.467C429.2 531.467 425.6 539.333 426.533 543.467C427.867 548.8 432.133 552 437.733 552C448 552 454.667 538.8 447.867 531.867C444.667 528.667 437.067 527.467 433.067 529.467Z" fill="white"/>
<path d="M340.933 554.667C340.933 556.533 341.2 557.2 341.6 556.267C341.867 555.467 341.867 553.867 341.6 552.933C341.2 552.133 340.933 552.8 340.933 554.667Z" fill="white"/>
<path d="M380.4 555.733C377.467 559.2 360.667 584.8 360.667 585.867C360.667 588.133 366.4 580.933 374.133 569.333C378.667 562.4 383.067 556.267 383.733 555.867C384.533 555.333 384.4 554.667 383.6 554.133C382.933 553.733 381.467 554.4 380.4 555.733Z" fill="white"/>
<path d="M382.133 579.867C377.6 584.933 374 589.333 374 589.867C374 592 378 590.267 380 587.067C381.333 585.067 384.267 581.467 386.533 578.933C391.6 573.467 393.2 570.667 391.6 570.667C390.8 570.667 386.667 574.8 382.133 579.867Z" fill="white"/>
<path d="M61.2001 635.867C61.6001 636.533 64.0001 638.267 66.5335 639.733C69.8668 641.733 70.9335 642 70.4001 640.533C70.0001 639.467 68.9335 638.667 68.0001 638.667C67.0668 638.667 65.6001 637.733 64.6668 636.667C62.9335 634.533 60.0001 633.867 61.2001 635.867Z" fill="white"/>
<path d="M74.1334 644.533C73.2001 645.6 70.6668 646.933 68.5334 647.333C66.4001 647.867 64.9334 648.667 65.3334 649.333C65.7334 649.867 68.4001 649.333 71.3334 647.867C74.1334 646.533 77.6001 645.333 78.9334 645.333C80.9334 645.333 81.0668 645.067 79.3334 644C76.6668 642.267 75.8668 642.4 74.1334 644.533Z" fill="white"/>
<path d="M93.7335 651.6C94.5335 651.867 96.1335 651.867 97.0669 651.6C97.8669 651.2 97.2002 650.933 95.3335 650.933C93.4669 650.933 92.8002 651.2 93.7335 651.6Z" fill="white"/>
<path d="M101.734 652.933C103.334 653.2 105.734 653.2 107.067 652.933C108.267 652.533 106.934 652.267 104 652.4C101.067 652.4 100 652.667 101.734 652.933Z" fill="white"/>
<path d="M142.267 657.2C139.867 660.133 135.733 663.733 132.933 665.333C130.133 666.933 127.067 669.467 126.133 671.067C124.4 673.867 124.4 673.867 126.933 671.6C128.4 670.4 130.133 669.333 130.933 669.333C131.733 669.333 132.667 668.933 132.933 668.267C133.2 667.733 135.733 665.333 138.667 662.8C144.8 657.467 149.333 652 147.6 652C146.933 652 144.533 654.4 142.267 657.2Z" fill="white"/>
<path d="M68.6667 656.667C68.6667 657.333 69.3334 658.933 70.0001 660C70.6667 661.067 71.3334 661.333 71.3334 660.667C71.3334 659.867 70.6667 658.4 70.0001 657.333C69.3334 656.267 68.6667 655.867 68.6667 656.667Z" fill="white"/>
<path d="M83.3335 690.533C83.3335 691.333 83.8668 692.267 84.6668 692.667C85.4668 693.067 85.6002 692.533 85.2002 691.467C84.2668 689.067 83.3335 688.667 83.3335 690.533Z" fill="white"/>
<path d="M122 714.667C119.467 716 113.867 718.667 109.734 720.667L102.134 724.267L105.6 729.6C108.667 734.267 109.334 734.667 110.134 732.533C111.6 728.8 111.467 727.067 110 729.333C108.8 731.067 108.534 731.067 107.334 729.333C106.667 728.267 106 726.667 106 726C106 724.667 118.934 717.333 121.2 717.333C121.867 717.333 123.734 716.133 125.6 714.667C129.867 711.333 128.134 711.333 122 714.667Z" fill="white"/>
<path d="M136.267 725.333C131.867 727.6 127.867 728.933 127.2 728.533C126.533 728.133 126 728.533 126 729.333C126 730.133 125.333 730.4 124.533 729.867C123.733 729.467 122.533 729.733 122 730.533C121.467 731.467 118.933 732.267 116.267 732.4C113.467 732.533 111.067 733.467 110.667 734.533C109.467 737.733 111.2 737.867 118.4 735.333C126.8 732.4 148.667 721.333 146 721.333C144.933 721.467 140.533 723.2 136.267 725.333Z" fill="white"/>
<path d="M176.533 736.4C172.4 738.667 162.933 744.133 155.467 748.533C148 752.8 138.533 757.733 134.533 759.333C130.267 761.067 127.733 762.8 128.533 763.333C131.6 765.067 159.6 750.4 181.733 735.333C188.667 730.533 185.333 731.2 176.533 736.4Z" fill="white"/>
<path d="M198.8 679.467C190.933 687.2 184.8 693.867 185.067 694.267C185.467 694.667 190.533 690.533 196.267 685.067C202 679.6 209.067 672.933 212 670.267C215.2 667.333 216.533 665.333 215.333 665.333C214.133 665.333 206.8 671.733 198.8 679.467Z" fill="white"/>
<path d="M270.8 678.133C268.133 680.8 266 683.6 266 684.4C266 685.333 268.4 683.333 271.467 680.133C278 673.067 277.6 671.333 270.8 678.133Z" fill="white"/>
<path d="M598.8 679.6C598 681.467 598.134 681.6 599.467 680.4C600.4 679.467 600.8 678.4 600.4 678C600 677.6 599.2 678.267 598.8 679.6Z" fill="white"/>
<path d="M287.467 694.8C281.333 701.333 276.667 707.067 276.933 707.467C277.733 708.267 296.133 688.8 298.133 685.2C298.8 683.733 299.2 682.667 299.067 682.667C298.8 682.8 293.6 688.133 287.467 694.8Z" fill="white"/>
<path d="M595.733 684.267C593.6 687.2 589.6 697.333 590.267 698C590.667 698.4 592 695.867 593.333 692.4C594.667 688.8 596.267 685.2 597.067 684.267C597.733 683.467 598 682.667 597.6 682.667C597.333 682.667 596.4 683.467 595.733 684.267Z" fill="white"/>
<path d="M214.667 693.067C209.6 698 203.6 703.467 201.467 705.067C199.333 706.667 198 708.4 198.4 708.8C199.333 709.867 203.733 706.4 216.4 694.933C225.333 686.8 227.6 684 225.067 684C224.4 684 219.867 688.133 214.667 693.067Z" fill="white"/>
<path d="M353.067 694C341.867 711.867 322.8 740.667 321.867 741.333C321.467 741.733 320.267 743.467 319.333 745.333L317.6 748.667L321.2 745.333C324.4 742.533 340.667 719.6 340.667 718.133C340.667 717.733 343.733 712.667 347.333 706.8C351.067 700.933 354 695.733 354 695.333C354 694.8 355.6 692.4 357.467 689.867C359.467 687.333 360.667 684.933 360.267 684.533C359.867 684.133 356.667 688.4 353.067 694Z" fill="white"/>
<path d="M440.533 687.067C439.333 688.667 434.8 697.467 430.267 706.667C425.867 715.867 417.6 731.733 412 741.867C406.533 752 402.267 760.667 402.533 761.067C402.933 761.467 403.733 760.533 404.267 759.2C404.667 757.867 406.4 754.8 407.867 752.667C413.867 744 421.6 729.733 434.267 704.267C443.2 686 445.2 680.933 440.533 687.067Z" fill="white"/>
<path d="M564.933 702C563.733 704.667 563.733 705.333 565.2 705.333C566.933 705.333 568.667 702.667 568.667 699.867C568.667 697.467 566.4 698.8 564.933 702Z" fill="white"/>
<path d="M390.133 704.8C388.533 706.8 387.333 708.8 387.333 709.467C387.333 712.533 390.8 717.467 393.6 718.133C396.133 718.8 396.4 719.333 395.2 720.8C392.133 724.4 395.333 722.533 400.4 717.6C407.2 711.2 408.133 707.467 403.733 704C398.933 700.267 393.467 700.533 390.133 704.8Z" fill="white"/>
<path d="M586.8 703.333C586.4 704.4 586.667 705.333 587.2 705.333C587.867 705.333 588.667 704.4 589.2 703.333C589.6 702.267 589.333 701.333 588.8 701.333C588.133 701.333 587.333 702.267 586.8 703.333Z" fill="white"/>
<path d="M352.267 705.067C351.067 706.4 349.6 709.467 349.2 711.733C348.667 714.133 347.733 715.6 346.933 715.067C346.133 714.667 346 714.933 346.533 715.867C347.067 716.667 348 717.067 348.533 716.667C349.2 716.4 350.667 717.2 352 718.667C354.8 721.733 361.6 722.133 365.333 719.467C368.667 717.067 368.667 709.067 365.333 705.333C362.267 702 355.2 701.733 352.267 705.067Z" fill="white"/>
<path d="M562 709.733C550.533 715.733 543.467 731.6 547.333 742.533C551.733 754.933 560.933 761.2 574.8 761.333C582 761.333 583.867 760.8 589.467 756.933C598.533 750.667 603.6 740.8 602.667 731.6C600.4 711.867 579.333 700.533 562 709.733Z" fill="white"/>
<path d="M230 712C228.8 712.8 228.667 713.333 229.6 713.333C230.4 713.333 231.6 712.667 232 712C233.067 710.4 232.533 710.4 230 712Z" fill="white"/>
<path d="M389.467 735.333C386.8 741.067 384.667 746.267 384.667 746.8C384.667 747.467 384.267 748 383.6 748C382.533 748 382.133 748.8 376.4 760.667C374.4 764.8 371.6 769.867 370 772C366.533 776.933 366.533 778.667 370.133 774.8C371.733 773.2 375.333 767.2 378.267 761.6C381.2 756 384.4 750.4 385.333 749.333C386.267 748.267 388.4 743.467 390.133 738.667C391.733 733.867 393.733 729.2 394.4 728.267C395.067 727.333 395.333 726.267 394.933 725.867C394.533 725.467 392 729.733 389.467 735.333Z" fill="white"/>
<path d="M622.267 728C622.267 729.867 622.534 730.533 622.934 729.6C623.2 728.8 623.2 727.2 622.934 726.267C622.534 725.467 622.267 726.133 622.267 728Z" fill="white"/>
<path d="M432.4 754.4C421.733 768.933 416.4 774.933 414.667 774.267C412.667 773.333 406 777.067 398.667 783.333C375.867 802.667 350.667 816.8 330.667 821.333C317.6 824.4 314 826.933 314 833.333C314 835.867 315.2 838.133 317.733 840C320.8 842.533 322.4 842.8 328 842C352 838.933 387.067 820 410 797.733C420.267 788 422 785.6 422 782C422 779.2 421.2 777.333 419.867 776.8C418.133 776.133 418.133 775.733 419.6 774C420.533 772.933 422 771.333 422.667 770.4C423.467 769.467 427.733 764.133 432.133 758.667C441.6 746.8 442.4 745.733 440.933 744.8C440.4 744.533 436.533 748.8 432.4 754.4Z" fill="white"/>
<path d="M296.667 758.8C291.2 764.8 281.333 775.067 274.933 781.6C268.4 788.133 263.467 793.867 263.733 794.267C264.933 795.467 307.333 752.533 307.333 750.133C307.333 748.933 307.2 748 306.933 748C306.8 748 302.133 752.933 296.667 758.8Z" fill="white"/>
<path d="M331.6 762.667C311.6 783.867 288.267 796.267 260.667 800.533L254.667 801.467L258.667 798L262.667 794.4L257.733 797.867C254.4 800.267 251.067 801.333 247.333 801.333C237.2 801.333 231.467 812.133 238 818.667C245.067 825.733 285.2 818 308.667 805.067C322.133 797.733 330.133 791.467 341.467 779.733C353.6 767.2 356.667 763.067 356.667 759.2C356.667 754.8 352.133 750.667 347.2 750.667C343.733 750.667 341.2 752.667 331.6 762.667Z" fill="white"/>
<path d="M561.2 770.933C558.533 775.6 556.267 780.133 556.267 780.933C556.267 781.867 555.733 782.667 555.067 782.667C554.533 782.667 554 783.467 554 784.533C554 785.6 553.2 786.8 552.4 787.067C551.2 787.6 551.333 787.867 552.667 787.867C554 788 557.2 783.467 561.2 775.867C568.533 761.867 568.667 758.4 561.2 770.933Z" fill="white"/>
<path d="M516.267 770.4C511.467 775.733 515.467 785.333 522.4 785.333C526.133 785.333 531.333 780.133 531.333 776.533C531.333 772.8 525.867 768 521.733 768C519.867 768 517.467 769.067 516.267 770.4Z" fill="white"/>
<path d="M546.267 797.067C543.867 801.2 541.067 806 539.867 807.6C538.667 809.333 538 810.667 538.4 810.667C539.467 810.667 548.667 797.6 548.667 796.133C548.667 795.333 549.867 794 551.333 792.933C553.6 791.333 553.733 789.333 551.467 789.333C551.067 789.333 548.667 792.8 546.267 797.067Z" fill="white"/>
<path d="M282.267 823.333C277.467 828.133 275.733 830.8 276.8 831.467C277.733 832 279.467 831.2 280.933 829.2C282.4 827.467 285.6 823.733 288 820.933C294.8 813.333 290.267 815.2 282.267 823.333Z" fill="white"/>
<path d="M285.333 836.133C283.867 838.4 285.333 838.8 288.133 836.667C290.4 834.933 290.4 834.8 288.4 834.667C287.2 834.667 285.733 835.333 285.333 836.133Z" fill="white"/>
<path d="M344.933 38.1334C340 40.6667 337.067 43.2 334.667 47.2C328.133 58.4 331.2 65.7334 347.067 76.9334C362.133 87.4667 377.2 100.8 385.467 110.8C389.867 116.133 394.667 122 396.267 123.867L399.2 127.333L399.333 122C399.333 114.533 396 96.1334 391.867 82C384.933 58 372.667 38.9334 362.267 36C354.933 34 352.533 34.2667 344.933 38.1334Z" fill="white"/>
<path d="M648.133 60.6665C637.6 66.1332 637.2 79.4665 647.333 84.6665C655.733 89.0665 664.133 84.9332 665.6 75.7332C667.333 64.3999 657.467 55.8665 648.133 60.6665Z" fill="white"/>
<path d="M284.533 65.7334C279.2 69.3334 274.267 74.2667 270.8 79.2C266 86.2667 265.467 86.8 264.533 84.1334C263.2 80.6667 259.333 80.5334 255.333 83.7334L252.267 86.1334L255.867 94.9334C257.733 99.8667 259.333 104.4 259.333 105.067C259.333 105.867 257.333 107.067 254.8 108C248.267 110.133 240 117.733 236.533 124.933C223.867 151.067 252 181.067 279.467 170.8C293.733 165.333 302.533 152.933 302.4 138C302.4 124.933 295.733 115.067 282.667 108.667L276.4 105.733L281.067 102.8C287.333 98.9334 295.067 90.2667 298.133 83.4667C299.733 79.8667 300.667 74.9334 300.667 68.9334V60H296.8C294.267 60 289.6 62.1334 284.533 65.7334Z" fill="white"/>
<path d="M195.333 64C190.667 68.6667 192.4 76.2667 198.933 79.7333C203.2 82.1333 205.733 81.7333 209.333 78C216 71.4667 212 61.3333 202.667 61.3333C199.733 61.3333 196.933 62.4 195.333 64Z" fill="white"/>
<path d="M141.333 79.8666C134.933 83.7333 132.4 87.4666 131.733 93.7333C131.067 98.8 131.467 100.133 134.8 103.733C136.933 105.867 145.333 111.2 153.6 115.467C166.667 122.133 180.267 131.333 195.067 143.467C197.467 145.467 199.733 146.8 200.133 146.4C200.933 145.467 194 127.867 188.8 117.6C183.867 108 173.2 92.8 166.533 86.1333C157.733 77.3333 148.933 75.2 141.333 79.8666Z" fill="white"/>
<path d="M674.133 106.133C668.4 113.467 672.933 124 681.867 124.267C685.467 124.4 687.333 123.467 690.267 120.133C692.267 117.867 694 114.4 694 112.533C694 103.6 679.733 98.9333 674.133 106.133Z" fill="white"/>
<path d="M84.9335 128.4C72.6669 132.267 62.4002 148.4 63.7335 161.733C64.4002 169.733 70.8002 179.467 79.2002 185.067C82.6669 187.467 95.8669 194 108.8 199.867C141.467 214.533 166.8 228.8 186.667 243.733C201.867 255.2 224.267 274.533 230 281.2C240.267 292.933 240.667 289.6 231.467 270.133C210.4 225.467 178.934 183.867 141.734 151.867C117.067 130.667 100 123.467 84.9335 128.4Z" fill="white"/>
<path d="M343.6 143.333C333.867 151.6 339.733 168 352.4 168C358.533 168 366 160.667 366 154.8C366 142.4 352.8 135.6 343.6 143.333Z" fill="white"/>
<path d="M649.334 149.333C644.8 154.267 649.6 161.733 655.467 158.667C659.867 156.267 658.134 146.667 653.334 146.667C652.4 146.667 650.667 147.867 649.334 149.333Z" fill="white"/>
<path d="M396.667 178.533C392.4 182 392 183.067 392 189.333C392 195.6 392.4 196.667 396.933 200.8C400.667 204.133 403.2 205.333 406.667 205.333C419.333 205.333 426.933 193.6 421.467 182.8C416.8 173.867 404.667 171.733 396.667 178.533Z" fill="white"/>
<path d="M470.667 182.933C467.067 184.933 466 186.667 466 190.8C466 198 475.333 201.333 480.667 196C484 192.667 484 189.2 481.067 185.6C478 182.133 474 181.067 470.667 182.933Z" fill="white"/>
<path d="M226.267 188.267C225.333 189.2 224.667 191.467 224.667 193.333C224.667 197.467 226.933 200 230.667 200C234.533 200 236.667 197.467 236.667 193.067C236.667 187.733 229.867 184.667 226.267 188.267Z" fill="white"/>
<path d="M626 189.867C622.267 194.533 627.467 202.267 632.4 199.2C637.067 196.267 635.333 188 630 188C628.667 188 626.933 188.933 626 189.867Z" fill="white"/>
<path d="M294 203.867C287.067 206.133 282.133 209.467 276.267 216C269.067 224 265.467 233.6 265.467 244.4C265.6 251.467 266.8 254.533 281.067 283.467C294.933 311.467 297.6 315.733 304.667 322.8C318.8 337.067 338.267 343.333 356.4 339.467C381.6 334.267 399.333 315.733 403.733 290C407.6 267.6 394.533 240.267 374.4 228.4C371.2 226.533 362.133 222.4 354.267 219.333C346.4 216.267 334.933 211.333 328.667 208.533C319.333 204.267 315.6 203.333 307.333 203.067C301.867 202.933 295.867 203.2 294 203.867ZM323.467 228.133C329.6 231.2 338.4 235.067 343.067 236.8C369.6 246.933 381.2 259.067 382.933 278.667C384.4 294.933 376.933 308.4 362.267 315.6C347.067 323.067 326.533 319.067 316.8 306.8C314.667 304.133 306.8 289.6 299.333 274.533C287.067 250 285.867 246.8 286.4 241.467C287.067 234.933 290.267 230 296.667 225.6C303.467 221.067 310.267 221.733 323.467 228.133Z" fill="white"/>
<path d="M335.6 254.933C334.667 255.867 334 258.133 334 260C334 264.533 336.267 266.667 340.933 266.667C344.533 266.667 347.333 263.6 347.333 259.467C347.333 254.533 339.2 251.333 335.6 254.933Z" fill="white"/>
<path d="M314.267 268.267C311.334 271.2 312.4 277.2 316 278.933C322.667 281.867 328.934 273.867 323.867 268.8C321.467 266.267 316.534 266 314.267 268.267Z" fill="white"/>
<path d="M355.333 273.333C353.867 274.8 352.667 276.933 352.667 278C352.667 280.267 357.333 285.333 359.467 285.333C366 285.333 368.533 276.533 363.067 272.8C359.2 270.133 358.533 270.133 355.333 273.333Z" fill="white"/>
<path d="M333.334 286.667C328.4 292.133 334.8 300.533 341.467 297.467C345.2 295.867 345.734 291.333 342.534 286.933C340 283.333 336.534 283.2 333.334 286.667Z" fill="white"/>
<path d="M30.9334 226.133C20.1334 230 12.6667 240.8 12.6667 252.667C12.6667 259.467 18.5334 270.133 24.5334 274C32.9334 279.6 38.0001 280.267 55.3334 277.733C74.2668 275.067 120.933 274.667 135.333 277.067C140.8 278 152.933 280.533 162.267 282.8C171.6 285.067 180 286.667 180.667 286.4C182.4 285.867 164 272.267 150 263.733C122.133 246.933 100.267 237.067 74.6668 230C53.7334 224.267 40.0001 223.067 30.9334 226.133Z" fill="white"/>
<path d="M422.8 226.133C418.8 230.133 421.067 236 426.667 236C428.267 236 430.134 235.333 431.067 234.4C432 233.467 432.667 231.6 432.667 230C432.667 224.4 426.8 222.133 422.8 226.133Z" fill="white"/>
<path d="M562.667 231.333C556.4 237.467 559.333 247.2 568.267 249.867C573.867 251.6 582 244.4 582 237.867C582 236.667 580.267 234 578.133 231.867C573.067 226.933 567.2 226.667 562.667 231.333Z" fill="white"/>
<path d="M864.267 229.467C853.6 231.867 841.6 239.6 816.267 260.533C797.2 276.133 784.133 288 785.2 288.933C785.467 289.2 787.467 288.667 789.6 287.6C795.333 284.533 819.867 278.8 833.333 277.333C840 276.667 851.333 276 858.667 276C877.867 275.867 884.8 272.933 890.133 262.4C893.867 254.933 893.467 247.067 888.8 239.733C883.067 230.667 874.667 227.2 864.267 229.467Z" fill="white"/>
<path d="M482.667 233.2C470.267 236.4 457.867 247.733 453.467 259.867C448.4 274.267 453.2 294.4 464.267 304.133C473.467 312.133 478.8 314 492.667 314C504.8 314 505.733 313.733 512.933 309.467C527.467 300.667 534.8 286.8 533.733 270.267C532.267 248.667 517.067 233.6 495.6 232.533C490.667 232.267 484.933 232.533 482.667 233.2ZM502.933 253.467C513.867 258.8 518.8 273.733 512.8 283.467C508.667 290.267 501.333 294.933 494.267 295.6C486.267 296.267 480.133 293.2 474.4 285.6C460.533 267.2 481.867 243.2 502.933 253.467Z" fill="white"/>
<path d="M834.933 305.467C833.867 307.2 831.6 312 829.867 316C828.267 320 826.533 323.867 826 324.4C825.467 325.067 821.867 324.533 817.867 323.467C804.4 319.467 792.4 321.867 778 331.333C768.267 337.867 761.867 344.933 757.6 354.4C755.067 359.733 754.667 363.067 754.667 376C754.667 389.867 755.067 392.133 758.267 398.933C768.667 421.333 793.733 433.867 818 428.8C830.4 426.133 839.333 421.067 848 411.733C856 403.2 860 394.133 861.333 381.867C862.267 374.533 861.467 370.267 857.333 356.533C856.533 353.867 857.2 353.467 863.333 352.133C875.333 349.6 881.467 344.8 878 340.667C876 338.267 865.733 335.867 853.333 334.8C842.933 334 842.667 333.867 842.933 330.667C843.6 322.533 841.6 307.733 839.333 305.067L837.067 302.133L834.933 305.467ZM821.6 340.667C827.867 343.333 833.867 348.533 838.4 355.067C842 360.267 843.333 368 840.667 368C839.733 368 839.733 368.8 840.667 370.667C841.867 372.8 841.733 373.333 839.867 373.333C838.267 373.333 837.867 374.133 838.4 376.267L839.2 379.333L836.8 376.267C834.667 373.467 834.267 373.333 832.667 375.2C831.2 377.067 831.333 377.333 833.2 376.533C834.533 376 835.333 376.4 835.333 377.733C835.333 378.8 834.533 379.733 833.733 379.6C829.333 379.467 827.2 380.133 828 381.467C828.533 382.267 829.733 382.533 830.8 382.133C831.733 381.733 832.933 382 833.2 382.533C833.6 383.067 831.467 384.4 828.4 385.333C823.467 386.8 823.067 387.2 825.067 388.667C827.6 390.533 826.8 392.267 823.867 391.067C822.667 390.667 821.467 391.733 820.667 394.267C819.333 398.133 818.667 398.4 809.733 398.8C805.067 399.067 802.4 401.333 804.933 402.8C805.733 403.333 806.133 404.4 805.867 405.2C805.467 406.267 804.133 405.733 802.267 403.867C799.867 401.733 798.667 401.467 797.6 402.533C796.533 403.6 796.667 404 798.267 404C799.467 404 800.933 404.667 801.467 405.467C802.4 407.2 798.4 406.667 793.467 404.667C791.6 403.867 791.2 404 791.867 405.2C792.533 406.133 794.267 407.333 795.867 408C798.4 409.067 798.4 409.2 795.067 409.2C792.933 409.333 791.333 408.667 791.333 407.867C791.333 407.2 790.8 406.8 790.267 407.2C788.267 408.4 780.933 402.933 776.8 397.333C768.8 386.267 768 369.467 775.067 356.933C784.4 340.4 804.267 333.467 821.6 340.667ZM808.667 401.333C808.667 402 808.133 402.667 807.333 402.667C806.667 402.667 806 402 806 401.333C806 400.533 806.667 400 807.333 400C808.133 400 808.667 400.533 808.667 401.333Z" fill="white"/>
<path d="M836 370.667C836.4 371.333 837.067 372 837.467 372C837.733 372 838 371.333 838 370.667C838 369.867 837.333 369.333 836.533 369.333C835.867 369.333 835.6 369.867 836 370.667Z" fill="white"/>
<path d="M820 388C819.6 388.667 819.867 389.333 820.533 389.333C821.333 389.333 822 388.667 822 388C822 387.2 821.733 386.667 821.467 386.667C821.067 386.667 820.4 387.2 820 388Z" fill="white"/>
<path d="M815.333 389.467C815.333 390.133 816 390.4 816.667 390C817.467 389.6 818 388.933 818 388.533C818 388.267 817.467 388 816.667 388C816 388 815.333 388.667 815.333 389.467Z" fill="white"/>
<path d="M811.467 394.267C810.534 395.333 810.134 396.533 810.667 397.067C811.067 397.467 811.867 397.2 812.4 396.4C812.934 395.6 814.534 394.933 815.867 395.067C817.2 395.2 818.534 394.667 818.8 394C819.6 391.867 813.467 392.133 811.467 394.267Z" fill="white"/>
<path d="M787.333 404.133C787.333 404.8 788 405.067 788.667 404.667C789.467 404.267 790 403.6 790 403.2C790 402.933 789.467 402.667 788.667 402.667C788 402.667 787.333 403.333 787.333 404.133Z" fill="white"/>
<path d="M138.4 308.8C136.4 312 136.4 312.667 138.133 315.867C142 322.667 152.667 320.267 152.667 312.667C152.667 305.2 142.533 302.533 138.4 308.8Z" fill="white"/>
<path d="M59.3333 329.067C49.8666 332.667 45.7333 335.333 39.0666 342.267C23.4666 358.267 20.5333 382 31.4666 404C46.8 434.4 92.2666 438 114 410.533C122 400.4 125.2 390.933 125.2 376.533C125.333 365.2 125.067 363.867 120.267 354.4C114.667 342.933 108.4 336.667 96.6666 330.933C87.2 326.267 68.9333 325.333 59.3333 329.067ZM90 346.667C96.5333 350 105.333 359.733 107.333 366C109.867 373.733 108.133 388.533 103.733 395.333C99.6 401.867 89.0666 410 81.8666 412.267C70.5333 415.6 53.0666 407.733 46.4 396.267C43.4666 391.2 42.6666 388.133 42.2666 378.8C41.7333 365.333 43.3333 360.133 50.9333 352.933C55.2 348.667 61.2 345.867 70.6666 343.467C75.0666 342.4 84.9333 344.133 90 346.667Z" fill="white"/>
<path d="M54.8 357.733C50.1334 361.2 55.3334 368.133 61.0667 365.867C64 364.8 64.9334 361.6 63.3334 358.533C61.7334 355.6 58.1334 355.2 54.8 357.733Z" fill="white"/>
<path d="M88.1333 358.133C86.9333 359.2 86 360.667 86 361.333C86 362.533 89.7333 366.667 90.8 366.667C93.2 366.667 96.6667 363.467 96.6667 361.333C96.6667 359.867 95.4667 358.133 94.1333 357.333C90.8 355.6 90.5333 355.6 88.1333 358.133Z" fill="white"/>
<path d="M72.6668 369.067C70.4001 370.933 69.8668 372.267 70.6668 374.533C71.3334 376.933 72.4001 377.467 75.7334 377.067C79.2001 376.8 80.1334 376 80.4001 373.067C80.9334 368 76.6668 365.867 72.6668 369.067Z" fill="white"/>
<path d="M53.4668 382.133C50.9334 384.667 50.8001 385.6 52.9334 387.733C55.6001 390.4 61.7334 389.733 62.6668 386.667C64.4001 381.067 57.7334 377.867 53.4668 382.133Z" fill="white"/>
<path d="M88.2668 382.133C86.2668 384.267 87.4668 388.133 90.6668 389.6C93.4668 390.933 94.5335 390.8 96.4002 388.933C98.1335 387.2 98.2668 386.133 97.2002 384.267C95.7335 381.867 89.8668 380.533 88.2668 382.133Z" fill="white"/>
<path d="M69.6 393.867C68.4 396.933 69.8667 399.733 72.8 400.667C76.2667 401.867 79.6 398.933 79.0667 395.467C78.5333 391.867 70.8 390.667 69.6 393.867Z" fill="white"/>
<path d="M449.467 344.133C444.8 349.6 444.933 355.2 449.867 360.133C452.667 362.933 455.067 364 458.4 364C464.933 364 467.2 362.933 469.333 358.533C472.4 352.8 471.733 348.267 467.467 343.867C461.867 338.267 454.267 338.4 449.467 344.133Z" fill="white"/>
<path d="M697.067 349.333C686.667 355.6 690.8 370.667 703.733 373.867C711.333 375.733 719.333 368.4 719.333 359.6C719.333 348.667 707.2 343.067 697.067 349.333Z" fill="white"/>
<path d="M399.867 364.667C395.2 371.733 403.467 378.4 409.067 372.267C412 369.067 411.867 366.267 408.933 363.6C405.467 360.4 402.4 360.8 399.867 364.667Z" fill="white"/>
<path d="M340.4 375.467C336 377.733 332.667 383.733 332.667 388.933C332.667 393.6 336.8 400.533 341.333 403.467C348.933 408.4 361.733 402.4 364.533 392.533C368.133 379.733 352.667 368.8 340.4 375.467Z" fill="white"/>
<path d="M151.067 401.467C148.133 403.067 148 408.4 150.667 410.667C153.2 412.8 156.667 411.867 158.933 408.4C160.667 405.867 160.533 405.2 158.133 402.8C154.933 399.6 154.267 399.467 151.067 401.467Z" fill="white"/>
<path d="M690.133 410.267C684.4 413.067 680.667 419.2 680.667 426C680.667 443.333 701.6 450.8 714.133 437.867C728.533 423.067 709.333 400.8 690.133 410.267Z" fill="white"/>
<path d="M167.333 956.133C162.267 958.133 159.333 962.667 159.333 968.933C159.333 973.467 160 975.067 163.467 977.867C169.067 982.533 175.333 982.533 180.8 977.6C184 974.8 184.933 972.8 184.933 969.067C184.933 962.933 181.6 957.867 176.4 956.133C171.6 954.4 171.733 954.4 167.333 956.133Z" fill="white"/>
<path d="M781.067 956.667C776 958.8 774 962.267 774 968.4C774 977.333 781.867 982.933 790.667 980C801.867 976.267 802.267 962.267 791.333 956.667C786.667 954.267 786.533 954.267 781.067 956.667Z" fill="white"/>
<path d="M56.1334 959.333C53.6001 961.733 52.6667 963.867 52.6667 967.733C52.6667 977.733 61.4667 983.733 69.8667 979.467C74.8001 976.8 76.6667 973.6 76.6667 967.6C76.6667 957.733 63.6001 952.4 56.1334 959.333Z" fill="white"/>
<path d="M109.333 959.333C106.8 961.733 106 964 106 968.267C106.133 974.4 107.6 977.333 112.267 979.733C120.4 984.133 130 977.867 130 968.4C130 957.6 116.8 951.733 109.333 959.333Z" fill="white"/>
<path d="M724.267 959.733C719.2 965.067 719.333 972.133 724.533 977.467C727.067 980 729.867 981.333 732.4 981.333C737.467 981.333 744.933 976.133 746 972C749.067 959.733 732.933 950.667 724.267 959.733Z" fill="white"/>
<path d="M829.6 959.733C820.533 969.2 830.133 984.133 842.533 980C852 976.933 854.4 966.933 847.467 959.867C842 954.533 834.667 954.4 829.6 959.733Z" fill="white"/>
</svg>
