<svg xmlns="http://www.w3.org/2000/svg" version="1.0" width="1437.000000pt" height="391.000000pt" viewBox="0 0 1437.000000 391.000000" preserveAspectRatio="xMidYMid meet">

<g transform="translate(0.000000,391.000000) scale(0.100000,-0.100000)" fill="#111111" stroke="none">
<path d="M12702 3895 c-7 -8 -21 -15 -30 -15 -37 0 -138 -63 -184 -115 -60 -66 -108 -198 -108 -295 0 -224 167 -402 391 -417 134 -10 260 43 364 153 25 27 45 54 45 60 0 6 6 17 14 23 8 6 16 24 19 39 3 15 11 48 17 74 9 35 9 63 0 110 -18 105 -22 117 -36 129 -8 6 -14 20 -14 30 0 11 -4 19 -9 19 -5 0 -12 8 -15 18 -17 54 -170 172 -223 172 -11 0 -26 7 -33 15 -17 21 -179 21 -198 0z" fill="#111111"/>
<path d="M13740 3895 c-7 -8 -20 -15 -29 -15 -20 0 -73 -26 -122 -60 -52 -36 -95 -88 -131 -160 -31 -63 -32 -69 -33 -190 0 -103 3 -129 18 -150 9 -13 17 -30 17 -38 0 -13 40 -71 70 -102 97 -98 248 -146 376 -120 266 54 423 297 344 531 -33 97 -77 157 -171 234 -24 20 -83 48 -126 60 -13 4 -23 11 -23 16 0 5 -40 9 -89 9 -66 0 -92 -4 -101 -15z" fill="#111111"/>
<path d="M9725 3819 c-74 -8 -115 -21 -157 -50 -40 -28 -98 -87 -98 -100 0 -5 -5 -9 -10 -9 -6 0 -15 -10 -20 -22 -6 -13 -14 -30 -19 -38 -24 -39 -40 -92 -51 -170 -15 -115 -9 -2950 7 -3025 52 -239 322 -400 544 -326 157 53 233 133 282 302 14 44 17 100 17 264 l0 208 75 73 c71 71 115 93 115 59 0 -8 4 -15 10 -15 5 0 76 -66 157 -146 81 -80 181 -176 222 -212 41 -37 143 -134 226 -217 288 -284 368 -335 535 -335 166 0 298 83 369 234 31 65 32 73 28 165 -2 53 -10 112 -18 131 -18 44 -72 130 -81 130 -5 0 -8 5 -8 10 0 6 -17 27 -37 48 -21 21 -76 79 -122 128 -47 49 -192 197 -323 329 -158 160 -238 248 -238 262 0 13 31 48 87 99 88 79 184 167 234 214 56 53 165 149 194 172 97 76 220 228 231 288 4 17 11 33 15 36 5 3 9 42 9 87 0 289 -225 487 -497 437 -97 -18 -166 -58 -273 -160 -51 -50 -95 -90 -97 -90 -2 0 -14 -10 -26 -22 -12 -13 -73 -70 -136 -128 -63 -58 -147 -136 -186 -175 -77 -75 -140 -134 -277 -258 -150 -136 -161 -145 -175 -140 -15 6 -18 204 -13 998 2 445 1 510 -15 590 -20 102 -65 201 -113 251 -32 33 -115 94 -127 94 -4 0 -21 6 -38 14 -38 17 -120 23 -202 15z" fill="#111111"/>
<path d="M1810 3760 c-208 -14 -451 -79 -665 -180 -33 -15 -67 -31 -75 -34 -45 -19 -198 -124 -280 -190 -75 -61 -185 -167 -250 -241 -122 -141 -182 -230 -255 -385 -104 -217 -134 -311 -176 -540 -14 -79 -19 -152 -19 -295 0 -269 26 -414 122 -690 23 -64 70 -167 80 -175 3 -3 10 -18 13 -33 4 -15 11 -27 15 -27 4 0 11 -8 14 -18 3 -9 12 -26 19 -37 44 -70 71 -111 76 -115 4 -3 28 -32 53 -65 107 -141 305 -318 465 -416 217 -133 389 -198 633 -239 150 -25 499 -28 611 -5 259 54 331 77 509 163 52 26 101 52 108 59 7 7 20 13 28 13 8 0 14 5 14 10 0 6 4 10 9 10 26 0 183 158 207 209 9 20 22 39 28 43 7 5 10 58 10 150 0 129 -2 148 -23 193 -28 59 -128 161 -187 192 -104 54 -239 68 -358 37 -33 -9 -115 -43 -180 -76 -65 -33 -126 -63 -135 -67 -9 -4 -31 -15 -49 -24 -19 -9 -42 -17 -52 -17 -9 0 -34 -7 -53 -15 -45 -19 -340 -21 -384 -4 -15 6 -44 15 -63 19 -59 13 -168 57 -180 71 -3 4 -23 16 -46 28 -44 23 -186 157 -244 229 -48 59 -111 178 -132 243 -47 154 -48 158 -48 339 0 132 4 188 15 220 8 23 15 53 15 66 0 39 98 248 136 289 12 12 31 39 43 59 13 20 27 36 32 36 5 0 9 4 9 10 0 13 83 89 124 114 17 10 45 31 62 46 53 46 166 96 339 150 105 33 417 15 520 -29 11 -5 40 -17 65 -27 25 -10 90 -47 145 -82 109 -71 120 -76 217 -103 85 -24 101 -24 189 1 134 37 230 114 286 230 24 52 42 120 43 165 0 53 -24 144 -49 186 -12 19 -25 44 -31 57 -17 40 -143 156 -235 218 -112 74 -277 156 -380 188 -172 53 -270 73 -426 86 -122 10 -120 10 -279 0z" fill="#111111"/>
<path d="M4635 2773 c-136 -15 -273 -44 -333 -69 -18 -8 -42 -14 -52 -14 -11 0 -20 -4 -20 -9 0 -5 -13 -12 -30 -16 -31 -7 -123 -52 -175 -86 -16 -10 -38 -22 -47 -25 -10 -4 -18 -10 -18 -14 0 -5 -10 -12 -22 -16 -24 -7 -288 -265 -288 -281 0 -6 -10 -21 -22 -35 -33 -37 -42 -52 -102 -173 -60 -122 -116 -282 -116 -330 0 -17 -7 -57 -15 -88 -17 -67 -20 -278 -4 -347 5 -24 14 -74 19 -110 10 -71 27 -133 61 -225 27 -73 90 -194 117 -223 6 -7 12 -20 12 -28 0 -8 4 -14 8 -14 4 0 21 -21 37 -48 34 -56 189 -211 278 -278 34 -27 64 -51 67 -55 3 -3 15 -9 28 -13 12 -4 22 -12 22 -17 0 -5 6 -9 14 -9 8 0 16 -4 18 -9 5 -12 169 -89 251 -117 240 -82 591 -77 857 12 117 39 300 127 338 162 8 7 27 21 41 30 63 41 151 128 216 212 27 36 52 67 55 70 4 3 10 12 14 20 14 31 34 63 43 69 11 8 96 184 121 251 21 58 42 137 63 235 20 97 23 355 5 419 -9 30 -16 64 -16 77 0 67 -92 310 -158 419 -12 19 -25 42 -29 50 -4 8 -12 20 -17 27 -6 6 -29 33 -51 60 -77 93 -191 206 -260 258 -146 110 -324 199 -446 224 -19 4 -40 11 -46 14 -37 23 -327 51 -418 40z m278 -884 c26 -7 47 -17 47 -21 0 -5 7 -8 14 -8 34 0 176 -116 176 -144 0 -5 6 -14 13 -20 14 -12 37 -65 57 -131 22 -76 3 -284 -33 -348 -39 -69 -129 -172 -167 -190 -8 -4 -33 -18 -55 -32 -22 -13 -47 -24 -56 -25 -9 0 -30 -7 -45 -15 -40 -21 -222 -21 -250 0 -10 8 -29 15 -40 15 -12 0 -27 7 -34 15 -7 8 -21 15 -32 15 -22 0 -168 141 -191 185 -62 120 -60 113 -61 251 0 107 3 135 17 157 9 14 17 31 17 37 0 21 91 131 140 169 50 39 99 65 180 93 55 20 230 18 303 -3z" fill="#111111"/>
<path d="M7465 2755 c-98 -17 -231 -54 -290 -80 -16 -8 -49 -22 -72 -31 -24 -10 -43 -21 -43 -26 0 -4 -8 -8 -19 -8 -10 0 -24 -6 -30 -14 -7 -8 -23 -17 -36 -20 -14 -4 -25 -11 -25 -16 0 -6 -6 -10 -14 -10 -8 0 -16 -4 -18 -8 -1 -5 -24 -23 -50 -40 -156 -107 -343 -352 -432 -567 -10 -22 -21 -47 -25 -55 -5 -9 -12 -31 -15 -50 -4 -19 -11 -44 -16 -55 -4 -11 -16 -54 -25 -95 -24 -103 -24 -424 -1 -489 9 -24 16 -54 16 -66 0 -13 7 -36 15 -51 8 -16 15 -39 15 -51 0 -12 5 -25 10 -28 6 -3 10 -13 10 -22 0 -8 6 -29 14 -46 7 -18 21 -52 32 -77 10 -25 24 -52 31 -61 7 -8 13 -19 13 -22 0 -6 20 -37 105 -165 45 -68 201 -226 265 -270 53 -36 61 -42 94 -70 8 -6 20 -12 25 -12 5 0 16 -6 23 -12 29 -28 166 -86 288 -122 93 -27 284 -56 375 -56 32 0 101 6 154 14 53 8 110 17 126 19 80 12 355 113 375 137 3 4 26 17 53 30 26 13 47 27 47 32 0 4 5 8 11 8 30 0 219 173 313 286 66 80 186 296 186 335 0 9 3 19 7 23 8 8 23 57 55 186 19 72 22 115 22 280 1 208 -6 255 -61 420 -34 102 -101 254 -126 285 -5 5 -21 29 -35 51 -110 170 -252 305 -447 424 -67 41 -147 80 -164 80 -6 0 -11 5 -11 10 0 6 -11 10 -25 10 -13 0 -39 6 -57 14 -136 57 -460 83 -643 51z m379 -862 c100 -32 134 -52 205 -124 55 -54 78 -84 94 -120 69 -157 63 -325 -17 -461 -26 -45 -121 -149 -147 -161 -7 -4 -34 -18 -58 -32 -24 -14 -51 -25 -60 -25 -9 0 -25 -7 -35 -15 -29 -22 -222 -21 -273 1 -96 42 -140 64 -160 81 -13 10 -34 26 -47 35 -37 27 -112 146 -136 218 -19 55 -21 81 -18 170 6 135 33 194 133 296 69 70 130 106 225 137 65 21 230 21 294 0z" fill="#111111"/>
<path d="M12690 2702 c-25 -8 -61 -22 -80 -31 -42 -20 -180 -154 -180 -176 0 -9 -6 -26 -14 -38 -8 -12 -22 -60 -31 -106 -16 -75 -17 -166 -12 -975 4 -625 9 -906 17 -941 11 -50 26 -89 58 -154 24 -49 115 -137 171 -165 114 -58 274 -54 393 10 63 33 128 86 141 114 4 8 16 30 28 49 44 74 51 110 58 306 3 105 4 548 1 985 -6 824 -5 809 -46 893 -8 16 -14 35 -14 42 0 19 -112 130 -152 152 -98 52 -243 67 -338 35z" fill="#111111"/>
<path d="M13730 2703 c-25 -9 -52 -19 -60 -24 -8 -5 -30 -16 -48 -25 -42 -22 -142 -118 -142 -138 0 -9 -4 -16 -10 -16 -5 0 -10 -7 -10 -16 0 -9 -6 -28 -14 -42 -8 -15 -21 -67 -31 -117 -15 -81 -16 -171 -12 -950 6 -936 6 -942 63 -1060 16 -33 52 -85 81 -115 97 -103 212 -141 357 -120 185 27 313 144 361 330 22 85 23 1839 1 1954 -23 119 -69 199 -158 271 -90 74 -268 106 -378 68z" fill="#111111"/>
</g>
</svg>