<svg width="2725" height="752" viewBox="0 0 2725 752" fill="none" xmlns="http://www.w3.org/2000/svg">
<path d="M2513.6 178C2512.67 179.067 2510.8 180 2509.6 180C2504.67 180 2491.2 188.4 2485.07 195.333C2477.07 204.133 2470.67 221.733 2470.67 234.667C2470.67 264.533 2492.93 288.267 2522.8 290.267C2540.67 291.6 2557.47 284.533 2571.33 269.867C2574.67 266.267 2577.33 262.667 2577.33 261.867C2577.33 261.067 2578.13 259.6 2579.2 258.8C2580.27 258 2581.33 255.6 2581.73 253.6C2582.13 251.6 2583.2 247.2 2584 243.733C2585.2 239.067 2585.2 235.333 2584 229.067C2581.6 215.067 2581.07 213.467 2579.2 211.867C2578.13 211.067 2577.33 209.2 2577.33 207.867C2577.33 206.4 2576.8 205.333 2576.13 205.333C2575.47 205.333 2574.53 204.267 2574.13 202.933C2571.87 195.733 2551.47 180 2544.4 180C2542.93 180 2540.93 179.067 2540 178C2537.73 175.2 2516.13 175.2 2513.6 178Z" fill="#F9FAFC"/>
<path d="M2652 178C2651.07 179.066 2649.33 180 2648.13 180C2645.47 180 2638.4 183.466 2631.87 188C2624.93 192.8 2619.2 199.733 2614.4 209.333C2610.27 217.733 2610.13 218.533 2610 234.666C2610 248.4 2610.4 251.866 2612.4 254.666C2613.6 256.4 2614.67 258.666 2614.67 259.733C2614.67 261.466 2620 269.2 2624 273.333C2636.93 286.4 2657.07 292.8 2674.13 289.333C2709.6 282.133 2730.53 249.733 2720 218.533C2715.6 205.6 2709.73 197.6 2697.2 187.333C2694 184.666 2686.13 180.933 2680.4 179.333C2678.67 178.8 2677.33 177.866 2677.33 177.2C2677.33 176.533 2672 176 2665.47 176C2656.67 176 2653.2 176.533 2652 178Z" fill="#F9FAFC"/>
<path d="M2116.67 188.133C2106.8 189.2 2101.33 190.933 2095.73 194.8C2090.4 198.533 2082.67 206.4 2082.67 208.133C2082.67 208.8 2082 209.333 2081.33 209.333C2080.53 209.333 2079.33 210.666 2078.67 212.266C2077.87 214 2076.8 216.266 2076.13 217.333C2072.93 222.533 2070.8 229.6 2069.33 240C2067.33 255.333 2068.13 633.333 2070.27 643.333C2077.2 675.2 2113.2 696.666 2142.8 686.8C2163.73 679.733 2173.87 669.066 2180.4 646.533C2182.27 640.666 2182.67 633.2 2182.67 611.333V583.6L2192.67 573.866C2202.13 564.4 2208 561.466 2208 566C2208 567.066 2208.53 568 2209.33 568C2210 568 2219.47 576.8 2230.27 587.466C2241.07 598.133 2254.4 610.933 2259.87 615.733C2265.33 620.666 2278.93 633.6 2290 644.666C2328.4 682.533 2339.07 689.333 2361.33 689.333C2383.47 689.333 2401.07 678.266 2410.53 658.133C2414.67 649.466 2414.8 648.4 2414.27 636.133C2414 629.066 2412.93 621.2 2411.87 618.666C2409.47 612.8 2402.27 601.333 2401.07 601.333C2400.4 601.333 2400 600.666 2400 600C2400 599.2 2397.73 596.4 2395.07 593.6C2392.27 590.8 2384.93 583.066 2378.8 576.533C2372.53 570 2353.2 550.266 2335.73 532.666C2314.67 511.333 2304 499.6 2304 497.733C2304 496 2308.13 491.333 2315.6 484.533C2327.33 474 2340.13 462.266 2346.8 456C2354.27 448.933 2368.8 436.133 2372.67 433.066C2385.6 422.933 2402 402.666 2403.47 394.666C2404 392.4 2404.93 390.266 2405.47 389.866C2406.13 389.466 2406.67 384.266 2406.67 378.266C2406.67 339.733 2376.67 313.333 2340.4 320C2327.47 322.4 2318.27 327.733 2304 341.333C2297.2 348 2291.33 353.333 2291.07 353.333C2290.8 353.333 2289.2 354.666 2287.6 356.266C2286 358 2277.87 365.6 2269.47 373.333C2261.07 381.066 2249.87 391.466 2244.67 396.666C2234.4 406.666 2226 414.533 2207.73 431.066C2187.73 449.2 2186.27 450.4 2184.4 449.733C2182.4 448.933 2182 422.533 2182.67 316.666C2182.93 257.333 2182.8 248.666 2180.67 238C2178 224.4 2172 211.2 2165.6 204.533C2161.33 200.133 2150.27 192 2148.67 192C2148.13 192 2145.87 191.2 2143.6 190.133C2138.53 187.866 2127.6 187.066 2116.67 188.133Z" fill="#F9FAFC"/>
<path d="M1061.33 196C1033.6 197.867 1001.2 206.533 972.667 220C968.267 222 963.733 224.133 962.667 224.533C956.667 227.067 936.267 241.067 925.333 249.867C915.333 258 900.667 272.133 892 282C875.733 300.8 867.733 312.667 858 333.333C844.133 362.267 840.133 374.8 834.533 405.333C832.667 415.867 832 425.6 832 444.667C832 480.533 835.467 499.867 848.267 536.667C851.333 545.2 857.6 558.933 858.933 560C859.333 560.4 860.267 562.4 860.667 564.4C861.2 566.4 862.133 568 862.667 568C863.2 568 864.133 569.067 864.533 570.4C864.933 571.6 866.133 573.867 867.067 575.333C872.933 584.667 876.533 590.133 877.2 590.667C877.733 591.067 880.933 594.933 884.267 599.333C898.533 618.133 924.933 641.733 946.267 654.8C975.2 672.533 998.133 681.2 1030.67 686.667C1050.67 690 1097.2 690.4 1112.13 687.333C1146.67 680.133 1156.27 677.067 1180 665.6C1186.93 662.133 1193.47 658.667 1194.4 657.733C1195.33 656.8 1197.07 656 1198.13 656C1199.2 656 1200 655.333 1200 654.667C1200 653.867 1200.53 653.333 1201.2 653.333C1204.67 653.333 1225.6 632.267 1228.8 625.467C1230 622.8 1231.73 620.267 1232.53 619.733C1233.47 619.067 1233.87 612 1233.87 599.733C1233.87 582.533 1233.6 580 1230.8 574C1227.07 566.133 1213.73 552.533 1205.87 548.4C1192 541.2 1174 539.333 1158.13 543.467C1153.73 544.667 1142.8 549.2 1134.13 553.6C1125.47 558 1117.33 562 1116.13 562.533C1114.93 563.067 1112 564.533 1109.6 565.733C1107.07 566.933 1104 568 1102.67 568C1101.47 568 1098.13 568.933 1095.6 570C1089.6 572.533 1050.27 572.8 1044.4 570.533C1042.4 569.733 1038.53 568.533 1036 568C1028.13 566.267 1013.6 560.4 1012 558.533C1011.6 558 1008.93 556.4 1005.87 554.8C1000 551.733 981.067 533.867 973.333 524.267C966.933 516.4 958.533 500.533 955.733 491.867C949.467 471.333 949.333 470.8 949.333 446.667C949.333 429.067 949.867 421.6 951.333 417.333C952.4 414.267 953.333 410.267 953.333 408.533C953.333 403.333 966.4 375.467 971.467 370C973.067 368.4 975.6 364.8 977.2 362.133C978.933 359.467 980.8 357.333 981.467 357.333C982.133 357.333 982.667 356.8 982.667 356C982.667 354.267 993.733 344.133 999.2 340.8C1001.47 339.467 1005.2 336.667 1007.47 334.667C1014.53 328.533 1029.6 321.867 1052.67 314.667C1066.67 310.267 1108.27 312.667 1122 318.533C1123.47 319.2 1127.33 320.8 1130.67 322.133C1134 323.467 1142.67 328.4 1150 333.067C1164.53 342.533 1166 343.2 1178.93 346.8C1190.27 350 1192.4 350 1204.13 346.667C1222 341.733 1234.8 331.467 1242.27 316C1245.47 309.067 1247.87 300 1248 294C1248 286.933 1244.8 274.8 1241.47 269.2C1239.87 266.667 1238.13 263.333 1237.33 261.6C1235.07 256.267 1218.27 240.8 1206 232.533C1191.07 222.667 1169.07 211.733 1155.33 207.467C1132.4 200.4 1119.33 197.733 1098.53 196C1082.27 194.667 1082.53 194.667 1061.33 196Z" fill="#F9FAFC"/>
<path d="M1438 327.6C1419.87 329.6 1401.6 333.466 1393.6 336.8C1391.2 337.866 1388 338.666 1386.67 338.666C1385.2 338.666 1384 339.2 1384 339.866C1384 340.533 1382.27 341.466 1380 342C1375.87 342.933 1363.6 348.933 1356.67 353.466C1354.53 354.8 1351.6 356.4 1350.4 356.8C1349.07 357.333 1348 358.133 1348 358.666C1348 359.333 1346.67 360.266 1345.07 360.8C1341.87 361.733 1306.67 396.133 1306.67 398.266C1306.67 399.066 1305.33 401.066 1303.73 402.933C1299.33 407.866 1298.13 409.866 1290.13 426C1282.13 442.266 1274.67 463.6 1274.67 470C1274.67 472.266 1273.73 477.6 1272.67 481.733C1270.4 490.666 1270 518.8 1272.13 528C1272.8 531.2 1274 537.866 1274.67 542.666C1276 552.133 1278.27 560.4 1282.8 572.666C1286.4 582.4 1294.8 598.533 1298.4 602.4C1299.2 603.333 1300 605.066 1300 606.133C1300 607.2 1300.53 608 1301.07 608C1301.6 608 1303.87 610.8 1306 614.4C1310.53 621.866 1331.2 642.533 1343.07 651.466C1347.6 655.066 1351.6 658.266 1352 658.8C1352.4 659.2 1354 660 1355.73 660.533C1357.33 661.066 1358.67 662.133 1358.67 662.8C1358.67 663.466 1359.47 664 1360.53 664C1361.6 664 1362.67 664.533 1362.93 665.2C1363.6 666.8 1385.47 677.066 1396.4 680.8C1428.4 691.733 1475.2 691.066 1510.67 679.2C1526.27 674 1550.67 662.266 1555.73 657.6C1556.8 656.666 1559.33 654.8 1561.2 653.6C1569.6 648.133 1581.33 636.533 1590 625.333C1593.6 620.533 1596.93 616.4 1597.33 616C1597.87 615.6 1598.67 614.4 1599.2 613.333C1601.07 609.2 1603.73 604.933 1604.93 604.133C1606.4 603.066 1617.73 579.6 1621.07 570.666C1623.87 562.933 1626.67 552.4 1629.47 539.333C1632.13 526.4 1632.53 492 1630.13 483.466C1628.93 479.466 1628 474.933 1628 473.2C1628 464.266 1615.73 431.866 1606.93 417.333C1605.33 414.8 1603.6 411.733 1603.07 410.666C1602.53 409.6 1601.47 408 1600.8 407.066C1600 406.266 1596.93 402.666 1594 399.066C1583.73 386.666 1568.53 371.6 1559.33 364.666C1539.87 350 1516.13 338.133 1499.87 334.8C1497.33 334.266 1494.53 333.333 1493.73 332.933C1488.8 329.866 1450.13 326.133 1438 327.6ZM1475.07 445.466C1478.53 446.4 1481.33 447.733 1481.33 448.266C1481.33 448.933 1482.27 449.333 1483.2 449.333C1487.73 449.333 1506.67 464.8 1506.67 468.533C1506.67 469.2 1507.47 470.4 1508.4 471.2C1510.27 472.8 1513.33 479.866 1516 488.666C1518.93 498.8 1516.4 526.533 1511.6 535.066C1506.4 544.266 1494.4 558 1489.33 560.4C1488.27 560.933 1484.93 562.8 1482 564.666C1479.07 566.4 1475.73 567.866 1474.53 568C1473.33 568 1470.53 568.933 1468.53 570C1463.2 572.8 1438.93 572.8 1435.2 570C1433.87 568.933 1431.33 568 1429.87 568C1428.27 568 1426.27 567.066 1425.33 566C1424.4 564.933 1422.53 564 1421.07 564C1418.13 564 1398.67 545.2 1395.6 539.333C1387.33 523.333 1387.6 524.266 1387.47 505.866C1387.47 491.6 1387.87 487.866 1389.73 484.933C1390.93 483.066 1392 480.8 1392 480C1392 477.2 1404.13 462.533 1410.67 457.466C1417.33 452.266 1423.87 448.8 1434.67 445.066C1442 442.4 1465.33 442.666 1475.07 445.466Z" fill="#F9FAFC"/>
<path d="M1815.33 330C1802.27 332.266 1784.53 337.2 1776.67 340.666C1774.53 341.733 1770.13 343.6 1767.07 344.8C1763.87 346.133 1761.33 347.6 1761.33 348.266C1761.33 348.8 1760.27 349.333 1758.8 349.333C1757.47 349.333 1755.6 350.133 1754.8 351.2C1753.87 352.266 1751.73 353.466 1750 353.866C1748.13 354.4 1746.67 355.333 1746.67 356C1746.67 356.8 1745.87 357.333 1744.8 357.333C1743.73 357.333 1742.67 357.866 1742.4 358.4C1742.27 359.066 1739.2 361.466 1735.73 363.733C1714.93 378 1690 410.666 1678.13 439.333C1676.8 442.266 1675.33 445.6 1674.8 446.666C1674.13 447.866 1673.2 450.8 1672.8 453.333C1672.27 455.866 1671.33 459.2 1670.67 460.666C1670.13 462.133 1668.53 467.866 1667.33 473.333C1664.13 487.066 1664.13 529.866 1667.2 538.533C1668.4 541.733 1669.33 545.733 1669.33 547.333C1669.33 549.066 1670.27 552.133 1671.33 554.133C1672.4 556.266 1673.33 559.333 1673.33 560.933C1673.33 562.533 1674 564.266 1674.67 564.666C1675.47 565.066 1676 566.4 1676 567.6C1676 568.666 1676.8 571.466 1677.87 573.733C1678.8 576.133 1680.67 580.666 1682.13 584C1683.47 587.333 1685.33 590.933 1686.27 592.133C1687.2 593.2 1688 594.666 1688 595.066C1688 595.866 1690.67 600 1702 617.066C1708 626.133 1728.8 647.2 1737.33 653.066C1744.4 657.866 1745.47 658.666 1749.87 662.4C1750.93 663.2 1752.53 664 1753.2 664C1753.87 664 1755.33 664.8 1756.27 665.6C1760.13 669.333 1778.4 677.066 1794.67 681.866C1807.07 685.466 1832.53 689.333 1844.67 689.333C1848.93 689.333 1858.13 688.533 1865.2 687.466C1872.27 686.4 1879.87 685.2 1882 684.933C1892.67 683.333 1929.33 669.866 1932 666.666C1932.4 666.133 1935.47 664.4 1939.07 662.666C1942.53 660.933 1945.33 659.066 1945.33 658.4C1945.33 657.866 1946 657.333 1946.8 657.333C1950.8 657.333 1976 634.266 1988.53 619.2C1997.33 608.533 2013.33 579.733 2013.33 574.533C2013.33 573.333 2013.73 572 2014.27 571.466C2015.33 570.4 2017.33 563.866 2021.6 546.666C2024.13 537.066 2024.53 531.333 2024.53 509.333C2024.67 481.6 2023.73 475.333 2016.4 453.333C2011.87 439.733 2002.93 419.466 1999.6 415.333C1998.93 414.666 1996.8 411.466 1994.93 408.533C1980.27 385.866 1961.33 367.866 1935.33 352C1926.4 346.533 1915.73 341.333 1913.47 341.333C1912.67 341.333 1912 340.666 1912 340C1912 339.2 1910.53 338.666 1908.67 338.666C1906.93 338.666 1903.47 337.866 1901.07 336.8C1882.93 329.2 1839.73 325.733 1815.33 330ZM1865.87 444.933C1879.2 449.2 1883.73 451.866 1893.2 461.466C1900.53 468.666 1903.6 472.666 1905.73 477.466C1914.93 498.4 1914.13 520.8 1903.47 538.933C1900 544.933 1887.33 558.8 1883.87 560.4C1882.93 560.933 1879.33 562.8 1876.13 564.666C1872.93 566.533 1869.33 568 1868.13 568C1866.93 568 1864.8 568.933 1863.47 570C1859.6 572.933 1833.87 572.8 1827.07 569.866C1814.27 564.266 1808.4 561.333 1805.73 559.066C1804 557.733 1801.2 555.6 1799.47 554.4C1794.53 550.8 1784.53 534.933 1781.33 525.333C1778.8 518 1778.53 514.533 1778.93 502.666C1779.73 484.666 1783.33 476.8 1796.67 463.2C1805.87 453.866 1814 449.066 1826.67 444.933C1835.33 442.133 1857.33 442.133 1865.87 444.933Z" fill="#F9FAFC"/>
<path d="M2512 337.066C2508.67 338.133 2503.87 340 2501.33 341.2C2495.73 343.866 2477.33 361.733 2477.33 364.666C2477.33 365.866 2476.53 368.133 2475.47 369.733C2474.4 371.333 2472.53 377.733 2471.33 383.866C2469.2 393.866 2469.07 406 2469.73 513.866C2470.27 597.2 2470.93 634.666 2472 639.333C2473.47 646 2475.47 651.2 2479.73 659.866C2482.93 666.4 2495.07 678.133 2502.53 681.866C2517.73 689.6 2539.07 689.066 2554.93 680.533C2563.33 676.133 2572 669.066 2573.73 665.333C2574.27 664.266 2575.87 661.333 2577.47 658.8C2583.33 648.933 2584.27 644.133 2585.2 618C2585.6 604 2585.73 544.933 2585.33 486.666C2584.53 376.8 2584.67 378.8 2579.2 367.6C2578.13 365.466 2577.33 362.933 2577.33 362C2577.33 359.466 2562.4 344.666 2557.07 341.733C2544 334.8 2524.67 332.8 2512 337.066Z" fill="#F9FAFC"/>
<path d="M2650.67 336.933C2647.33 338.133 2643.73 339.467 2642.67 340.133C2641.6 340.8 2638.67 342.267 2636.27 343.467C2630.67 346.4 2617.33 359.2 2617.33 361.867C2617.33 363.067 2616.8 364 2616 364C2615.33 364 2614.67 364.933 2614.67 366.133C2614.67 367.333 2613.87 369.867 2612.8 371.733C2611.73 373.733 2610 380.667 2608.67 387.333C2606.67 398.133 2606.53 410.133 2607.07 514C2607.87 638.8 2607.87 639.6 2615.47 655.333C2617.6 659.733 2622.4 666.667 2626.27 670.667C2639.2 684.4 2654.53 689.467 2673.87 686.667C2698.53 683.067 2715.6 667.467 2722 642.667C2724.93 631.333 2725.07 397.467 2722.13 382.133C2719.07 366.267 2712.93 355.6 2701.07 346C2689.07 336.133 2665.33 331.867 2650.67 336.933Z" fill="#F9FAFC"/>
<g clip-path="url(#clip0_28_375)">
<path d="M342.189 1.02005C337.071 2.55006 333.283 6.12009 330.111 12.6481C324.685 23.6642 324.174 44.0643 328.677 72.4206C331.851 92.7187 339.323 119.035 342.394 120.871C342.906 121.177 343.52 119.953 343.827 118.117C348.433 87.0064 354.063 67.3205 367.062 36.7203C371.566 25.9082 372.181 23.5622 371.668 19.6862C369.724 5.71209 355.905 -3.05997 342.189 1.02005Z" fill="#F9FAFC"/>
<path d="M406.266 22.9503C405.959 24.2763 405.857 29.2743 406.061 33.8643C406.471 43.4524 409.337 50.5924 415.581 57.8345L419.164 62.0165L415.888 62.7305C403.708 65.3825 391.424 76.9084 385.999 90.6785C384.157 95.371 383.542 107.509 384.771 114.241C385.897 120.157 391.527 130.663 396.133 135.253C406.164 145.249 416.912 149.329 431.447 148.717C439.636 148.411 442.195 147.901 447.824 145.249C458.061 140.455 465.431 133.009 470.651 122.503C474.847 113.935 474.95 113.425 474.95 103.531C474.95 94.147 474.643 92.7187 471.572 86.2927C469.32 81.4984 466.352 77.5204 462.155 73.4406L456.013 67.5245L461.029 63.5465C466.659 59.1605 472.801 50.6944 474.643 44.6764C476.383 38.9643 475.154 38.1483 467.068 39.7804C458.368 41.4124 449.462 46.1044 443.628 52.1224L438.817 57.1204L438.101 53.0404C436.258 42.2284 425.51 28.7643 414.25 23.0522C407.802 19.7882 407.085 19.7882 406.266 22.9503ZM447.313 78.2349C452.226 81.3967 455.911 85.1704 458.879 90.169C461.541 94.6565 461.643 94.9625 459.698 94.2487C458.879 93.9427 457.958 94.147 457.549 94.759C457.242 95.371 457.754 95.8805 458.777 95.983C459.8 95.983 460.107 96.289 459.391 96.595C457.447 97.3088 457.754 98.737 459.903 99.2465C461.029 99.5525 461.029 99.5525 459.596 99.4508C458.47 99.349 456.627 98.8388 455.604 98.431C453.864 97.7165 453.864 97.819 455.911 99.8585C458.265 102.205 458.061 104.041 455.297 104.041C454.069 104.041 453.864 104.653 454.478 106.795C455.092 109.549 455.092 109.549 453.454 107.611C451.816 105.673 451.816 105.673 452.226 108.325C452.737 111.487 451.509 112.099 449.974 109.447C449.462 108.427 448.643 108.019 448.234 108.427C447.824 108.835 448.029 109.753 448.643 110.365C449.36 111.079 449.872 111.997 449.872 112.405C449.872 113.731 447.006 113.323 446.392 111.895C446.085 111.283 446.085 111.895 446.392 113.323C446.801 115.465 446.494 116.077 444.856 116.587C443.321 116.995 442.911 117.607 443.321 118.831C443.935 120.259 443.628 120.463 441.58 119.851C439.943 119.443 439.533 119.545 440.454 120.157C441.58 120.973 441.376 121.585 439.533 123.319C436.872 125.767 434.927 126.073 434.211 124.135C434.006 123.523 433.391 123.217 432.982 123.625C432.573 124.033 432.675 124.951 433.289 125.665C434.62 127.297 432.163 131.173 430.526 130.051C429.911 129.745 428.99 130.459 428.478 131.785L427.66 134.131L426.943 131.785C426.227 129.541 423.258 128.521 423.258 130.561C423.258 131.071 424.077 131.581 424.998 131.581C426.329 131.581 426.432 131.887 425.51 132.805C424.691 133.621 423.975 133.621 422.849 132.703C421.825 131.887 421.211 131.785 420.699 132.601C419.573 134.437 417.935 133.723 418.652 131.581C419.062 130.459 418.857 129.541 418.242 129.541C417.628 129.541 417.116 130.255 417.116 131.071C417.116 132.805 415.479 133.111 414.557 131.581C414.148 130.969 413.431 130.765 412.92 131.173C412.408 131.479 409.542 129.235 406.471 126.175C394.699 114.139 393.778 96.595 404.424 84.7627C409.03 79.6624 416.298 75.4806 420.597 75.4806C423.156 75.4806 423.258 75.5826 423.258 82.0087C423.258 87.7209 423.565 88.8424 425.51 90.169C426.739 91.087 428.785 91.8007 429.911 91.8007C431.038 91.8007 433.084 91.087 434.313 90.169C436.258 88.8424 436.565 87.721 436.565 82.2129C436.565 78.7444 436.872 75.4806 437.179 75.1746C438.305 74.0526 442.911 75.4806 447.313 78.2349Z" fill="#F9FAFC"/>
<path d="M455.501 92.8205C455.808 93.3308 456.32 93.841 456.627 93.841C456.832 93.841 457.037 93.3308 457.037 92.8205C457.037 92.2085 456.525 91.8008 455.911 91.8008C455.399 91.8008 455.194 92.2085 455.501 92.8205Z" fill="#F9FAFC"/>
<path d="M451.509 101.491C451.919 102.306 452.328 103.021 452.533 103.021C452.738 103.021 452.942 102.306 452.942 101.491C452.942 100.675 452.533 99.9609 451.919 99.9609C451.407 99.9609 451.202 100.675 451.509 101.491Z" fill="#F9FAFC"/>
<path d="M449.36 105.06C449.053 105.571 449.257 106.081 449.77 106.081C450.384 106.081 450.895 105.571 450.895 105.06C450.895 104.448 450.691 104.041 450.486 104.041C450.179 104.041 449.667 104.448 449.36 105.06Z" fill="#F9FAFC"/>
<path d="M438.612 114.649C438.612 114.852 439.329 115.567 440.147 116.281C441.068 116.994 441.683 117.097 441.683 116.485C441.683 115.975 440.966 115.261 440.147 114.852C439.329 114.546 438.612 114.445 438.612 114.649Z" fill="#F9FAFC"/>
<path d="M436.053 121.381C435.644 121.993 435.746 123.013 436.36 123.625C437.691 124.95 438.715 123.217 437.691 121.483C436.974 120.463 436.667 120.463 436.053 121.381Z" fill="#F9FAFC"/>
<path d="M428.274 128.215C427.046 129.745 427.046 129.847 428.683 129.235C429.707 128.827 431.038 128.521 431.549 128.521C432.061 128.521 432.47 128.011 432.47 127.501C432.47 125.869 429.809 126.277 428.274 128.215Z" fill="#F9FAFC"/>
<path d="M420.699 128.521C420.392 129.031 420.597 129.54 421.108 129.54C421.723 129.54 422.235 129.031 422.235 128.521C422.235 127.909 422.03 127.501 421.825 127.501C421.518 127.501 421.006 127.909 420.699 128.521Z" fill="#F9FAFC"/>
<path d="M642.82 23.5623C626.647 25.3983 619.38 30.9064 592.664 61.2006C586.522 68.2386 579.971 75.5827 578.231 77.5205C576.491 79.459 568.916 87.9246 561.444 96.3909C549.98 109.141 527.563 133.825 525.618 135.661C525.311 135.967 515.996 146.269 504.941 158.611C493.989 170.954 476.485 190.232 466.147 201.554C455.808 212.773 441.068 228.89 433.494 237.152C425.919 245.516 416.707 255.614 413.022 259.592C409.337 263.468 401.558 272.138 395.724 278.666C389.889 285.194 382.826 292.232 379.857 294.17C373.511 298.556 364.811 300.902 355.086 300.902C333.079 300.902 304.418 311 284.97 325.586C270.844 336.195 250.065 358.533 244.742 369.039C243.821 370.875 242.593 372.099 242.081 371.793C241.467 371.385 241.058 366.998 241.058 361.899C241.058 351.189 237.885 330.788 234.302 318.344C225.294 287.54 208.814 262.142 191.413 252.452C179.642 245.924 168.28 245.516 156.406 251.024C142.178 257.756 135.013 273.77 138.698 291.008C141.052 302.33 150.367 317.936 163.468 332.42C166.232 335.378 168.28 338.031 168.178 338.234C167.973 338.438 165.925 337.928 163.673 337.113C161.319 336.296 154.359 334.971 148.012 334.053C133.068 331.808 123.241 332.93 112.698 338.132C98.3676 345.069 90.6906 355.37 88.746 370.161L88.0297 375.566L74.0063 380.462C66.3293 383.115 55.3767 387.501 49.6445 390.255L39.2038 395.151L37.259 392.805C33.4717 388.113 35.0071 384.237 42.7865 379.137C49.3375 374.751 62.849 367.713 67.5576 366.183C73.9038 364.041 76.2581 361.49 76.2581 356.391C76.2581 347.211 70.2189 345.681 54.6602 350.883C37.259 356.697 23.6452 364.449 13.7162 374.241C3.58264 384.441 0.511841 394.437 0.511841 418.203C0.511841 435.033 1.53544 445.437 5.32275 465.123C15.7635 521.122 42.5817 574.264 82.0923 617.717C86.2894 622.307 95.7067 631.588 103.179 638.32C135.934 668.309 163.673 685.547 216.798 709.313L222.838 711.965L222.428 721.349L222.121 730.835L196.838 731.345C171.862 731.855 171.555 731.855 168.996 734.303C166.13 736.955 165.311 742.973 167.358 746.747C170.224 752.051 160.705 751.745 349.15 751.745H523.776L527.256 748.277C531.862 743.687 532.067 738.587 527.768 734.303L524.799 731.345H497.981H471.265L471.572 721.553L471.879 711.863L482.422 707.681C509.65 697.073 545.373 676.672 569.838 657.905C584.782 646.378 612.931 618.838 624.805 603.946C665.237 553.354 690.11 492.051 693.488 434.727C694.921 409.023 692.67 390.663 686.835 381.585C684.071 377.199 675.268 368.834 668.922 364.449C657.662 356.799 630.23 346.19 624.702 347.313C618.97 348.638 616.104 357.206 619.892 361.796C620.608 362.511 627.159 366.08 634.529 369.651C650.088 377.199 658.686 383.931 658.686 388.623C658.686 391.377 656.434 394.743 654.592 394.743C654.08 394.743 648.245 392.091 641.591 388.827C634.836 385.665 627.159 382.197 624.498 381.074C621.836 380.055 617.946 377.402 615.9 375.159C609.962 368.834 598.089 361.49 588.774 358.329C580.995 355.779 579.152 355.575 564.003 355.676C550.594 355.676 546.193 356.085 539.641 357.818C533.192 359.553 520.091 364.449 512.721 367.815C511.902 368.121 511.39 365.877 511.083 360.878C510.264 347.414 503.099 336.195 492.044 330.788C487.13 328.442 484.879 327.933 478.021 327.933C464.099 327.933 454.376 333.747 441.99 349.659L435.03 358.43L434.723 352.616C434.518 348.129 434.927 345.884 436.462 343.436C438.51 340.173 502.28 276.524 618.56 161.875C651.93 129.031 681.512 99.0431 684.276 95.3711C691.338 86.0885 693.898 77.5205 693.284 64.9746C692.977 57.0185 692.362 54.4685 689.496 48.2465C681.512 31.1104 662.985 21.3183 642.82 23.5623ZM657.15 43.6565C657.662 44.0644 657.048 44.5745 655.615 44.9825C653.26 45.5945 653.363 45.6964 656.434 45.7985C662.985 46.0024 667.182 51.0005 668.614 60.1806C670.253 70.2787 667.182 75.1747 646.915 93.7386C634.529 105.163 595.734 143.311 510.366 227.972C437.691 299.984 418.447 319.671 413.431 326.912C410.77 330.687 404.833 347.007 404.833 350.474C404.833 353.84 403.708 353.534 398.18 348.843C395.621 346.599 393.062 344.763 392.448 344.763C391.936 344.763 391.527 346.599 391.527 348.741C391.527 350.985 391.117 353.025 390.503 353.433C389.991 353.739 387.535 358.023 385.078 362.919C379.243 374.342 376.787 378.831 376.07 379.443C375.763 379.749 373.921 382.707 372.078 386.073C367.369 394.743 356.007 409.431 348.023 417.183C344.236 420.855 340.449 424.629 339.528 425.547C338.607 426.567 337.071 427.383 336.047 427.383C333.898 427.383 332.772 429.015 334.41 429.831C335.126 430.137 334.819 430.239 333.591 429.933C332.362 429.627 330.827 430.035 330.111 430.953C329.394 431.769 328.166 432.483 327.347 432.483C326.528 432.483 326.119 432.891 326.426 433.401C326.835 433.911 325.709 434.625 324.071 435.033C322.536 435.339 320.079 436.665 318.749 437.889C317.418 439.113 316.19 439.929 316.087 439.623C315.985 439.317 314.962 439.827 313.937 440.745C312.914 441.561 311.584 442.173 310.97 441.969C310.355 441.765 309.127 442.275 308.308 443.193C307.387 444.009 305.442 445.233 304.009 445.743C301.552 446.661 301.347 447.069 302.576 448.599C303.702 450.027 303.702 450.129 302.576 449.109C300.938 447.681 298.072 448.497 299.096 450.231C299.505 450.843 298.993 450.741 298.072 449.925C296.537 448.701 296.332 448.803 296.332 450.741C296.332 451.863 295.923 452.883 295.308 452.883C294.796 452.883 294.387 452.577 294.591 452.067C294.694 451.659 294.284 451.353 293.773 451.353C293.159 451.353 292.852 451.761 293.056 452.271C293.159 452.679 283.947 452.781 272.585 452.373C255.695 451.761 251.6 451.353 250.577 450.129C249.861 449.211 248.53 445.029 247.608 440.847C240.545 409.227 264.293 363.123 299.915 339.255C316.19 328.34 338.3 321.201 360.614 319.772C375.046 318.854 385.487 315.081 394.188 307.838C399.101 303.656 415.377 286.214 481.092 214.202C495.729 198.188 514.256 177.992 522.24 169.321C535.649 154.633 579.357 105.877 613.443 67.5246C629.922 48.9605 635.348 44.6765 644.867 42.5344C647.222 42.0244 655.615 42.8404 657.15 43.6565ZM180.461 271.22C188.547 275.3 199.09 288.866 206.357 304.574C212.908 318.65 219.153 341.498 218.334 348.332C218.027 351.189 217.924 351.189 206.357 341.192C166.028 306.41 153.233 287.54 161.524 275.3C165.721 269.078 173.193 267.548 180.461 271.22ZM485.698 353.433C489.383 357.003 491.02 363.837 489.792 370.467C488.564 376.79 485.288 383.013 475.257 398.109C470.753 404.943 466.352 412.083 465.533 414.021C463.792 418.101 464.611 422.895 467.273 424.323C472.083 426.873 474.233 425.649 487.335 413.103C506.681 394.641 524.594 384.033 544.964 378.831C554.279 376.484 556.94 376.178 567.483 376.587C581.302 377.199 588.262 379.341 596.144 385.563C607.506 394.539 609.041 410.349 599.317 418.509C593.278 423.609 588.57 423.303 570.656 416.571C563.491 413.817 561.956 413.613 548.137 413.613C535.445 413.613 532.374 414.021 526.949 415.959C513.335 420.753 499.926 431.361 495.012 441.051C493.784 443.601 491.942 445.845 491.02 446.151C488.154 447.069 441.068 451.761 427.455 452.475C416.707 453.087 414.967 452.985 415.684 451.761C416.195 450.945 418.857 446.967 421.62 442.785C427.967 433.197 434.62 419.019 442.707 397.803C454.069 368.019 460.927 356.391 469.627 351.903C475.359 349.047 481.706 349.556 485.698 353.433ZM162.24 357.309C175.137 360.675 189.98 366.795 200.216 372.915C206.357 376.587 225.806 391.071 231.64 396.273C231.845 396.477 230.719 401.577 229.081 407.697C226.523 417.591 226.216 420.345 226.318 433.809L226.42 449.007L222.224 448.395C219.971 448.089 213.011 447.375 206.767 446.763C180.665 444.111 130.407 434.727 105.43 427.689C100.415 426.261 95.8088 424.833 95.3996 424.629C93.2501 423.405 107.376 416.265 121.501 411.675C141.257 405.045 162.957 406.575 184.862 416.265C194.381 420.345 196.94 420.141 198.988 414.939C200.625 410.655 197.452 406.167 188.649 400.149C177.799 392.907 170.941 390.459 159.681 389.847C152.926 389.541 148.627 389.847 143.815 391.173C132.658 394.131 128.359 394.743 124.162 394.131C112.186 392.193 105.533 378.117 111.163 366.489C113.619 361.49 117.611 358.329 124.879 355.676C131.942 353.127 148.934 353.943 162.24 357.309ZM46.2667 425.649C82.2973 444.213 144.02 459.921 208.814 467.061C274.938 474.405 289.883 475.323 344.953 475.323C390.298 475.323 443.73 472.467 470.344 468.694C471.776 468.489 476.383 468.082 480.58 467.673C528.893 463.389 595.53 448.497 631.049 433.809C642.309 429.219 660.528 419.937 666.772 415.653L671.685 412.185L672.402 416.877C673.631 426.057 673.324 427.791 669.229 431.667C652.135 447.885 610.269 464.104 552.436 476.751C522.854 483.279 475.052 489.909 441.683 492.153C436.36 492.562 430.935 492.969 429.706 493.174C428.478 493.377 413.738 494.092 396.952 494.805C308.922 498.376 210.35 491.439 142.28 476.853C91.7147 466.041 48.1091 449.415 28.3537 433.503L22.5192 428.811L22.6215 421.671C22.6215 410.349 22.9286 410.145 30.5033 415.857C33.9835 418.611 41.1487 422.997 46.2667 425.649ZM44.2195 469.612C61.416 478.18 67.6599 480.831 83.5256 486.543C89.6672 488.685 95.2968 490.827 95.9109 491.338C98.0605 492.663 113.619 496.641 129.485 499.906C137.674 501.538 144.942 503.169 145.658 503.374C146.579 503.68 145.863 504.802 143.611 506.638C141.769 508.168 140.028 509.698 139.721 510.004C139.005 510.718 128.871 518.266 122.73 522.447C117.202 526.324 109.422 530.403 107.478 530.403C105.942 530.403 86.0844 516.939 81.274 512.554C75.8487 507.759 70.9355 507.556 68.4788 512.146C66.2269 516.633 67.2505 519.387 73.1873 524.488L78.2032 528.873L72.3684 532.138C69.1953 533.974 67.0458 535.504 67.5576 535.606C70.2189 535.912 72.7779 535.096 76.3605 532.852L80.2499 530.403L83.1165 532.852C84.6519 534.076 91.1005 538.258 97.2421 541.93C114.336 552.232 129.69 557.332 156.099 561.412C170.838 563.656 170.941 563.656 167.87 565.288C166.232 566.206 159.476 570.694 153.028 575.284C139.619 584.668 125.596 591.91 115.769 594.358C112.084 595.276 109.013 596.5 109.013 597.112C109.115 600.988 144.327 638.932 156.918 648.623C164.493 654.437 160.808 653.213 150.776 646.583C131.532 633.73 114.439 618.736 97.2421 599.458C63.5655 561.616 36.9519 512.349 29.6844 474.099C28.149 465.735 27.7396 462.063 28.6608 462.063C28.8655 462.063 35.9284 465.429 44.2195 469.612ZM189.366 510.922C197.247 512.043 206.665 513.166 210.35 513.573C214.034 513.879 220.688 514.594 225.191 515.103C263.679 519.592 292.033 521.223 331.953 521.223C349.457 521.326 363.889 521.529 363.889 521.734C363.889 522.856 357.032 537.442 354.472 541.93C349.969 549.58 348.433 554.068 349.047 557.026C349.866 560.8 351.913 562.228 356.622 562.432C361.74 562.534 365.22 560.596 368.496 555.904C371.873 551.008 383.337 525.813 383.337 523.264C383.337 521.632 384.055 521.223 386.715 521.223C391.834 521.223 434.006 518.266 444.753 517.144C450.077 516.633 457.549 515.92 461.336 515.614C465.124 515.308 469.013 514.9 470.037 514.696C471.06 514.491 475.564 513.982 480.068 513.676C484.572 513.267 493.682 512.248 500.335 511.431C506.988 510.513 512.618 510.004 512.925 510.31C513.846 511.228 500.642 533.362 492.556 544.378C479.351 562.534 469.013 574.57 451.919 592.012C426.943 617.411 408.109 631.588 384.976 642.197C374.432 647.093 371.668 647.093 375.865 642.197C379.038 638.422 381.291 633.424 381.291 629.854C381.291 625.367 377.503 626.897 368.905 634.954C363.684 639.952 353.039 646.378 351.913 645.358C351.708 645.052 352.425 644.542 353.551 644.134C357.236 643.012 357.85 640.462 356.314 633.118C355.7 630.364 355.189 629.548 354.575 630.569C353.961 631.487 353.654 631.588 353.654 630.67C353.654 629.957 355.291 627.712 357.339 625.57C360.102 622.714 361.842 621.796 363.787 622.001C365.425 622.204 367.676 621.389 369.417 620.062C371.771 618.226 372.181 617.206 371.976 613.84C371.668 610.474 372.283 609.148 375.763 605.068C384.669 594.664 397.361 573.448 403.912 557.944C407.597 548.968 412.817 532.75 413.636 527.14C414.455 522.244 412.613 521.938 410.156 526.425C407.393 531.424 391.834 554.578 387.227 560.392C369.826 582.526 343.213 608.536 322.536 624.04C311.481 632.2 294.694 640.768 281.49 644.951C265.112 650.255 257.435 651.274 235.428 651.274C216.286 651.274 214.239 651.071 203.901 648.418C197.759 646.787 187.933 643.522 181.893 640.973C171.658 636.689 158.248 629.854 157.123 628.324C156.816 627.916 155.484 626.998 154.052 626.285C149.855 624.143 135.627 613.739 135.627 612.821C135.627 612.412 139.312 610.168 143.713 607.924C148.217 605.68 152.107 603.436 152.516 602.926C152.824 602.314 154.87 602.008 157.123 602.11C162.752 602.314 165.721 599.458 164.902 594.562C164.288 590.992 164.493 590.686 170.327 586.708C173.602 584.362 181.586 577.528 188.035 571.408C198.476 561.514 200.216 560.29 204.208 559.678C215.672 558.148 242.491 547.948 249.554 542.542C251.907 540.706 252.214 533.974 250.065 531.73C248.53 530.302 248.734 529.69 251.907 524.692C253.853 521.632 254.978 519.184 254.467 519.184C253.955 521.529 252.214 523.365 249.349 521.02C246.585 524.794 244.23 525.304 244.23 521.632C244.23 527.343 242.081 532.954 239.522 555.7C223.861 623.326 220.995 654.334 231.231 559.678C232.459 565.9 233.995 563.86 233.995 558.964C233.995 555.598 235.632 553.048 237.578 556.414C239.522 552.028 241.16 552.334 241.16 556.72C241.16 559.678 239.522 562.636 237.578 559.78C235.632 565.798 233.995 566.512 233.995 561.514C233.995 572.632 237.578 577.528 240.136 561.514C236.144 559.474 243.923 559.984 240.136 558.046C241.57 550.498 244.23 536.014 254.364 554.986C256.616 547.642 260.096 545.5 262.144 554.986C266.033 551.212 275.655 557.434 262.144 547.54C260.813 527.649 258.868 519.796 257.845 547.54" fill="#F9FAFC"/>
<path d="M640.977 62.7303C634.734 68.6463 639.033 78.5407 647.938 78.5407C651.623 78.5407 652.851 78.0304 655.001 75.3784C659.198 70.4824 658.481 64.2603 653.466 61.7103C649.064 59.3643 644.253 59.7723 640.977 62.7303Z" fill="#F9FAFC"/>
<path d="M620.71 88.639C617.128 92.311 616.923 94.8608 620.096 98.5328C623.372 102.205 628.592 102.205 631.868 98.4311C634.836 94.9625 634.734 91.2905 631.561 88.2305C628.183 84.8645 624.395 84.967 620.71 88.639Z" fill="#F9FAFC"/>
<path d="M611.293 115.975C610.884 116.281 610.576 117.097 610.576 117.709C610.576 118.321 611.088 118.219 611.805 117.505C612.419 116.893 612.726 116.077 612.522 115.771C612.215 115.465 611.601 115.567 611.293 115.975Z" fill="#F9FAFC"/>
<path d="M605.766 123.42C603.412 125.665 601.774 127.501 602.183 127.501C603.207 127.501 604.538 126.379 607.916 122.605C612.01 118.117 610.986 118.524 605.766 123.42Z" fill="#F9FAFC"/>
<path d="M486.721 231.337C478.942 241.334 460.107 266.426 460.107 266.834C460.107 268.364 462.36 266.528 465.328 262.448C467.17 259.796 469.423 256.94 470.344 256.022C471.162 255.104 473.517 252.247 475.461 249.596C477.407 246.842 479.965 243.476 481.194 241.946C485.493 236.438 490.815 228.482 490.815 227.564C490.815 227.053 491.43 226.34 492.147 226.135C492.761 225.829 492.965 225.523 492.351 225.523C491.839 225.422 489.28 228.073 486.721 231.337Z" fill="#F9FAFC"/>
<path d="M367.984 334.46C367.472 335.582 366.346 337.01 365.732 337.826C365.016 338.54 363.07 341.192 361.433 343.64C359.795 346.19 358.055 348.741 357.646 349.25C357.134 349.862 352.425 356.798 347.205 364.653C341.985 372.506 335.433 381.891 332.567 385.563C325.197 394.947 316.394 408.002 317.008 408.513C317.315 408.819 319.363 406.371 321.717 403.106C324.071 399.945 326.938 396.068 328.063 394.641C331.953 389.541 335.126 385.052 348.638 365.162C356.11 354.249 362.456 345.069 362.763 344.763C363.377 344.252 369.11 336.092 370.44 333.746C370.85 333.134 370.747 332.522 370.133 332.522C369.519 332.522 368.598 333.44 367.984 334.46Z" fill="#F9FAFC"/>
<path d="M335.229 346.496C331.646 352.004 328.473 356.697 328.063 357.003C327.756 357.309 326.426 359.145 325.197 361.184C323.048 364.755 322.843 364.856 317.929 364.347C313.528 363.938 312.505 364.244 310.252 366.489C307.489 369.345 306.773 373.935 308.615 377.402C309.945 379.749 307.899 384.645 302.985 391.071C298.788 396.579 298.072 399.537 302.166 394.538C303.804 392.702 305.442 390.663 306.056 389.948C306.568 389.336 308.206 387.194 309.536 385.358C311.686 382.401 312.505 381.992 316.497 381.992C323.867 381.992 327.961 375.669 324.89 368.937C323.969 366.795 324.378 365.673 328.78 359.654C334.819 351.189 336.661 348.332 339.323 343.539C340.449 341.498 341.78 339.561 342.394 339.152C342.906 338.846 343.417 338.132 343.417 337.52C343.417 334.971 341.165 337.52 335.229 346.496Z" fill="#F9FAFC"/>
<path d="M368.598 352.107C366.244 355.37 366.551 359.348 369.315 361.899C372.283 364.653 375.149 364.754 378.322 362.205C380.984 360.063 381.598 354.146 379.345 351.495C377.196 348.944 370.543 349.352 368.598 352.107Z" fill="#F9FAFC"/>
<path d="M353.654 383.727C353.654 385.869 355.393 387.909 356.622 387.194C357.339 386.685 357.339 385.869 356.417 384.543C355.086 382.196 353.654 381.891 353.654 383.727Z" fill="#F9FAFC"/>
<path d="M296.639 402.699C292.442 403.107 290.19 406.167 290.19 411.573C290.19 417.081 293.67 420.549 298.994 420.549C303.702 420.549 307.899 416.571 307.899 412.185C307.899 405.453 303.804 401.985 296.639 402.699Z" fill="#F9FAFC"/>
<path d="M332.465 405.045C329.496 406.575 326.733 412.592 327.449 415.755C328.473 419.835 331.748 422.283 336.047 422.283C343.929 422.283 349.047 412.185 343.827 406.881C341.37 404.433 335.536 403.515 332.465 405.045Z" fill="#F9FAFC"/>
<path d="M261.734 424.323C261.734 425.751 261.939 426.261 262.246 425.547C262.451 424.935 262.451 423.711 262.246 422.997C261.939 422.385 261.734 422.895 261.734 424.323Z" fill="#F9FAFC"/>
<path d="M292.033 425.138C289.781 427.791 276.884 447.375 276.884 448.191C276.884 449.925 281.285 444.416 287.222 435.542C290.702 430.239 294.08 425.547 294.592 425.241C295.206 424.832 295.104 424.323 294.489 423.914C293.977 423.608 292.852 424.119 292.033 425.138Z" fill="#F9FAFC"/>
<path d="M293.363 443.601C289.883 447.477 287.12 450.843 287.12 451.251C287.12 452.883 290.19 451.557 291.726 449.109C292.749 447.579 295.001 444.825 296.741 442.887C300.631 438.705 301.859 436.563 300.631 436.563C300.017 436.563 296.844 439.725 293.363 443.601Z" fill="#F9FAFC"/>
<path d="M46.9832 486.442C47.2903 486.951 49.1328 488.278 51.0777 489.399C53.6367 490.929 54.4556 491.133 54.0461 490.011C53.739 489.196 52.9202 488.584 52.2036 488.584C51.4871 488.584 50.3611 487.869 49.6446 487.054C48.314 485.421 46.062 484.912 46.9832 486.442Z" fill="#F9FAFC"/>
<path d="M56.9121 493.071C56.1956 493.887 54.2508 494.907 52.613 495.213C50.9753 495.622 49.8493 496.234 50.1564 496.743C50.4635 497.152 52.5107 496.743 54.7626 495.622C56.9121 494.601 59.5735 493.683 60.5971 493.683C62.1325 493.683 62.2349 493.48 60.9042 492.663C58.857 491.338 58.2429 491.439 56.9121 493.071Z" fill="#F9FAFC"/>
<path d="M71.9591 498.477C72.5733 498.681 73.8016 498.681 74.5181 498.477C75.1323 498.171 74.6205 497.967 73.1874 497.967C71.7544 497.967 71.2426 498.171 71.9591 498.477Z" fill="#F9FAFC"/>
<path d="M78.1012 499.497C79.3295 499.701 81.172 499.701 82.1953 499.497C83.1165 499.191 82.0932 498.988 79.8408 499.089C77.5891 499.089 76.77 499.294 78.1012 499.497Z" fill="#F9FAFC"/>
<path d="M109.218 502.761C107.376 505.005 104.202 507.759 102.053 508.983C99.903 510.207 97.5492 512.146 96.8322 513.37C95.5018 515.512 95.5018 515.512 97.4463 513.777C98.5725 512.859 99.903 512.043 100.517 512.043C101.131 512.043 101.848 511.737 102.053 511.228C102.258 510.819 104.202 508.983 106.455 507.045C111.163 502.965 114.643 498.783 113.312 498.783C112.8 498.783 110.958 500.619 109.218 502.761Z" fill="#F9FAFC"/>
<path d="M52.7153 502.353C52.7153 502.863 53.2272 504.087 53.739 504.903C54.2507 505.719 54.7626 505.923 54.7626 505.413C54.7626 504.801 54.2507 503.679 53.739 502.863C53.2272 502.047 52.7153 501.741 52.7153 502.353Z" fill="#F9FAFC"/>
<path d="M63.9751 528.261C63.9751 528.873 64.3845 529.588 64.9987 529.894C65.6128 530.2 65.7152 529.791 65.4082 528.976C64.6916 527.14 63.9751 526.834 63.9751 528.261Z" fill="#F9FAFC"/>
<path d="M93.6593 546.724C91.7147 547.744 87.4156 549.784 84.2427 551.314L78.4082 554.068L81.069 558.148C83.4236 561.718 83.9356 562.024 84.5498 560.392C85.6752 557.536 85.5731 556.21 84.4469 557.944C83.5257 559.27 83.3215 559.27 82.4002 557.944C81.8882 557.128 81.3761 555.904 81.3761 555.394C81.3761 554.374 91.3055 548.763 93.0452 548.763C93.5572 548.763 94.9905 547.845 96.423 546.724C99.6988 544.173 98.3684 544.173 93.6593 546.724Z" fill="#F9FAFC"/>
<path d="M104.612 554.883C101.234 556.618 98.1634 557.637 97.6513 557.331C97.1393 557.025 96.7301 557.331 96.7301 557.943C96.7301 558.555 96.218 558.76 95.6039 558.352C94.9897 558.046 94.0685 558.249 93.6593 558.861C93.2501 559.576 91.3048 560.188 89.2581 560.29C87.1085 560.391 85.266 561.106 84.959 561.921C84.0377 564.369 85.3681 564.472 90.8956 562.533C97.3442 560.29 114.132 551.823 112.084 551.823C111.265 551.926 107.887 553.252 104.612 554.883Z" fill="#F9FAFC"/>
<path d="M135.524 563.35C132.351 565.084 125.083 569.265 119.352 572.631C113.619 575.896 106.352 579.67 103.281 580.894C100.006 582.22 98.0605 583.546 98.6746 583.954C101.029 585.28 122.525 574.06 139.516 562.533C144.839 558.861 142.28 559.372 135.524 563.35Z" fill="#F9FAFC"/>
<path d="M152.619 519.795C146.579 525.711 141.871 530.812 142.076 531.118C142.383 531.424 146.272 528.261 150.674 524.08C155.075 519.897 160.501 514.797 162.752 512.757C165.209 510.513 166.232 508.983 165.311 508.983C164.39 508.983 158.76 513.879 152.619 519.795Z" fill="#F9FAFC"/>
<path d="M207.893 518.775C205.846 520.816 204.208 522.958 204.208 523.57C204.208 524.283 206.05 522.753 208.405 520.305C213.42 514.9 213.113 513.573 207.893 518.775Z" fill="#F9FAFC"/>
<path d="M459.698 519.898C459.084 521.326 459.187 521.428 460.21 520.51C460.927 519.796 461.234 518.98 460.927 518.674C460.619 518.368 460.005 518.878 459.698 519.898Z" fill="#F9FAFC"/>
<path d="M220.688 531.525C215.979 536.523 212.397 540.91 212.601 541.216C213.215 541.828 227.341 526.935 228.876 524.181C229.388 523.059 229.696 522.244 229.593 522.244C229.388 522.345 225.396 526.425 220.688 531.525Z" fill="#F9FAFC"/>
<path d="M457.344 523.468C455.706 525.711 452.635 533.463 453.147 533.973C453.455 534.279 454.478 532.342 455.501 529.689C456.525 526.935 457.754 524.181 458.368 523.468C458.879 522.856 459.084 522.244 458.777 522.244C458.572 522.244 457.856 522.856 457.344 523.468Z" fill="#F9FAFC"/>
<path d="M164.8 530.2C160.91 533.974 156.304 538.156 154.666 539.38C153.028 540.604 152.004 541.93 152.312 542.236C153.028 543.052 156.406 540.4 166.13 531.627C172.988 525.406 174.728 523.264 172.784 523.264C172.272 523.264 168.792 526.425 164.8 530.2Z" fill="#F9FAFC"/>
<path d="M271.049 530.914C262.451 544.582 247.813 566.614 247.097 567.124C246.79 567.43 245.869 568.756 245.152 570.184L243.821 572.734L246.585 570.184C249.042 568.042 261.53 550.498 261.53 549.375C261.53 549.069 263.884 545.194 266.647 540.706C269.514 536.217 271.766 532.239 271.766 531.933C271.766 531.526 272.994 529.69 274.427 527.752C275.963 525.813 276.884 523.977 276.577 523.671C276.27 523.365 273.813 526.63 271.049 530.914Z" fill="#F9FAFC"/>
<path d="M338.197 525.61C337.276 526.834 333.796 533.566 330.316 540.604C326.938 547.642 320.591 559.78 316.292 567.532C312.095 575.284 308.82 581.914 309.024 582.22C309.331 582.526 309.945 581.812 310.355 580.792C310.662 579.772 311.993 577.426 313.119 575.794C317.725 569.164 323.662 558.25 333.386 538.768C340.244 524.794 341.78 520.917 338.197 525.61Z" fill="#F9FAFC"/>
<path d="M433.698 537.034C432.777 539.074 432.777 539.583 433.903 539.583C435.234 539.583 436.565 537.544 436.565 535.402C436.565 533.566 434.825 534.586 433.698 537.034Z" fill="#F9FAFC"/>
<path d="M299.505 539.176C298.276 540.706 297.355 542.236 297.355 542.746C297.355 545.091 300.017 548.866 302.166 549.375C304.111 549.886 304.316 550.293 303.395 551.416C301.04 554.17 303.497 552.741 307.387 548.968C312.607 544.072 313.323 541.216 309.945 538.564C306.261 535.708 302.064 535.911 299.505 539.176Z" fill="#F9FAFC"/>
<path d="M450.486 538.053C450.179 538.87 450.384 539.583 450.793 539.583C451.305 539.583 451.919 538.87 452.328 538.053C452.635 537.238 452.43 536.523 452.021 536.523C451.509 536.523 450.895 537.238 450.486 538.053Z" fill="#F9FAFC"/>
<path d="M270.435 539.38C269.514 540.4 268.388 542.746 268.08 544.479C267.671 546.315 266.954 547.438 266.34 547.03C265.726 546.724 265.624 546.927 266.033 547.642C266.443 548.254 267.159 548.56 267.568 548.254C268.08 548.05 269.207 548.662 270.23 549.784C272.38 552.129 277.6 552.435 280.466 550.396C283.025 548.56 283.025 542.44 280.466 539.583C278.112 537.034 272.687 536.829 270.435 539.38Z" fill="#F9FAFC"/>
<path d="M431.447 542.949C422.644 547.539 417.219 559.678 420.187 568.041C423.565 577.527 430.628 582.322 441.273 582.423C446.801 582.423 448.234 582.016 452.533 579.057C459.493 574.264 463.383 566.716 462.667 559.677C460.926 544.582 444.753 535.911 431.447 542.949Z" fill="#F9FAFC"/>
<path d="M176.571 544.684C175.65 545.296 175.547 545.703 176.264 545.703C176.878 545.703 177.799 545.194 178.106 544.684C178.925 543.46 178.515 543.46 176.571 544.684Z" fill="#F9FAFC"/>
<path d="M298.993 562.533C296.946 566.92 295.309 570.898 295.309 571.306C295.309 571.816 295.001 572.224 294.489 572.224C293.67 572.224 293.363 572.836 288.962 581.914C287.427 585.076 285.277 588.952 284.049 590.584C281.387 594.358 281.387 595.684 284.151 592.726C285.379 591.502 288.143 586.912 290.395 582.628C292.647 578.344 295.104 574.06 295.82 573.243C296.537 572.428 298.174 568.756 299.505 565.084C300.733 561.412 302.268 557.842 302.781 557.128C303.293 556.413 303.497 555.598 303.19 555.292C302.883 554.986 300.938 558.249 298.993 562.533Z" fill="#F9FAFC"/>
<path d="M477.714 556.924C477.714 558.352 477.919 558.861 478.226 558.148C478.43 557.536 478.43 556.312 478.226 555.598C477.919 554.986 477.714 555.495 477.714 556.924Z" fill="#F9FAFC"/>
<path d="M331.953 577.12C323.764 588.238 319.67 592.828 318.339 592.318C316.804 591.604 311.686 594.46 306.056 599.254C288.553 614.044 269.207 624.856 253.853 628.324C243.821 630.67 241.057 632.608 241.057 637.504C241.057 639.442 241.979 641.176 243.923 642.604C246.278 644.542 247.506 644.746 251.805 644.134C270.23 641.788 297.151 627.304 314.757 610.27C322.639 602.824 323.969 600.988 323.969 598.234C323.969 596.092 323.355 594.664 322.332 594.256C321 593.746 321 593.44 322.127 592.114C322.843 591.298 323.969 590.074 324.481 589.36C325.095 588.646 328.37 584.566 331.748 580.384C339.016 571.306 339.63 570.489 338.504 569.776C338.095 569.571 335.126 572.836 331.953 577.12Z" fill="#F9FAFC"/>
<path d="M227.751 580.486C223.554 585.076 215.979 592.93 211.066 597.928C206.05 602.926 202.263 607.312 202.468 607.618C203.389 608.536 235.939 575.691 235.939 573.855C235.939 572.937 235.837 572.224 235.632 572.224C235.53 572.224 231.947 575.997 227.751 580.486Z" fill="#F9FAFC"/>
<path d="M254.569 583.444C239.215 599.662 221.302 609.148 200.114 612.412L195.508 613.126L198.578 610.474L201.649 607.72L197.861 610.372C195.303 612.208 192.744 613.024 189.877 613.024C182.098 613.024 177.697 621.286 182.712 626.285C188.138 631.69 218.948 625.774 236.963 615.88C247.301 610.27 253.443 605.476 262.144 596.5C271.458 586.912 273.813 583.75 273.813 580.792C273.813 577.426 270.332 574.264 266.545 574.264C263.884 574.264 261.939 575.794 254.569 583.444Z" fill="#F9FAFC"/>
<path d="M430.833 589.768C428.785 593.338 427.046 596.806 427.046 597.418C427.046 598.132 426.636 598.744 426.124 598.744C425.714 598.744 425.305 599.356 425.305 600.172C425.305 600.988 424.691 601.906 424.077 602.11C423.156 602.518 423.258 602.722 424.282 602.722C425.305 602.824 427.762 599.356 430.833 593.542C436.462 582.832 436.565 580.18 430.833 589.768Z" fill="#F9FAFC"/>
<path d="M396.338 589.36C392.653 593.44 395.724 600.784 401.046 600.784C403.912 600.784 407.904 596.806 407.904 594.052C407.904 591.196 403.708 587.524 400.534 587.524C399.101 587.524 397.259 588.34 396.338 589.36Z" fill="#F9FAFC"/>
<path d="M419.369 609.76C417.526 612.922 415.377 616.594 414.455 617.818C413.534 619.144 413.022 620.164 413.329 620.164C414.148 620.164 421.211 610.168 421.211 609.046C421.211 608.434 422.132 607.414 423.258 606.598C424.998 605.374 425.1 603.844 423.361 603.844C423.054 603.844 421.211 606.496 419.369 609.76Z" fill="#F9FAFC"/>
<path d="M216.696 629.854C213.011 633.526 211.68 635.566 212.499 636.077C213.215 636.484 214.547 635.872 215.672 634.342C216.798 633.017 219.255 630.16 221.097 628.018C226.318 622.204 222.838 623.632 216.696 629.854Z" fill="#F9FAFC"/>
<path d="M219.05 639.646C217.924 641.38 219.05 641.686 221.199 640.054C222.94 638.728 222.94 638.626 221.404 638.524C220.483 638.524 219.357 639.034 219.05 639.646Z" fill="#F9FAFC"/>
<path d="M264.805 29.1722C261.018 31.1102 258.766 33.0481 256.924 36.1082C251.907 44.6762 254.262 50.2863 266.443 58.8544C278.009 66.9124 289.576 77.1124 295.923 84.7625C299.301 88.8423 302.986 93.3305 304.214 94.7588L306.466 97.4103L306.568 93.3305C306.568 87.6183 304.009 73.5425 300.836 62.7303C295.513 44.3702 286.096 29.7842 278.112 27.5401C272.482 26.0101 270.639 26.2141 264.805 29.1722Z" fill="#F9FAFC"/>
<path d="M497.571 46.41C489.485 50.5921 489.178 60.7921 496.957 64.7701C503.406 68.1362 509.854 64.9742 510.981 57.9361C512.311 49.2661 504.737 42.738 497.571 46.41Z" fill="#F9FAFC"/>
<path d="M218.436 50.2865C214.342 53.0405 210.555 56.8145 207.893 60.5885C204.208 65.9945 203.799 66.4025 203.082 64.3626C202.058 61.7105 199.09 61.6085 196.019 64.0566L193.665 65.8926L196.429 72.6246C197.861 76.3986 199.09 79.8666 199.09 80.3769C199.09 80.9889 197.554 81.9069 195.61 82.6206C190.594 84.2524 184.248 90.0664 181.586 95.5745C171.863 115.567 193.46 138.517 214.547 130.663C225.499 126.481 232.254 116.995 232.152 105.571C232.152 95.5745 227.034 88.0269 217.003 83.1309L212.192 80.8864L215.775 78.6426C220.585 75.6846 226.523 69.0546 228.876 63.8525C230.105 61.0985 230.822 57.3245 230.822 52.7345V45.9004H227.853C225.909 45.9004 222.326 47.5325 218.436 50.2865Z" fill="#F9FAFC"/>
<path d="M149.957 48.9604C146.375 52.5305 147.705 58.3445 152.721 60.9965C155.997 62.8325 157.941 62.5265 160.705 59.6705C165.823 54.6725 162.752 46.9204 155.587 46.9204C153.335 46.9204 151.185 47.7364 149.957 48.9604Z" fill="#F9FAFC"/>
<path d="M108.501 61.0985C103.588 64.0565 101.643 66.9125 101.131 71.7066C100.62 75.5826 100.927 76.6024 103.486 79.3564C105.123 80.9889 111.572 85.0687 117.919 88.333C127.95 93.4325 138.391 100.471 149.753 109.753C151.595 111.283 153.335 112.303 153.642 111.997C154.256 111.283 148.934 97.819 144.942 89.9647C141.155 82.6207 132.965 70.9926 127.847 65.8925C121.091 59.1605 114.336 57.5285 108.501 61.0985Z" fill="#F9FAFC"/>
<path d="M517.531 81.1924C513.13 86.803 516.61 94.8608 523.469 95.065C526.232 95.1668 527.665 94.453 529.917 91.9025C531.453 90.169 532.783 87.5167 532.783 86.0885C532.783 79.2547 521.83 75.6846 517.531 81.1924Z" fill="#F9FAFC"/>
<path d="M65.2034 98.2264C55.7864 101.185 47.9046 113.527 48.9282 123.726C49.44 129.846 54.3533 137.293 60.802 141.577C63.4633 143.413 73.597 148.411 83.5257 152.899C108.604 164.119 128.052 175.033 143.304 186.457C154.973 195.229 172.17 210.019 176.571 215.119C184.453 224.095 184.76 221.545 177.697 206.653C161.524 172.483 137.368 140.659 108.809 116.179C89.8723 99.9607 76.77 94.4527 65.2034 98.2264Z" fill="#F9FAFC"/>
<path d="M263.781 109.651C256.309 115.975 260.813 128.521 270.537 128.521C275.245 128.521 280.978 122.911 280.978 118.423C280.978 108.937 270.844 103.735 263.781 109.651Z" fill="#F9FAFC"/>
<path d="M498.493 114.241C495.012 118.015 498.697 123.727 503.201 121.381C506.579 119.545 505.249 112.201 501.564 112.201C500.847 112.201 499.516 113.119 498.493 114.241Z" fill="#F9FAFC"/>
<path d="M304.521 136.579C301.245 139.231 300.938 140.047 300.938 144.841C300.938 149.635 301.245 150.451 304.725 153.613C307.592 156.163 309.536 157.081 312.198 157.081C321.922 157.081 327.756 148.105 323.56 139.843C319.977 133.009 310.662 131.377 304.521 136.579Z" fill="#F9FAFC"/>
<path d="M361.331 139.945C358.567 141.475 357.748 142.801 357.748 145.963C357.748 151.471 364.913 154.021 369.008 149.941C371.566 147.391 371.566 144.739 369.315 141.985C366.96 139.333 363.889 138.517 361.331 139.945Z" fill="#F9FAFC"/>
<path d="M173.705 144.025C172.988 144.739 172.477 146.473 172.477 147.901C172.477 151.063 174.216 153.001 177.083 153.001C180.051 153.001 181.689 151.063 181.689 147.697C181.689 143.617 176.469 141.271 173.705 144.025Z" fill="#F9FAFC"/>
<path d="M480.58 145.249C477.714 148.819 481.706 154.735 485.493 152.389C489.076 150.145 487.745 143.821 483.65 143.821C482.627 143.821 481.296 144.535 480.58 145.249Z" fill="#F9FAFC"/>
<path d="M225.704 155.959C220.381 157.693 216.593 160.244 212.09 165.241C206.563 171.361 203.799 178.705 203.799 186.967C203.901 192.374 204.822 194.719 215.775 216.854C226.42 238.274 228.467 241.538 233.893 246.944C244.743 257.858 259.687 262.652 273.608 259.694C292.954 255.716 306.568 241.538 309.946 221.852C312.914 204.716 302.883 183.806 287.427 174.727C284.97 173.299 278.009 170.137 271.971 167.791C265.931 165.446 257.128 161.671 252.317 159.529C245.152 156.265 242.286 155.551 235.939 155.347C231.743 155.245 227.137 155.449 225.704 155.959ZM248.325 174.523C253.034 176.869 259.789 179.828 263.372 181.153C283.742 188.905 292.647 198.188 293.977 213.182C295.104 225.625 289.371 235.928 278.112 241.436C266.443 247.148 250.679 244.088 243.207 234.704C241.57 232.663 235.53 221.546 229.798 210.019C220.381 191.251 219.46 188.803 219.869 184.724C220.381 179.725 222.838 175.951 227.751 172.585C232.971 169.118 238.192 169.627 248.325 174.523Z" fill="#F9FAFC"/>
<path d="M257.64 195.025C256.924 195.739 256.411 197.473 256.411 198.901C256.411 202.369 258.152 204.002 261.734 204.002C264.498 204.002 266.647 201.655 266.647 198.494C266.647 194.719 260.404 192.271 257.64 195.025Z" fill="#F9FAFC"/>
<path d="M241.262 205.226C239.011 207.469 239.829 212.059 242.593 213.385C247.711 215.63 252.522 209.51 248.632 205.633C246.79 203.696 243.003 203.491 241.262 205.226Z" fill="#F9FAFC"/>
<path d="M272.789 209.101C271.663 210.223 270.742 211.855 270.742 212.671C270.742 214.405 274.324 218.281 275.963 218.281C280.978 218.281 282.922 211.549 278.726 208.693C275.758 206.653 275.246 206.653 272.789 209.101Z" fill="#F9FAFC"/>
<path d="M255.9 219.302C252.112 223.483 257.026 229.909 262.144 227.564C265.01 226.34 265.42 222.871 262.963 219.505C261.018 216.751 258.357 216.649 255.9 219.302Z" fill="#F9FAFC"/>
<path d="M23.7476 172.993C15.4564 175.951 9.72424 184.213 9.72424 193.291C9.72424 198.493 14.2281 206.653 18.8343 209.611C25.283 213.895 29.1727 214.406 42.4794 212.467C57.0146 210.428 92.8402 210.122 103.895 211.958C108.092 212.671 117.407 214.609 124.572 216.343C131.737 218.078 138.186 219.302 138.698 219.097C140.028 218.69 125.903 208.286 115.155 201.757C93.7614 188.905 76.9749 181.357 57.3217 175.951C41.2511 171.565 30.7081 170.647 23.7476 172.993Z" fill="#F9FAFC"/>
<path d="M324.583 172.993C321.512 176.053 323.253 180.541 327.552 180.541C328.78 180.541 330.213 180.031 330.93 179.317C331.646 178.603 332.158 177.175 332.158 175.951C332.158 171.667 327.654 169.933 324.583 172.993Z" fill="#F9FAFC"/>
<path d="M431.959 176.971C427.148 181.664 429.399 189.109 436.258 191.15C440.557 192.475 446.801 186.967 446.801 181.97C446.801 181.052 445.47 179.011 443.832 177.38C439.943 173.605 435.439 173.402 431.959 176.971Z" fill="#F9FAFC"/>
<path d="M663.497 175.543C655.308 177.379 646.096 183.295 626.647 199.309C612.01 211.243 601.978 220.321 602.797 221.035C603.002 221.239 604.538 220.832 606.175 220.015C610.576 217.669 629.411 213.283 639.749 212.161C644.867 211.652 653.568 211.141 659.198 211.141C673.938 211.04 679.26 208.795 683.354 200.737C686.221 195.025 685.914 189.007 682.331 183.397C677.93 176.461 671.481 173.809 663.497 175.543Z" fill="#F9FAFC"/>
<path d="M370.543 178.399C361.024 180.847 351.504 189.517 348.126 198.8C344.236 209.816 347.921 225.218 356.417 232.663C363.48 238.783 367.574 240.212 378.22 240.212C387.535 240.212 388.251 240.007 393.778 236.744C404.936 230.012 410.565 219.404 409.746 206.756C408.621 190.232 396.952 178.705 380.472 177.889C376.685 177.685 372.283 177.889 370.543 178.399ZM386.101 193.904C394.495 197.983 398.282 209.407 393.676 216.854C390.503 222.056 384.873 225.625 379.448 226.136C373.307 226.646 368.598 224.3 364.196 218.486C353.551 204.409 369.929 186.049 386.101 193.904Z" fill="#F9FAFC"/>
<path d="M640.977 233.684C640.159 235.01 638.419 238.682 637.088 241.742C635.86 244.802 634.529 247.76 634.119 248.168C633.71 248.678 630.947 248.269 627.876 247.454C617.537 244.394 608.325 246.23 597.27 253.471C589.798 258.47 584.885 263.876 581.609 271.118C579.664 275.198 579.357 277.748 579.357 287.642C579.357 298.25 579.664 299.984 582.121 305.186C590.105 322.322 609.348 331.91 627.978 328.034C637.497 325.994 644.355 322.118 651.009 314.978C657.15 308.45 660.221 301.514 661.245 292.13C661.962 286.52 661.347 283.256 658.174 272.75C657.56 270.71 658.072 270.404 662.78 269.384C671.992 267.446 676.701 263.774 674.04 260.612C672.504 258.776 664.622 256.94 655.103 256.124C647.119 255.512 646.915 255.41 647.119 252.962C647.631 246.739 646.096 235.417 644.355 233.378L642.616 231.133L640.977 233.684ZM630.742 260.612C635.553 262.652 640.159 266.63 643.639 271.628C646.403 275.606 647.426 281.522 645.379 281.522C644.662 281.522 644.662 282.134 645.379 283.562C646.301 285.194 646.198 285.602 644.765 285.602C643.537 285.602 643.23 286.214 643.639 287.846L644.253 290.192L642.411 287.846C640.773 285.704 640.466 285.602 639.238 287.03C638.111 288.458 638.214 288.662 639.647 288.05C640.67 287.642 641.284 287.948 641.284 288.968C641.284 289.784 640.67 290.498 640.056 290.396C636.678 290.294 635.041 290.804 635.655 291.824C636.064 292.436 636.985 292.64 637.804 292.334C638.521 292.028 639.442 292.232 639.647 292.64C639.954 293.048 638.316 294.068 635.962 294.782C632.175 295.904 631.868 296.21 633.403 297.332C635.348 298.76 634.734 300.086 632.482 299.168C631.561 298.862 630.639 299.678 630.025 301.616C629.001 304.574 628.49 304.778 621.631 305.084C618.049 305.288 616.002 307.022 617.946 308.144C618.56 308.552 618.868 309.368 618.663 309.98C618.356 310.796 617.332 310.388 615.9 308.96C614.057 307.328 613.136 307.124 612.317 307.94C611.498 308.756 611.601 309.062 612.829 309.062C613.75 309.062 614.876 309.572 615.285 310.184C616.002 311.51 612.931 311.102 609.144 309.572C607.711 308.96 607.404 309.062 607.916 309.98C608.427 310.694 609.758 311.612 610.986 312.122C612.931 312.938 612.931 313.04 610.372 313.04C608.734 313.142 607.506 312.632 607.506 312.02C607.506 311.51 607.096 311.204 606.687 311.51C605.152 312.428 599.522 308.246 596.349 303.962C590.207 295.496 589.593 282.644 595.018 273.056C602.183 260.408 617.435 255.104 630.742 260.612ZM620.813 307.022C620.813 307.532 620.403 308.042 619.789 308.042C619.278 308.042 618.765 307.532 618.765 307.022C618.765 306.41 619.278 306.002 619.789 306.002C620.403 306.002 620.813 306.41 620.813 307.022Z" fill="#F9FAFC"/>
<path d="M641.796 283.562C642.104 284.072 642.616 284.582 642.923 284.582C643.127 284.582 643.332 284.072 643.332 283.562C643.332 282.95 642.82 282.542 642.206 282.542C641.694 282.542 641.489 282.95 641.796 283.562Z" fill="#F9FAFC"/>
<path d="M629.513 296.822C629.206 297.332 629.411 297.842 629.923 297.842C630.537 297.842 631.049 297.332 631.049 296.822C631.049 296.21 630.844 295.802 630.64 295.802C630.332 295.802 629.82 296.21 629.513 296.822Z" fill="#F9FAFC"/>
<path d="M625.93 297.944C625.93 298.454 626.442 298.658 626.955 298.352C627.569 298.046 627.978 297.536 627.978 297.23C627.978 297.026 627.569 296.822 626.955 296.822C626.442 296.822 625.93 297.332 625.93 297.944Z" fill="#F9FAFC"/>
<path d="M622.962 301.616C622.246 302.432 621.939 303.35 622.348 303.758C622.655 304.064 623.27 303.86 623.679 303.248C624.089 302.636 625.317 302.126 626.34 302.228C627.364 302.33 628.388 301.922 628.592 301.412C629.206 299.78 624.498 299.984 622.962 301.616Z" fill="#F9FAFC"/>
<path d="M604.435 309.164C604.435 309.674 604.947 309.878 605.459 309.572C606.073 309.266 606.482 308.756 606.482 308.45C606.482 308.246 606.073 308.042 605.459 308.042C604.947 308.042 604.435 308.552 604.435 309.164Z" fill="#F9FAFC"/>
<path d="M106.25 236.233C104.714 238.681 104.714 239.192 106.045 241.64C109.013 246.842 117.202 245.006 117.202 239.192C117.202 233.479 109.422 231.439 106.25 236.233Z" fill="#F9FAFC"/>
<path d="M45.5501 251.738C38.2826 254.492 35.1094 256.532 29.9914 261.836C18.0153 274.076 15.7634 292.232 24.1569 309.062C35.9283 332.318 70.833 335.072 87.5177 314.06C93.6593 306.308 96.1159 299.066 96.1159 288.05C96.218 279.38 96.0138 278.36 92.3289 271.118C88.0298 262.346 83.2186 257.552 74.2109 253.166C66.9434 249.596 52.9201 248.882 45.5501 251.738ZM69.0929 265.202C74.1085 267.752 80.8641 275.198 82.3995 279.992C84.3448 285.908 83.0136 297.23 79.6357 302.432C76.4628 307.431 68.3764 313.652 62.8489 315.387C54.1484 317.936 40.7392 311.918 35.6213 303.146C33.3693 299.27 32.7551 296.924 32.448 289.784C32.0386 279.482 33.267 275.504 39.1015 269.996C42.377 266.732 46.9832 264.59 54.2507 262.754C57.6286 261.938 65.2032 263.264 69.0929 265.202Z" fill="#F9FAFC"/>
<path d="M42.07 273.668C38.4874 276.32 42.4794 281.624 46.8809 279.89C49.1328 279.074 49.8494 276.626 48.621 274.28C47.3927 272.036 44.629 271.73 42.07 273.668Z" fill="#F9FAFC"/>
<path d="M67.6598 273.974C66.7386 274.79 66.0221 275.912 66.0221 276.422C66.0221 277.34 68.8881 280.502 69.7071 280.502C71.5495 280.502 74.2109 278.054 74.2109 276.422C74.2109 275.3 73.2897 273.974 72.266 273.362C69.7071 272.036 69.5023 272.036 67.6598 273.974Z" fill="#F9FAFC"/>
<path d="M55.7863 282.338C54.0462 283.766 53.6367 284.786 54.2509 286.52C54.7626 288.356 55.5815 288.764 58.1405 288.458C60.8019 288.254 61.5184 287.642 61.7231 285.398C62.1326 281.522 58.8571 279.89 55.7863 282.338Z" fill="#F9FAFC"/>
<path d="M41.0464 292.334C39.1015 294.272 38.9992 294.986 40.6369 296.618C42.6842 298.658 47.3927 298.148 48.1093 295.802C49.4399 291.518 44.3219 289.07 41.0464 292.334Z" fill="#F9FAFC"/>
<path d="M67.7624 292.333C66.227 293.966 67.1482 296.924 69.6048 298.046C71.7544 299.066 72.5733 298.964 74.0064 297.536C75.337 296.21 75.4394 295.394 74.6205 293.966C73.4945 292.13 68.9907 291.109 67.7624 292.333Z" fill="#F9FAFC"/>
<path d="M53.4319 301.31C52.5107 303.656 53.6367 305.798 55.8886 306.512C58.5499 307.431 61.1089 305.186 60.6995 302.534C60.29 299.78 54.3532 298.862 53.4319 301.31Z" fill="#F9FAFC"/>
<path d="M345.055 263.264C341.473 267.446 341.575 271.73 345.363 275.504C347.512 277.646 349.355 278.462 351.913 278.462C356.929 278.462 358.669 277.646 360.307 274.28C362.661 269.894 362.149 266.426 358.874 263.06C354.575 258.776 348.74 258.878 345.055 263.264Z" fill="#F9FAFC"/>
<path d="M535.138 267.242C527.154 272.036 530.326 283.562 540.255 286.01C546.09 287.438 552.231 281.828 552.231 275.096C552.231 266.732 542.917 262.448 535.138 267.242Z" fill="#F9FAFC"/>
<path d="M306.978 278.972C303.395 284.377 309.741 289.478 314.04 284.786C316.292 282.338 316.19 280.196 313.938 278.156C311.277 275.708 308.922 276.014 306.978 278.972Z" fill="#F9FAFC"/>
<path d="M261.325 287.234C257.947 288.968 255.388 293.558 255.388 297.536C255.388 301.106 258.561 306.41 262.041 308.654C267.876 312.428 277.702 307.838 279.852 300.29C282.615 290.498 270.742 282.134 261.325 287.234Z" fill="#F9FAFC"/>
<path d="M115.974 307.124C113.722 308.348 113.619 312.428 115.667 314.162C117.611 315.794 120.273 315.08 122.013 312.428C123.344 310.49 123.241 309.98 121.399 308.144C118.942 305.696 118.431 305.594 115.974 307.124Z" fill="#F9FAFC"/>
<path d="M529.814 313.856C525.413 315.998 522.547 320.69 522.547 325.892C522.547 339.152 538.618 344.864 548.239 334.97C559.294 323.648 544.554 306.614 529.814 313.856Z" fill="#F9FAFC"/>
<path d="M128.461 731.446C124.572 732.976 122.32 736.445 122.32 741.239C122.32 744.707 122.832 745.931 125.493 748.073C129.793 751.643 134.603 751.643 138.8 747.869C141.257 745.727 141.973 744.197 141.973 741.341C141.973 736.649 139.414 732.773 135.422 731.446C131.737 730.121 131.839 730.121 128.461 731.446Z" fill="#F9FAFC"/>
<path d="M599.624 731.855C595.735 733.487 594.199 736.139 594.199 740.831C594.199 747.665 600.239 751.949 606.994 749.705C615.593 746.849 615.9 736.139 607.506 731.855C603.924 730.019 603.821 730.019 599.624 731.855Z" fill="#F9FAFC"/>
<path d="M43.0935 733.894C41.1487 735.73 40.4321 737.363 40.4321 740.32C40.4321 747.971 47.1879 752.561 53.6366 749.297C57.4239 747.257 58.8569 744.809 58.8569 740.219C58.8569 732.67 48.8257 728.591 43.0935 733.894Z" fill="#F9FAFC"/>
<path d="M83.9348 733.894C81.9903 735.73 81.3761 737.465 81.3761 740.729C81.4782 745.421 82.6044 747.664 86.1873 749.5C92.431 752.866 99.8009 748.073 99.8009 740.831C99.8009 732.569 89.6672 728.08 83.9348 733.894Z" fill="#F9FAFC"/>
<path d="M556.019 734.201C552.129 738.281 552.231 743.687 556.223 747.767C558.169 749.705 560.318 750.725 562.263 750.725C566.153 750.725 571.884 746.747 572.704 743.585C575.058 734.201 562.672 727.265 556.019 734.201Z" fill="#F9FAFC"/>
<path d="M636.883 734.201C629.922 741.443 637.292 752.867 646.812 749.705C654.08 747.359 655.922 739.709 650.6 734.303C646.403 730.223 640.773 730.121 636.883 734.201Z" fill="#F9FAFC"/>
</g>
<defs>
<clipPath id="clip0_28_375">
<rect width="694" height="752" fill="white"/>
</clipPath>
</defs>
</svg>
