<?xml version="1.0" standalone="no"?>
<!DOCTYPE svg PUBLIC "-//W3C//DTD SVG 20010904//EN"
 "http://www.w3.org/TR/2001/REC-SVG-20010904/DTD/svg10.dtd">
<svg version="1.0" xmlns="http://www.w3.org/2000/svg"
 width="1024.000000pt" height="1024.000000pt" viewBox="0 0 1024.000000 1024.000000"
 preserveAspectRatio="xMidYMid meet">

<g transform="translate(0.000000,1024.000000) scale(0.100000,-0.100000)"
fill="#000000" stroke="none">
<path d="M5068 8850 c-50 -15 -87 -50 -118 -114 -53 -108 -58 -308 -14 -586
31 -199 104 -457 134 -475 5 -3 11 9 14 27 45 305 100 498 227 798 44 106 50
129 45 167 -19 137 -154 223 -288 183z"/>
<path d="M5694 8635 c-3 -13 -4 -62 -2 -107 4 -94 32 -164 93 -235 l35 -41
-32 -7 c-119 -26 -239 -139 -292 -274 -18 -46 -24 -165 -12 -231 11 -58 66
-161 111 -206 98 -98 203 -138 345 -132 80 3 105 8 160 34 100 47 172 120 223
223 41 84 42 89 42 186 0 92 -3 106 -33 169 -22 47 -51 86 -92 126 l-60 58 49
39 c55 43 115 126 133 185 17 56 5 64 -74 48 -85 -16 -172 -62 -229 -121 l-47
-49 -7 40 c-18 106 -123 238 -233 294 -63 32 -70 32 -78 1z m401 -542 c48 -31
84 -68 113 -117 26 -44 27 -47 8 -40 -8 3 -17 1 -21 -5 -3 -6 2 -11 12 -12 10
0 13 -3 6 -6 -19 -7 -16 -21 5 -26 11 -3 11 -3 -3 -2 -11 1 -29 6 -39 10 -17
7 -17 6 3 -14 23 -23 21 -41 -6 -41 -12 0 -14 -6 -8 -27 6 -27 6 -27 -10 -8
-16 19 -16 19 -12 -7 5 -31 -7 -37 -22 -11 -5 10 -13 14 -17 10 -4 -4 -2 -13
4 -19 7 -7 12 -16 12 -20 0 -13 -28 -9 -34 5 -3 6 -3 0 0 -14 4 -21 1 -27 -15
-32 -15 -4 -19 -10 -15 -22 6 -14 3 -16 -17 -10 -16 4 -20 3 -11 -3 11 -8 9
-14 -9 -31 -26 -24 -45 -27 -52 -8 -2 6 -8 9 -12 5 -4 -4 -3 -13 3 -20 13 -16
-11 -54 -27 -43 -6 3 -15 -4 -20 -17 l-8 -23 -7 23 c-7 22 -36 32 -36 12 0 -5
8 -10 17 -10 13 0 14 -3 5 -12 -8 -8 -15 -8 -26 1 -10 8 -16 9 -21 1 -11 -18
-27 -11 -20 10 4 11 2 20 -4 20 -6 0 -11 -7 -11 -15 0 -17 -16 -20 -25 -5 -4
6 -11 8 -16 4 -5 -3 -33 19 -63 49 -115 118 -124 290 -20 406 45 50 116 91
158 91 25 0 26 -1 26 -64 0 -56 3 -67 22 -80 12 -9 32 -16 43 -16 11 0 31 7
43 16 19 13 22 24 22 78 0 34 3 66 6 69 11 11 56 -3 99 -30z"/>
<path d="M6175 7950 c3 -5 8 -10 11 -10 2 0 4 5 4 10 0 6 -5 10 -11 10 -5 0
-7 -4 -4 -10z"/>
<path d="M6136 7865 c4 -8 8 -15 10 -15 2 0 4 7 4 15 0 8 -4 15 -10 15 -5 0
-7 -7 -4 -15z"/>
<path d="M6115 7830 c-3 -5 -1 -10 4 -10 6 0 11 5 11 10 0 6 -2 10 -4 10 -3 0
-8 -4 -11 -10z"/>
<path d="M6010 7736 c0 -2 7 -9 15 -16 9 -7 15 -8 15 -2 0 5 -7 12 -15 16 -8
3 -15 4 -15 2z"/>
<path d="M5985 7670 c-4 -6 -3 -16 3 -22 13 -13 23 4 13 21 -7 10 -10 10 -16
1z"/>
<path d="M5909 7603 c-12 -15 -12 -16 4 -10 10 4 23 7 28 7 5 0 9 5 9 10 0 16
-26 12 -41 -7z"/>
<path d="M5835 7600 c-3 -5 -1 -10 4 -10 6 0 11 5 11 10 0 6 -2 10 -4 10 -3 0
-8 -4 -11 -10z"/>
<path d="M8005 8629 c-158 -18 -229 -72 -490 -369 -60 -69 -124 -141 -141
-160 -17 -19 -91 -102 -164 -185 -112 -125 -331 -367 -350 -385 -3 -3 -94
-104 -202 -225 -107 -121 -278 -310 -379 -421 -101 -110 -245 -268 -319 -349
-74 -82 -164 -181 -200 -220 -36 -38 -112 -123 -169 -187 -57 -64 -126 -133
-155 -152 -62 -43 -147 -66 -242 -66 -215 0 -495 -99 -685 -242 -138 -104
-341 -323 -393 -426 -9 -18 -21 -30 -26 -27 -6 4 -10 47 -10 97 0 105 -31 305
-66 427 -88 302 -249 551 -419 646 -115 64 -226 68 -342 14 -139 -66 -209
-223 -173 -392 23 -111 114 -264 242 -406 27 -29 47 -55 46 -57 -2 -2 -22 3
-44 11 -23 8 -91 21 -153 30 -146 22 -242 11 -345 -40 -140 -68 -215 -169
-234 -314 l-7 -53 -137 -48 c-75 -26 -182 -69 -238 -96 l-102 -48 -19 23 c-37
46 -22 84 54 134 64 43 196 112 242 127 62 21 85 46 85 96 0 90 -59 105 -211
54 -170 -57 -303 -133 -400 -229 -99 -100 -129 -198 -129 -431 0 -165 10 -267
47 -460 102 -549 364 -1070 750 -1496 41 -45 133 -136 206 -202 320 -294 591
-463 1110 -696 l59 -26 -4 -92 -3 -93 -247 -5 c-244 -5 -247 -5 -272 -29 -28
-26 -36 -85 -16 -122 28 -52 -65 -49 1776 -49 l1706 0 34 34 c45 45 47 95 5
137 l-29 29 -262 0 -261 0 3 96 3 95 103 41 c266 104 615 304 854 488 146 113
421 383 537 529 395 496 638 1097 671 1659 14 252 -8 432 -65 521 -27 43 -113
125 -175 168 -110 75 -378 179 -432 168 -56 -13 -84 -97 -47 -142 7 -7 71 -42
143 -77 152 -74 236 -140 236 -186 0 -27 -22 -60 -40 -60 -5 0 -62 26 -127 58
-66 31 -141 65 -167 76 -26 10 -64 36 -84 58 -58 62 -174 134 -265 165 -76 25
-94 27 -242 26 -131 0 -174 -4 -238 -21 -63 -17 -191 -65 -263 -98 -8 -3 -13
19 -16 68 -8 132 -78 242 -186 295 -48 23 -70 28 -137 28 -136 0 -231 -57
-352 -213 l-68 -86 -3 57 c-2 44 2 66 17 90 20 32 643 656 1779 1780 326 322
615 616 642 652 69 91 94 175 88 298 -3 78 -9 103 -37 164 -78 168 -259 264
-456 242z m140 -197 c5 -4 -1 -9 -15 -13 -23 -6 -22 -7 8 -8 64 -2 105 -51
119 -141 16 -99 -14 -147 -212 -329 -121 -112 -500 -486 -1334 -1316 -710
-706 -898 -899 -947 -970 -26 -37 -84 -197 -84 -231 0 -33 -11 -30 -65 16 -25
22 -50 40 -56 40 -5 0 -9 -18 -9 -39 0 -22 -4 -42 -10 -46 -5 -3 -29 -45 -53
-93 -57 -112 -81 -156 -88 -162 -3 -3 -21 -32 -39 -65 -46 -85 -157 -229 -235
-305 -37 -36 -74 -73 -83 -82 -9 -10 -24 -18 -34 -18 -21 0 -32 -16 -16 -24 7
-3 4 -4 -8 -1 -12 3 -27 -1 -34 -10 -7 -8 -19 -15 -27 -15 -8 0 -12 -4 -9 -9
4 -5 -7 -12 -23 -16 -15 -3 -39 -16 -52 -28 -13 -12 -25 -20 -26 -17 -1 3 -11
-2 -21 -11 -10 -8 -23 -14 -29 -12 -6 2 -18 -3 -26 -12 -9 -8 -28 -20 -42 -25
-24 -9 -26 -13 -14 -28 11 -14 11 -15 0 -5 -16 14 -44 6 -34 -11 4 -6 -1 -5
-10 3 -15 12 -17 11 -17 -8 0 -11 -4 -21 -10 -21 -5 0 -9 3 -7 8 1 4 -3 7 -8
7 -6 0 -9 -4 -7 -9 1 -4 -89 -5 -200 -1 -165 6 -205 10 -215 22 -7 9 -20 50
-29 91 -69 310 163 762 511 996 159 107 375 177 593 191 141 9 243 46 328 117
48 41 207 212 849 918 143 157 324 355 402 440 131 144 558 622 891 998 161
182 214 224 307 245 23 5 105 -3 120 -11z m-4657 -2231 c79 -40 182 -173 253
-327 64 -138 125 -362 117 -429 -3 -28 -4 -28 -117 70 -394 341 -519 526 -438
646 41 61 114 76 185 40z m2982 -806 c36 -35 52 -102 40 -167 -12 -62 -44
-123 -142 -271 -44 -67 -87 -137 -95 -156 -17 -40 -9 -87 17 -101 47 -25 68
-13 196 110 189 181 364 285 563 336 91 23 117 26 220 22 135 -6 203 -27 280
-88 111 -88 126 -243 31 -323 -59 -50 -105 -47 -280 19 -70 27 -85 29 -220 29
-124 0 -154 -4 -207 -23 -133 -47 -264 -151 -312 -246 -12 -25 -30 -47 -39
-50 -28 -9 -488 -55 -621 -62 -105 -6 -122 -5 -115 7 5 8 31 47 58 88 62 94
127 233 206 441 111 292 178 406 263 450 56 28 118 23 157 -15z m-3160 -38
c126 -33 271 -93 371 -153 60 -36 250 -178 307 -229 2 -2 -9 -52 -25 -112 -25
-97 -28 -124 -27 -256 l1 -149 -41 6 c-22 3 -90 10 -151 16 -255 26 -746 118
-990 187 -49 14 -94 28 -98 30 -21 12 117 82 255 127 193 65 405 50 619 -45
93 -40 118 -38 138 13 16 42 -15 86 -101 145 -106 71 -173 95 -283 101 -66 3
-108 0 -155 -13 -109 -29 -151 -35 -192 -29 -117 19 -182 157 -127 271 24 49
63 80 134 106 69 25 235 17 365 -16z m-1133 -670 c352 -182 955 -336 1588
-406 646 -72 792 -81 1330 -81 443 0 965 28 1225 65 14 2 59 6 100 10 472 42
1123 188 1470 332 110 45 288 136 349 178 l48 34 7 -46 c12 -90 9 -107 -31
-145 -167 -159 -576 -318 -1141 -442 -289 -64 -756 -129 -1082 -151 -52 -4
-105 -8 -117 -10 -12 -2 -156 -9 -320 -16 -860 -35 -1823 33 -2488 176 -494
106 -920 269 -1113 425 l-57 46 1 70 c0 111 3 113 77 57 34 -27 104 -70 154
-96z m-20 -431 c168 -84 229 -110 384 -166 60 -21 115 -42 121 -47 21 -13 173
-52 328 -84 80 -16 151 -32 158 -34 9 -3 2 -14 -20 -32 -18 -15 -35 -30 -38
-33 -7 -7 -106 -81 -166 -122 -54 -38 -130 -78 -149 -78 -15 0 -209 132 -256
175 -53 47 -101 49 -125 4 -22 -44 -12 -71 46 -121 l49 -43 -57 -32 c-31 -18
-52 -33 -47 -34 26 -3 51 5 86 27 l38 24 28 -24 c15 -12 78 -53 138 -89 167
-101 317 -151 575 -191 144 -22 145 -22 115 -38 -16 -9 -82 -53 -145 -98 -131
-92 -268 -163 -364 -187 -36 -9 -66 -21 -66 -27 1 -38 345 -410 468 -505 74
-57 38 -45 -60 20 -188 126 -355 273 -523 462 -329 371 -589 854 -660 1229
-15 82 -19 118 -10 118 2 0 71 -33 152 -74z m1418 -405 c77 -11 169 -22 205
-26 36 -3 101 -10 145 -15 376 -44 653 -60 1043 -60 171 -1 312 -3 312 -5 0
-11 -67 -154 -92 -198 -44 -75 -59 -119 -53 -148 8 -37 28 -51 74 -53 50 -1
84 18 116 64 33 48 145 295 145 320 0 16 7 20 33 20 50 0 462 29 567 40 52 5
125 12 162 15 37 3 75 7 85 9 10 2 54 7 98 10 44 4 133 14 198 22 65 9 120 14
123 11 9 -9 -120 -226 -199 -334 -129 -178 -230 -296 -397 -467 -244 -249
-428 -388 -654 -492 -103 -48 -130 -48 -89 0 31 37 53 86 53 121 0 44 -37 29
-121 -50 -51 -49 -155 -112 -166 -102 -2 3 5 8 16 12 36 11 42 36 27 108 -6
27 -11 35 -17 25 -6 -9 -9 -10 -9 -1 0 7 16 29 36 50 27 28 44 37 63 35 16 -2
38 6 55 19 23 18 27 28 25 61 -3 33 3 46 37 86 87 102 211 310 275 462 36 88
87 247 95 302 8 48 -10 51 -34 7 -27 -49 -179 -276 -224 -333 -170 -217 -430
-472 -632 -624 -108 -80 -272 -164 -401 -205 -160 -52 -235 -62 -450 -62 -187
0 -207 2 -308 28 -60 16 -156 48 -215 73 -100 42 -231 109 -242 124 -3 4 -16
13 -30 20 -41 21 -180 123 -180 132 0 4 36 26 79 48 44 22 82 44 86 49 3 6 23
9 45 8 55 -2 84 26 76 74 -6 35 -4 38 53 77 32 23 110 90 173 150 102 97 119
109 158 115 112 15 374 115 443 168 23 18 26 84 5 106 -15 14 -13 20 18 69 19
30 30 54 25 54 -5 0 -23 -22 -41 -50 -18 -27 -37 -50 -42 -50 -6 0 -56 -21
-111 -46 -334 -153 -663 -181 -967 -81 -39 12 -61 27 -41 27 7 0 33 16 58 35
25 19 43 35 40 35 -3 0 -29 -16 -58 -35 -30 -19 -59 -35 -66 -35 -17 0 -109
35 -157 60 l-39 20 37 15 c34 14 74 40 216 139 30 22 72 56 93 76 l38 37 132
-24 c73 -13 195 -32 272 -42z"/>
<path d="M7987 8245 c-61 -58 -19 -155 68 -155 36 0 48 5 69 31 41 48 34 109
-15 134 -43 23 -90 19 -122 -10z"/>
<path d="M7789 7991 c-35 -36 -37 -61 -6 -97 32 -36 83 -36 115 1 29 34 28 70
-3 100 -33 33 -70 32 -106 -4z"/>
<path d="M7697 7723 c-4 -3 -7 -11 -7 -17 0 -6 5 -5 12 2 6 6 9 14 7 17 -3 3
-9 2 -12 -2z"/>
<path d="M7643 7650 c-23 -22 -39 -40 -35 -40 10 0 23 11 56 48 40 44 30 40
-21 -8z"/>
<path d="M6480 6592 c-76 -98 -260 -344 -260 -348 0 -15 22 3 51 43 18 26 40
54 49 63 8 9 31 37 50 63 19 27 44 60 56 75 42 54 94 132 94 141 0 5 6 12 13
14 6 3 8 6 2 6 -5 1 -30 -25 -55 -57z"/>
<path d="M5320 5581 c-5 -11 -16 -25 -22 -33 -7 -7 -26 -33 -42 -57 -16 -25
-33 -50 -37 -55 -5 -6 -51 -74 -102 -151 -51 -77 -115 -169 -143 -205 -72 -92
-158 -220 -152 -225 3 -3 23 21 46 53 23 31 51 69 62 83 38 50 69 94 201 289
73 107 135 197 138 200 6 5 62 85 75 108 4 6 3 12 -3 12 -6 0 -15 -9 -21 -19z"/>
<path d="M5000 5463 c-35 -54 -66 -100 -70 -103 -3 -3 -16 -21 -28 -41 -21
-35 -23 -36 -71 -31 -43 4 -53 1 -75 -21 -27 -28 -34 -73 -16 -107 13 -23 -7
-71 -55 -134 -41 -54 -48 -83 -8 -34 16 18 32 38 38 45 5 6 21 27 34 45 21 29
29 33 68 33 72 0 112 62 82 128 -9 21 -5 32 38 91 59 83 77 111 103 158 11 20
24 39 30 43 5 3 10 10 10 16 0 25 -22 0 -80 -88z"/>
<path d="M5326 5408 c-23 -32 -20 -71 7 -96 29 -27 57 -28 88 -3 26 21 32 79
10 105 -21 25 -86 21 -105 -6z"/>
<path d="M5180 5098 c0 -21 17 -41 29 -34 7 5 7 13 -2 26 -13 23 -27 26 -27 8z"/>
<path d="M4623 4912 c-41 -4 -63 -34 -63 -87 0 -54 34 -88 86 -88 46 0 87 39
87 82 0 66 -40 100 -110 93z"/>
<path d="M4973 4889 c-29 -15 -56 -74 -49 -105 10 -40 42 -64 84 -64 77 0 127
99 76 151 -24 24 -81 33 -111 18z"/>
<path d="M4282 4700 c0 -14 2 -19 5 -12 2 6 2 18 0 25 -3 6 -5 1 -5 -13z"/>
<path d="M4578 4692 c-22 -26 -148 -218 -148 -226 0 -17 43 37 101 124 34 52
67 98 72 101 6 4 5 9 -1 13 -5 3 -16 -2 -24 -12z"/>
<path d="M4591 4511 c-34 -38 -61 -71 -61 -75 0 -16 30 -3 45 21 10 15 32 42
49 61 38 41 50 62 38 62 -6 0 -37 -31 -71 -69z"/>
<path d="M2184 4091 c3 -5 21 -18 40 -29 25 -15 33 -17 29 -6 -3 8 -11 14 -18
14 -7 0 -18 7 -25 15 -13 16 -35 21 -26 6z"/>
<path d="M2281 4026 c-7 -8 -26 -18 -42 -21 -16 -4 -27 -10 -24 -15 3 -4 23 0
45 11 21 10 47 19 57 19 15 0 16 2 3 10 -20 13 -26 12 -39 -4z"/>
<path d="M2428 3973 c6 -2 18 -2 25 0 6 3 1 5 -13 5 -14 0 -19 -2 -12 -5z"/>
<path d="M2488 3963 c12 -2 30 -2 40 0 9 3 -1 5 -23 4 -22 0 -30 -2 -17 -4z"/>
<path d="M2792 3931 c-18 -22 -49 -49 -70 -61 -21 -12 -44 -31 -51 -43 -13
-21 -13 -21 6 -4 11 9 24 17 30 17 6 0 13 3 15 8 2 4 21 22 43 41 46 40 80 81
67 81 -5 0 -23 -18 -40 -39z"/>
<path d="M2240 3935 c0 -5 5 -17 10 -25 5 -8 10 -10 10 -5 0 6 -5 17 -10 25
-5 8 -10 11 -10 5z"/>
<path d="M2350 3681 c0 -6 4 -13 10 -16 6 -3 7 1 4 9 -7 18 -14 21 -14 7z"/>
<path d="M2640 3500 c-19 -10 -61 -30 -92 -45 l-57 -27 26 -40 c23 -35 28 -38
34 -22 11 28 10 41 -1 24 -9 -13 -11 -13 -20 0 -5 8 -10 20 -10 25 0 10 97 65
114 65 5 0 19 9 33 20 32 25 19 25 -27 0z"/>
<path d="M2747 3420 c-33 -17 -63 -27 -68 -24 -5 3 -9 0 -9 -6 0 -6 -5 -8 -11
-4 -6 3 -15 1 -19 -5 -4 -7 -23 -13 -43 -14 -21 -1 -39 -8 -42 -16 -9 -24 4
-25 58 -6 63 22 227 105 207 105 -8 -1 -41 -14 -73 -30z"/>
<path d="M3049 3337 c-31 -17 -102 -58 -158 -91 -56 -32 -127 -69 -157 -81
-32 -13 -51 -26 -45 -30 23 -13 233 97 399 210 52 36 27 31 -39 -8z"/>
<path d="M3216 3764 c-59 -58 -105 -108 -103 -111 3 -3 41 28 84 69 43 41 96
91 118 111 24 22 34 37 25 37 -9 0 -64 -48 -124 -106z"/>
<path d="M3756 3774 c-20 -20 -36 -41 -36 -47 0 -7 18 8 41 32 49 53 46 66 -5
15z"/>
<path d="M6216 3763 c-6 -14 -5 -15 5 -6 7 7 10 15 7 18 -3 3 -9 -2 -12 -12z"/>
<path d="M3881 3649 c-46 -49 -81 -92 -79 -95 6 -6 144 140 159 167 5 11 8 19
7 19 -2 -1 -41 -41 -87 -91z"/>
<path d="M6193 3728 c-16 -22 -46 -98 -41 -103 3 -3 13 16 23 42 10 27 22 54
28 61 5 6 7 12 4 12 -2 0 -9 -6 -14 -12z"/>
<path d="M3335 3662 c-38 -37 -83 -78 -99 -90 -16 -12 -26 -25 -23 -28 7 -8
40 18 135 104 67 61 84 82 65 82 -5 0 -39 -31 -78 -68z"/>
<path d="M4373 3655 c-84 -134 -227 -350 -234 -355 -3 -3 -12 -16 -19 -30
l-13 -25 27 25 c24 21 146 193 146 204 0 3 23 41 50 85 28 44 50 83 50 86 0 4
12 22 26 41 15 19 24 37 21 40 -3 3 -27 -29 -54 -71z"/>
<path d="M5029 3707 c-9 -12 -43 -78 -77 -147 -33 -69 -95 -188 -137 -264 -41
-76 -73 -141 -71 -144 3 -3 9 4 13 14 3 10 16 33 27 49 45 65 103 172 198 363
67 137 82 175 47 129z"/>
<path d="M5962 3595 c-9 -20 -9 -25 2 -25 13 0 26 20 26 41 0 18 -17 8 -28
-16z"/>
<path d="M4651 3574 c-12 -15 -21 -30 -21 -35 0 -23 26 -60 47 -65 19 -5 21
-9 12 -20 -23 -27 1 -13 39 24 51 48 58 76 25 102 -36 28 -77 26 -102 -6z"/>
<path d="M6126 3585 c-3 -8 -1 -15 3 -15 5 0 11 7 15 15 3 8 1 15 -3 15 -5 0
-11 -7 -15 -15z"/>
<path d="M4367 3572 c-9 -10 -20 -33 -23 -50 -4 -18 -11 -29 -17 -25 -6 3 -7
1 -3 -6 4 -6 11 -9 15 -6 5 2 16 -4 26 -15 21 -23 72 -26 100 -6 25 18 25 78
0 106 -23 25 -76 27 -98 2z"/>
<path d="M5940 3537 c-86 -45 -139 -164 -110 -246 33 -93 102 -140 206 -141
54 0 68 4 110 33 68 47 106 121 99 190 -17 148 -175 233 -305 164z"/>
<path d="M3450 3520 c-9 -6 -10 -10 -3 -10 6 0 15 5 18 10 8 12 4 12 -15 0z"/>
<path d="M4646 3345 c-20 -43 -36 -82 -36 -86 0 -5 -3 -9 -8 -9 -8 0 -11 -6
-54 -95 -15 -31 -36 -69 -48 -85 -26 -37 -26 -50 1 -21 12 12 39 57 61 99 22
42 46 84 53 92 7 8 23 44 36 80 12 36 27 71 32 78 5 7 7 15 4 18 -3 3 -22 -29
-41 -71z"/>
<path d="M6392 3400 c0 -14 2 -19 5 -12 2 6 2 18 0 25 -3 6 -5 1 -5 -13z"/>
<path d="M4968 3202 c-80 -109 -120 -154 -133 -149 -15 7 -65 -21 -120 -68
-171 -145 -360 -251 -510 -285 -98 -23 -125 -42 -125 -90 0 -19 9 -36 28 -50
23 -19 35 -21 77 -15 180 23 443 165 615 332 77 73 90 91 90 118 0 21 -6 35
-16 39 -13 5 -13 8 -2 21 7 8 18 20 23 27 6 7 38 47 71 88 71 89 77 97 66 104
-4 2 -33 -30 -64 -72z"/>
<path d="M3950 3169 c-41 -45 -115 -122 -163 -171 -49 -49 -86 -92 -84 -95 9
-9 327 313 327 331 0 9 -1 16 -3 16 -1 0 -36 -37 -77 -81z"/>
<path d="M4212 3140 c-150 -159 -325 -252 -532 -284 l-45 -7 30 26 30 27 -37
-26 c-25 -18 -50 -26 -78 -26 -76 0 -119 -81 -70 -130 53 -53 354 5 530 102
101 55 161 102 246 190 91 94 114 125 114 154 0 33 -34 64 -71 64 -26 0 -45
-15 -117 -90z"/>
<path d="M5934 3078 c-20 -35 -37 -69 -37 -75 0 -7 -4 -13 -9 -13 -4 0 -8 -6
-8 -14 0 -8 -6 -17 -12 -19 -9 -4 -8 -6 2 -6 10 -1 34 33 64 90 55 105 56 131
0 37z"/>
<path d="M5597 3082 c-36 -40 -6 -112 46 -112 28 0 67 39 67 66 0 28 -41 64
-72 64 -14 0 -32 -8 -41 -18z"/>
<path d="M5822 2882 c-18 -31 -39 -67 -48 -79 -9 -13 -14 -23 -11 -23 8 0 77
98 77 109 0 6 9 16 20 24 17 12 18 27 1 27 -3 0 -21 -26 -39 -58z"/>
<path d="M3842 2685 c-36 -36 -49 -56 -41 -61 7 -4 20 2 31 17 11 13 35 41 53
62 51 57 17 43 -43 -18z"/>
<path d="M3865 2589 c-11 -17 0 -20 21 -4 17 13 17 14 2 15 -9 0 -20 -5 -23
-11z"/>
<path d="M4312 8574 c-37 -19 -59 -38 -77 -68 -49 -84 -26 -139 93 -223 113
-79 226 -179 288 -254 33 -40 69 -84 81 -98 l22 -26 1 40 c0 56 -25 194 -56
300 -52 180 -144 323 -222 345 -55 15 -73 13 -130 -16z"/>
<path d="M6586 8405 c-79 -41 -82 -141 -6 -180 63 -33 126 -2 137 67 13 85
-61 149 -131 113z"/>
<path d="M3859 8367 c-40 -27 -77 -64 -103 -101 -36 -53 -40 -57 -47 -37 -10
26 -39 27 -69 3 l-23 -18 27 -66 c14 -37 26 -71 26 -76 0 -6 -15 -15 -34 -22
-49 -16 -111 -73 -137 -127 -95 -196 116 -421 322 -344 107 41 173 134 172
246 0 98 -50 172 -148 220 l-47 22 35 22 c47 29 105 94 128 145 12 27 19 64
19 109 l0 67 -29 0 c-19 0 -54 -16 -92 -43z"/>
<path d="M3190 8380 c-35 -35 -22 -92 27 -118 32 -18 51 -15 78 13 50 49 20
125 -50 125 -22 0 -43 -8 -55 -20z"/>
<path d="M2785 8261 c-48 -29 -67 -57 -72 -104 -5 -38 -2 -48 23 -75 16 -16
79 -56 141 -88 98 -50 200 -119 311 -210 18 -15 35 -25 38 -22 6 7 -46 139
-85 216 -37 72 -117 186 -167 236 -66 66 -132 82 -189 47z"/>
<path d="M6781 8064 c-43 -55 -9 -134 58 -136 27 -1 41 6 63 31 15 17 28 43
28 57 0 67 -107 102 -149 48z"/>
<path d="M2362 7897 c-92 -29 -169 -150 -159 -250 5 -60 53 -133 116 -175 26
-18 125 -67 222 -111 245 -110 435 -217 584 -329 114 -86 282 -231 325 -281
77 -88 80 -63 11 83 -158 335 -394 647 -673 887 -185 159 -313 213 -426 176z"/>
<path d="M4302 7785 c-73 -62 -29 -185 66 -185 46 0 102 55 102 99 0 93 -99
144 -168 86z"/>
<path d="M6595 7740 c-34 -37 2 -93 46 -70 33 18 20 90 -16 90 -7 0 -20 -9
-30 -20z"/>
<path d="M4700 7521 c-32 -26 -35 -34 -35 -81 0 -47 3 -55 37 -86 28 -25 47
-34 73 -34 95 0 152 88 111 169 -35 67 -126 83 -186 32z"/>
<path d="M5255 7488 c-27 -15 -35 -28 -35 -59 0 -54 70 -79 110 -39 25 25 25
51 3 78 -23 26 -53 34 -78 20z"/>
<path d="M3422 7448 c-7 -7 -12 -24 -12 -38 0 -31 17 -50 45 -50 29 0 45 19
45 52 0 40 -51 63 -78 36z"/>
<path d="M6420 7436 c-28 -35 11 -93 48 -70 35 22 22 84 -18 84 -10 0 -23 -7
-30 -14z"/>
<path d="M3930 7331 c-52 -17 -89 -42 -133 -91 -54 -60 -81 -132 -81 -213 1
-53 10 -76 117 -293 104 -210 124 -242 177 -295 106 -107 252 -154 388 -125
189 39 322 178 355 371 29 168 -69 373 -220 462 -24 14 -92 45 -151 68 -59 23
-145 60 -192 81 -70 32 -98 39 -160 41 -41 1 -86 -1 -100 -6z m221 -182 c46
-23 112 -52 147 -65 199 -76 286 -167 299 -314 11 -122 -45 -223 -155 -277
-114 -56 -268 -26 -341 66 -16 20 -75 129 -131 242 -92 184 -101 208 -97 248
5 49 29 86 77 119 51 34 102 29 201 -19z"/>
<path d="M4242 6948 c-7 -7 -12 -24 -12 -38 0 -34 17 -50 52 -50 27 0 48 23
48 54 0 37 -61 61 -88 34z"/>
<path d="M4082 6848 c-22 -22 -14 -67 13 -80 50 -22 97 38 59 76 -18 19 -55
21 -72 4z"/>
<path d="M4390 6810 c-11 -11 -20 -27 -20 -35 0 -17 35 -55 51 -55 49 0 68 66
27 94 -29 20 -34 20 -58 -4z"/>
<path d="M4225 6710 c-37 -41 11 -104 61 -81 28 12 32 46 8 79 -19 27 -45 28
-69 2z"/>
<path d="M1957 7164 c-81 -29 -137 -110 -137 -199 0 -51 44 -131 89 -160 63
-42 101 -47 231 -28 142 20 492 23 600 5 41 -7 132 -26 202 -43 70 -17 133
-29 138 -27 13 4 -125 106 -230 170 -209 126 -373 200 -565 253 -157 43 -260
52 -328 29z"/>
<path d="M4896 7164 c-30 -30 -13 -74 29 -74 12 0 26 5 33 12 7 7 12 21 12 33
0 42 -44 59 -74 29z"/>
<path d="M5945 7125 c-47 -46 -25 -119 42 -139 42 -13 103 41 103 90 0 9 -13
29 -29 45 -38 37 -82 39 -116 4z"/>
<path d="M8207 7139 c-80 -18 -170 -76 -360 -233 -143 -117 -241 -206 -233
-213 2 -2 17 2 33 10 43 23 227 66 328 77 50 5 135 10 190 10 144 1 196 23
236 102 28 56 25 115 -10 170 -43 68 -106 94 -184 77z"/>
<path d="M5345 7111 c-93 -24 -186 -109 -219 -200 -38 -108 -2 -259 81 -332
69 -60 109 -74 213 -74 91 0 98 2 152 34 109 66 164 170 156 294 -11 162 -125
275 -286 283 -37 2 -80 0 -97 -5z m152 -152 c82 -40 119 -152 74 -225 -31 -51
-86 -86 -139 -91 -60 -5 -106 18 -149 75 -104 138 56 318 214 241z"/>
<path d="M7987 6569 c-8 -13 -25 -49 -38 -79 -12 -30 -25 -59 -29 -63 -4 -5
-31 -1 -61 7 -101 30 -191 12 -299 -59 -73 -49 -121 -102 -153 -173 -19 -40
-22 -65 -22 -162 0 -104 3 -121 27 -172 78 -168 266 -262 448 -224 93 20 160
58 225 128 60 64 90 132 100 224 7 55 1 87 -30 190 -6 20 -1 23 45 33 90 19
136 55 110 86 -15 18 -92 36 -185 44 -78 6 -80 7 -78 31 5 61 -10 172 -27 192
l-17 22 -16 -25z m-100 -264 c47 -20 92 -59 126 -108 27 -39 37 -97 17 -97 -7
0 -7 -6 0 -20 9 -16 8 -20 -6 -20 -12 0 -15 -6 -11 -22 l6 -23 -18 23 c-16 21
-19 22 -31 8 -11 -14 -10 -16 4 -10 10 4 16 1 16 -9 0 -8 -6 -15 -12 -14 -33
1 -49 -4 -43 -14 4 -6 13 -8 21 -5 7 3 16 1 18 -3 3 -4 -13 -14 -36 -21 -37
-11 -40 -14 -25 -25 19 -14 13 -27 -9 -18 -9 3 -18 -5 -24 -24 -10 -29 -15
-31 -82 -34 -35 -2 -55 -19 -36 -30 6 -4 9 -12 7 -18 -3 -8 -13 -4 -27 10 -18
16 -27 18 -35 10 -8 -8 -7 -11 5 -11 9 0 20 -5 24 -11 7 -13 -23 -9 -60 6 -14
6 -17 5 -12 -4 5 -7 18 -16 30 -21 19 -8 19 -9 -6 -9 -16 -1 -28 4 -28 10 0 5
-4 8 -8 5 -15 -9 -70 32 -101 74 -60 83 -66 209 -13 303 70 124 219 176 349
122z m-97 -455 c0 -5 -4 -10 -10 -10 -5 0 -10 5 -10 10 0 6 5 10 10 10 6 0 10
-4 10 -10z"/>
<path d="M7995 6080 c3 -5 8 -10 11 -10 2 0 4 5 4 10 0 6 -5 10 -11 10 -5 0
-7 -4 -4 -10z"/>
<path d="M7875 5950 c-3 -5 -1 -10 4 -10 6 0 11 5 11 10 0 6 -2 10 -4 10 -3 0
-8 -4 -11 -10z"/>
<path d="M7840 5939 c0 -5 5 -7 10 -4 6 3 10 8 10 11 0 2 -4 4 -10 4 -5 0 -10
-5 -10 -11z"/>
<path d="M7811 5903 c-7 -8 -10 -17 -6 -21 3 -3 9 -1 13 5 4 6 16 11 26 10 10
-1 20 3 22 8 6 16 -40 14 -55 -2z"/>
<path d="M7630 5829 c0 -5 5 -7 10 -4 6 3 10 8 10 11 0 2 -4 4 -10 4 -5 0 -10
-5 -10 -11z"/>
<path d="M2763 6544 c-15 -24 -15 -29 -2 -53 29 -51 109 -33 109 24 0 56 -76
76 -107 29z"/>
<path d="M2170 6392 c-71 -27 -102 -47 -152 -99 -117 -120 -139 -298 -57 -463
115 -228 456 -255 619 -49 60 76 84 147 84 255 1 85 -1 95 -37 166 -42 86 -89
133 -177 176 -71 35 -208 42 -280 14z m230 -132 c49 -25 115 -98 130 -145 19
-58 6 -169 -27 -220 -31 -49 -110 -110 -164 -127 -85 -25 -216 34 -266 120
-22 38 -28 61 -31 131 -4 101 8 140 65 194 32 32 77 53 148 71 33 8 107 -5
145 -24z"/>
<path d="M2136 6177 c-35 -26 4 -78 47 -61 22 8 29 32 17 55 -12 22 -39 25
-64 6z"/>
<path d="M2386 6174 c-9 -8 -16 -19 -16 -24 0 -9 28 -40 36 -40 18 0 44 24 44
40 0 11 -9 24 -19 30 -25 13 -27 13 -45 -6z"/>
<path d="M2270 6092 c-17 -14 -21 -24 -15 -41 5 -18 13 -22 38 -19 26 2 33 8
35 30 4 38 -28 54 -58 30z"/>
<path d="M2126 5994 c-19 -19 -20 -26 -4 -42 20 -20 66 -15 73 8 13 42 -37 66
-69 34z"/>
<path d="M2387 5994 c-15 -16 -6 -45 18 -56 21 -10 29 -9 43 5 13 13 14 21 6
35 -11 18 -55 28 -67 16z"/>
<path d="M2247 5906 c-9 -23 2 -44 24 -51 26 -9 51 13 47 39 -4 27 -62 36 -71
12z"/>
<path d="M5096 6279 c-35 -41 -34 -83 3 -120 21 -21 39 -29 64 -29 49 0 66 8
82 41 23 43 18 77 -14 110 -42 42 -99 41 -135 -2z"/>
<path d="M6953 6240 c-78 -47 -47 -160 50 -184 57 -14 117 41 117 107 0 82
-91 124 -167 77z"/>
<path d="M4724 6125 c-35 -53 27 -103 69 -57 22 24 21 45 -1 65 -26 24 -49 21
-68 -8z"/>
<path d="M4278 6044 c-33 -17 -58 -62 -58 -101 0 -35 31 -87 65 -109 57 -37
153 8 174 82 27 96 -89 178 -181 128z"/>
<path d="M2858 5849 c-22 -12 -23 -52 -3 -69 19 -16 45 -9 62 17 13 19 12 24
-6 42 -24 24 -29 25 -53 10z"/>
<path d="M6901 5783 c-43 -21 -71 -67 -71 -118 0 -130 157 -186 251 -89 108
111 -36 278 -180 207z"/>
<path d="M2980 1689 c-38 -15 -60 -49 -60 -96 0 -34 5 -46 31 -67 42 -35 89
-35 130 2 24 21 31 36 31 64 0 46 -25 84 -64 97 -36 13 -35 13 -68 0z"/>
<path d="M7583 1685 c-38 -16 -53 -42 -53 -88 0 -67 59 -109 125 -87 84 28 87
133 5 175 -35 18 -36 18 -77 0z"/>
<path d="M2146 1665 c-19 -18 -26 -34 -26 -63 0 -75 66 -120 129 -88 37 20 51
44 51 89 0 74 -98 114 -154 62z"/>
<path d="M2545 1665 c-19 -18 -25 -35 -25 -67 1 -46 12 -68 47 -86 61 -33 133
14 133 85 0 81 -99 125 -155 68z"/>
<path d="M7157 1662 c-38 -40 -37 -93 2 -133 19 -19 40 -29 59 -29 38 0 94 39
102 70 23 92 -98 160 -163 92z"/>
<path d="M7947 1662 c-68 -71 4 -183 97 -152 71 23 89 98 37 151 -41 40 -96
41 -134 1z"/>
</g>
</svg>
