<svg width="2737" height="752" viewBox="0 0 2737 752" fill="none" xmlns="http://www.w3.org/2000/svg">
<path d="M2525.6 112.1C2524.67 113.167 2522.8 114.1 2521.6 114.1C2516.67 114.1 2503.2 122.5 2497.07 129.433C2489.07 138.233 2482.67 155.833 2482.67 168.767C2482.67 198.633 2504.93 222.367 2534.8 224.367C2552.67 225.7 2569.47 218.633 2583.33 203.967C2586.67 200.367 2589.33 196.767 2589.33 195.967C2589.33 195.167 2590.13 193.7 2591.2 192.9C2592.27 192.1 2593.33 189.7 2593.73 187.7C2594.13 185.7 2595.2 181.3 2596 177.833C2597.2 173.167 2597.2 169.433 2596 163.167C2593.6 149.167 2593.07 147.567 2591.2 145.967C2590.13 145.167 2589.33 143.3 2589.33 141.967C2589.33 140.5 2588.8 139.433 2588.13 139.433C2587.47 139.433 2586.53 138.367 2586.13 137.033C2583.87 129.833 2563.47 114.1 2556.4 114.1C2554.93 114.1 2552.93 113.167 2552 112.1C2549.73 109.3 2528.13 109.3 2525.6 112.1Z" fill="#111111"/>
<path d="M2664 112.1C2663.07 113.166 2661.33 114.1 2660.13 114.1C2657.47 114.1 2650.4 117.566 2643.87 122.1C2636.93 126.9 2631.2 133.833 2626.4 143.433C2622.27 151.833 2622.13 152.633 2622 168.766C2622 182.5 2622.4 185.966 2624.4 188.766C2625.6 190.5 2626.67 192.766 2626.67 193.833C2626.67 195.566 2632 203.3 2636 207.433C2648.93 220.5 2669.07 226.9 2686.13 223.433C2721.6 216.233 2742.53 183.833 2732 152.633C2727.6 139.7 2721.73 131.7 2709.2 121.433C2706 118.766 2698.13 115.033 2692.4 113.433C2690.67 112.9 2689.33 111.966 2689.33 111.3C2689.33 110.633 2684 110.1 2677.47 110.1C2668.67 110.1 2665.2 110.633 2664 112.1Z" fill="#111111"/>
<path d="M2128.67 122.233C2118.8 123.3 2113.33 125.033 2107.73 128.9C2102.4 132.633 2094.67 140.5 2094.67 142.233C2094.67 142.9 2094 143.433 2093.33 143.433C2092.53 143.433 2091.33 144.766 2090.67 146.366C2089.87 148.1 2088.8 150.366 2088.13 151.433C2084.93 156.633 2082.8 163.7 2081.33 174.1C2079.33 189.433 2080.13 567.433 2082.27 577.433C2089.2 609.3 2125.2 630.766 2154.8 620.9C2175.73 613.833 2185.87 603.166 2192.4 580.633C2194.27 574.766 2194.67 567.3 2194.67 545.433V517.7L2204.67 507.966C2214.13 498.5 2220 495.566 2220 500.1C2220 501.166 2220.53 502.1 2221.33 502.1C2222 502.1 2231.47 510.9 2242.27 521.566C2253.07 532.233 2266.4 545.033 2271.87 549.833C2277.33 554.766 2290.93 567.7 2302 578.766C2340.4 616.633 2351.07 623.433 2373.33 623.433C2395.47 623.433 2413.07 612.366 2422.53 592.233C2426.67 583.566 2426.8 582.5 2426.27 570.233C2426 563.166 2424.93 555.3 2423.87 552.766C2421.47 546.9 2414.27 535.433 2413.07 535.433C2412.4 535.433 2412 534.766 2412 534.1C2412 533.3 2409.73 530.5 2407.07 527.7C2404.27 524.9 2396.93 517.166 2390.8 510.633C2384.53 504.1 2365.2 484.366 2347.73 466.766C2326.67 445.433 2316 433.7 2316 431.833C2316 430.1 2320.13 425.433 2327.6 418.633C2339.33 408.1 2352.13 396.366 2358.8 390.1C2366.27 383.033 2380.8 370.233 2384.67 367.166C2397.6 357.033 2414 336.766 2415.47 328.766C2416 326.5 2416.93 324.366 2417.47 323.966C2418.13 323.566 2418.67 318.366 2418.67 312.366C2418.67 273.833 2388.67 247.433 2352.4 254.1C2339.47 256.5 2330.27 261.833 2316 275.433C2309.2 282.1 2303.33 287.433 2303.07 287.433C2302.8 287.433 2301.2 288.766 2299.6 290.366C2298 292.1 2289.87 299.7 2281.47 307.433C2273.07 315.166 2261.87 325.566 2256.67 330.766C2246.4 340.766 2238 348.633 2219.73 365.166C2199.73 383.3 2198.27 384.5 2196.4 383.833C2194.4 383.033 2194 356.633 2194.67 250.766C2194.93 191.433 2194.8 182.766 2192.67 172.1C2190 158.5 2184 145.3 2177.6 138.633C2173.33 134.233 2162.27 126.1 2160.67 126.1C2160.13 126.1 2157.87 125.3 2155.6 124.233C2150.53 121.966 2139.6 121.166 2128.67 122.233Z" fill="#111111"/>
<path d="M1073.33 130.1C1045.6 131.967 1013.2 140.633 984.667 154.1C980.267 156.1 975.733 158.233 974.667 158.633C968.667 161.167 948.267 175.167 937.333 183.967C927.333 192.1 912.667 206.233 904 216.1C887.733 234.9 879.733 246.767 870 267.433C856.133 296.367 852.133 308.9 846.533 339.433C844.667 349.967 844 359.7 844 378.767C844 414.633 847.467 433.967 860.267 470.767C863.333 479.3 869.6 493.033 870.933 494.1C871.333 494.5 872.267 496.5 872.667 498.5C873.2 500.5 874.133 502.1 874.667 502.1C875.2 502.1 876.133 503.167 876.533 504.5C876.933 505.7 878.133 507.967 879.067 509.433C884.933 518.767 888.533 524.233 889.2 524.767C889.733 525.167 892.933 529.033 896.267 533.433C910.533 552.233 936.933 575.833 958.267 588.9C987.2 606.633 1010.13 615.3 1042.67 620.767C1062.67 624.1 1109.2 624.5 1124.13 621.433C1158.67 614.233 1168.27 611.167 1192 599.7C1198.93 596.233 1205.47 592.767 1206.4 591.833C1207.33 590.9 1209.07 590.1 1210.13 590.1C1211.2 590.1 1212 589.433 1212 588.767C1212 587.967 1212.53 587.433 1213.2 587.433C1216.67 587.433 1237.6 566.367 1240.8 559.567C1242 556.9 1243.73 554.367 1244.53 553.833C1245.47 553.167 1245.87 546.1 1245.87 533.833C1245.87 516.633 1245.6 514.1 1242.8 508.1C1239.07 500.233 1225.73 486.633 1217.87 482.5C1204 475.3 1186 473.433 1170.13 477.567C1165.73 478.767 1154.8 483.3 1146.13 487.7C1137.47 492.1 1129.33 496.1 1128.13 496.633C1126.93 497.167 1124 498.633 1121.6 499.833C1119.07 501.033 1116 502.1 1114.67 502.1C1113.47 502.1 1110.13 503.033 1107.6 504.1C1101.6 506.633 1062.27 506.9 1056.4 504.633C1054.4 503.833 1050.53 502.633 1048 502.1C1040.13 500.367 1025.6 494.5 1024 492.633C1023.6 492.1 1020.93 490.5 1017.87 488.9C1012 485.833 993.067 467.967 985.333 458.367C978.933 450.5 970.533 434.633 967.733 425.967C961.467 405.433 961.333 404.9 961.333 380.767C961.333 363.167 961.867 355.7 963.333 351.433C964.4 348.367 965.333 344.367 965.333 342.633C965.333 337.433 978.4 309.567 983.467 304.1C985.067 302.5 987.6 298.9 989.2 296.233C990.933 293.567 992.8 291.433 993.467 291.433C994.133 291.433 994.667 290.9 994.667 290.1C994.667 288.367 1005.73 278.233 1011.2 274.9C1013.47 273.567 1017.2 270.767 1019.47 268.767C1026.53 262.633 1041.6 255.967 1064.67 248.767C1078.67 244.367 1120.27 246.767 1134 252.633C1135.47 253.3 1139.33 254.9 1142.67 256.233C1146 257.567 1154.67 262.5 1162 267.167C1176.53 276.633 1178 277.3 1190.93 280.9C1202.27 284.1 1204.4 284.1 1216.13 280.767C1234 275.833 1246.8 265.567 1254.27 250.1C1257.47 243.167 1259.87 234.1 1260 228.1C1260 221.033 1256.8 208.9 1253.47 203.3C1251.87 200.767 1250.13 197.433 1249.33 195.7C1247.07 190.367 1230.27 174.9 1218 166.633C1203.07 156.767 1181.07 145.833 1167.33 141.567C1144.4 134.5 1131.33 131.833 1110.53 130.1C1094.27 128.767 1094.53 128.767 1073.33 130.1Z" fill="#111111"/>
<path d="M1450 261.7C1431.87 263.7 1413.6 267.566 1405.6 270.9C1403.2 271.966 1400 272.766 1398.67 272.766C1397.2 272.766 1396 273.3 1396 273.966C1396 274.633 1394.27 275.566 1392 276.1C1387.87 277.033 1375.6 283.033 1368.67 287.566C1366.53 288.9 1363.6 290.5 1362.4 290.9C1361.07 291.433 1360 292.233 1360 292.766C1360 293.433 1358.67 294.366 1357.07 294.9C1353.87 295.833 1318.67 330.233 1318.67 332.366C1318.67 333.166 1317.33 335.166 1315.73 337.033C1311.33 341.966 1310.13 343.966 1302.13 360.1C1294.13 376.366 1286.67 397.7 1286.67 404.1C1286.67 406.366 1285.73 411.7 1284.67 415.833C1282.4 424.766 1282 452.9 1284.13 462.1C1284.8 465.3 1286 471.966 1286.67 476.766C1288 486.233 1290.27 494.5 1294.8 506.766C1298.4 516.5 1306.8 532.633 1310.4 536.5C1311.2 537.433 1312 539.166 1312 540.233C1312 541.3 1312.53 542.1 1313.07 542.1C1313.6 542.1 1315.87 544.9 1318 548.5C1322.53 555.966 1343.2 576.633 1355.07 585.566C1359.6 589.166 1363.6 592.366 1364 592.9C1364.4 593.3 1366 594.1 1367.73 594.633C1369.33 595.166 1370.67 596.233 1370.67 596.9C1370.67 597.566 1371.47 598.1 1372.53 598.1C1373.6 598.1 1374.67 598.633 1374.93 599.3C1375.6 600.9 1397.47 611.166 1408.4 614.9C1440.4 625.833 1487.2 625.166 1522.67 613.3C1538.27 608.1 1562.67 596.366 1567.73 591.7C1568.8 590.766 1571.33 588.9 1573.2 587.7C1581.6 582.233 1593.33 570.633 1602 559.433C1605.6 554.633 1608.93 550.5 1609.33 550.1C1609.87 549.7 1610.67 548.5 1611.2 547.433C1613.07 543.3 1615.73 539.033 1616.93 538.233C1618.4 537.166 1629.73 513.7 1633.07 504.766C1635.87 497.033 1638.67 486.5 1641.47 473.433C1644.13 460.5 1644.53 426.1 1642.13 417.566C1640.93 413.566 1640 409.033 1640 407.3C1640 398.366 1627.73 365.966 1618.93 351.433C1617.33 348.9 1615.6 345.833 1615.07 344.766C1614.53 343.7 1613.47 342.1 1612.8 341.166C1612 340.366 1608.93 336.766 1606 333.166C1595.73 320.766 1580.53 305.7 1571.33 298.766C1551.87 284.1 1528.13 272.233 1511.87 268.9C1509.33 268.366 1506.53 267.433 1505.73 267.033C1500.8 263.966 1462.13 260.233 1450 261.7ZM1487.07 379.566C1490.53 380.5 1493.33 381.833 1493.33 382.366C1493.33 383.033 1494.27 383.433 1495.2 383.433C1499.73 383.433 1518.67 398.9 1518.67 402.633C1518.67 403.3 1519.47 404.5 1520.4 405.3C1522.27 406.9 1525.33 413.966 1528 422.766C1530.93 432.9 1528.4 460.633 1523.6 469.166C1518.4 478.366 1506.4 492.1 1501.33 494.5C1500.27 495.033 1496.93 496.9 1494 498.766C1491.07 500.5 1487.73 501.966 1486.53 502.1C1485.33 502.1 1482.53 503.033 1480.53 504.1C1475.2 506.9 1450.93 506.9 1447.2 504.1C1445.87 503.033 1443.33 502.1 1441.87 502.1C1440.27 502.1 1438.27 501.166 1437.33 500.1C1436.4 499.033 1434.53 498.1 1433.07 498.1C1430.13 498.1 1410.67 479.3 1407.6 473.433C1399.33 457.433 1399.6 458.366 1399.47 439.966C1399.47 425.7 1399.87 421.966 1401.73 419.033C1402.93 417.166 1404 414.9 1404 414.1C1404 411.3 1416.13 396.633 1422.67 391.566C1429.33 386.366 1435.87 382.9 1446.67 379.166C1454 376.5 1477.33 376.766 1487.07 379.566Z" fill="#111111"/>
<path d="M1827.33 264.1C1814.27 266.366 1796.53 271.3 1788.67 274.766C1786.53 275.833 1782.13 277.7 1779.07 278.9C1775.87 280.233 1773.33 281.7 1773.33 282.366C1773.33 282.9 1772.27 283.433 1770.8 283.433C1769.47 283.433 1767.6 284.233 1766.8 285.3C1765.87 286.366 1763.73 287.566 1762 287.966C1760.13 288.5 1758.67 289.433 1758.67 290.1C1758.67 290.9 1757.87 291.433 1756.8 291.433C1755.73 291.433 1754.67 291.966 1754.4 292.5C1754.27 293.166 1751.2 295.566 1747.73 297.833C1726.93 312.1 1702 344.766 1690.13 373.433C1688.8 376.366 1687.33 379.7 1686.8 380.766C1686.13 381.966 1685.2 384.9 1684.8 387.433C1684.27 389.966 1683.33 393.3 1682.67 394.766C1682.13 396.233 1680.53 401.966 1679.33 407.433C1676.13 421.166 1676.13 463.966 1679.2 472.633C1680.4 475.833 1681.33 479.833 1681.33 481.433C1681.33 483.166 1682.27 486.233 1683.33 488.233C1684.4 490.366 1685.33 493.433 1685.33 495.033C1685.33 496.633 1686 498.366 1686.67 498.766C1687.47 499.166 1688 500.5 1688 501.7C1688 502.766 1688.8 505.566 1689.87 507.833C1690.8 510.233 1692.67 514.766 1694.13 518.1C1695.47 521.433 1697.33 525.033 1698.27 526.233C1699.2 527.3 1700 528.766 1700 529.166C1700 529.966 1702.67 534.1 1714 551.166C1720 560.233 1740.8 581.3 1749.33 587.166C1756.4 591.966 1757.47 592.766 1761.87 596.5C1762.93 597.3 1764.53 598.1 1765.2 598.1C1765.87 598.1 1767.33 598.9 1768.27 599.7C1772.13 603.433 1790.4 611.166 1806.67 615.966C1819.07 619.566 1844.53 623.433 1856.67 623.433C1860.93 623.433 1870.13 622.633 1877.2 621.566C1884.27 620.5 1891.87 619.3 1894 619.033C1904.67 617.433 1941.33 603.966 1944 600.766C1944.4 600.233 1947.47 598.5 1951.07 596.766C1954.53 595.033 1957.33 593.166 1957.33 592.5C1957.33 591.966 1958 591.433 1958.8 591.433C1962.8 591.433 1988 568.366 2000.53 553.3C2009.33 542.633 2025.33 513.833 2025.33 508.633C2025.33 507.433 2025.73 506.1 2026.27 505.566C2027.33 504.5 2029.33 497.966 2033.6 480.766C2036.13 471.166 2036.53 465.433 2036.53 443.433C2036.67 415.7 2035.73 409.433 2028.4 387.433C2023.87 373.833 2014.93 353.566 2011.6 349.433C2010.93 348.766 2008.8 345.566 2006.93 342.633C1992.27 319.966 1973.33 301.966 1947.33 286.1C1938.4 280.633 1927.73 275.433 1925.47 275.433C1924.67 275.433 1924 274.766 1924 274.1C1924 273.3 1922.53 272.766 1920.67 272.766C1918.93 272.766 1915.47 271.966 1913.07 270.9C1894.93 263.3 1851.73 259.833 1827.33 264.1ZM1877.87 379.033C1891.2 383.3 1895.73 385.966 1905.2 395.566C1912.53 402.766 1915.6 406.766 1917.73 411.566C1926.93 432.5 1926.13 454.9 1915.47 473.033C1912 479.033 1899.33 492.9 1895.87 494.5C1894.93 495.033 1891.33 496.9 1888.13 498.766C1884.93 500.633 1881.33 502.1 1880.13 502.1C1878.93 502.1 1876.8 503.033 1875.47 504.1C1871.6 507.033 1845.87 506.9 1839.07 503.966C1826.27 498.366 1820.4 495.433 1817.73 493.166C1816 491.833 1813.2 489.7 1811.47 488.5C1806.53 484.9 1796.53 469.033 1793.33 459.433C1790.8 452.1 1790.53 448.633 1790.93 436.766C1791.73 418.766 1795.33 410.9 1808.67 397.3C1817.87 387.966 1826 383.166 1838.67 379.033C1847.33 376.233 1869.33 376.233 1877.87 379.033Z" fill="#111111"/>
<path d="M2524 271.166C2520.67 272.233 2515.87 274.1 2513.33 275.3C2507.73 277.966 2489.33 295.833 2489.33 298.766C2489.33 299.966 2488.53 302.233 2487.47 303.833C2486.4 305.433 2484.53 311.833 2483.33 317.966C2481.2 327.966 2481.07 340.1 2481.73 447.967C2482.27 531.3 2482.93 568.767 2484 573.433C2485.47 580.1 2487.47 585.3 2491.73 593.967C2494.93 600.5 2507.07 612.233 2514.53 615.967C2529.73 623.7 2551.07 623.167 2566.93 614.633C2575.33 610.233 2584 603.167 2585.73 599.433C2586.27 598.367 2587.87 595.433 2589.47 592.9C2595.33 583.033 2596.27 578.233 2597.2 552.1C2597.6 538.1 2597.73 479.033 2597.33 420.767C2596.53 310.9 2596.67 312.9 2591.2 301.7C2590.13 299.566 2589.33 297.033 2589.33 296.1C2589.33 293.566 2574.4 278.766 2569.07 275.833C2556 268.9 2536.67 266.9 2524 271.166Z" fill="#111111"/>
<path d="M2662.67 271.033C2659.33 272.233 2655.73 273.567 2654.67 274.233C2653.6 274.9 2650.67 276.367 2648.27 277.567C2642.67 280.5 2629.33 293.3 2629.33 295.967C2629.33 297.167 2628.8 298.1 2628 298.1C2627.33 298.1 2626.67 299.033 2626.67 300.233C2626.67 301.433 2625.87 303.967 2624.8 305.833C2623.73 307.833 2622 314.767 2620.67 321.433C2618.67 332.233 2618.53 344.233 2619.07 448.1C2619.87 572.9 2619.87 573.7 2627.47 589.433C2629.6 593.833 2634.4 600.767 2638.27 604.767C2651.2 618.5 2666.53 623.567 2685.87 620.767C2710.53 617.167 2727.6 601.567 2734 576.767C2736.93 565.433 2737.07 331.567 2734.13 316.233C2731.07 300.367 2724.93 289.7 2713.07 280.1C2701.07 270.233 2677.33 265.967 2662.67 271.033Z" fill="#111111"/>
<g clip-path="url(#clip0_28_374)">
<path d="M342.189 1.02005C337.071 2.55006 333.283 6.12009 330.111 12.6481C324.685 23.6642 324.174 44.0643 328.677 72.4206C331.851 92.7187 339.323 119.035 342.394 120.871C342.906 121.177 343.52 119.953 343.827 118.117C348.433 87.0064 354.063 67.3205 367.062 36.7203C371.566 25.9082 372.181 23.5622 371.668 19.6862C369.724 5.71209 355.905 -3.05997 342.189 1.02005Z" fill="#111111"/>
<path d="M406.266 22.9503C405.959 24.2763 405.857 29.2743 406.061 33.8643C406.471 43.4524 409.337 50.5924 415.581 57.8345L419.164 62.0165L415.888 62.7305C403.708 65.3825 391.424 76.9084 385.999 90.6785C384.157 95.371 383.542 107.509 384.771 114.241C385.897 120.157 391.527 130.663 396.133 135.253C406.164 145.249 416.912 149.329 431.447 148.717C439.636 148.411 442.195 147.901 447.824 145.249C458.061 140.455 465.431 133.009 470.651 122.503C474.847 113.935 474.95 113.425 474.95 103.531C474.95 94.147 474.643 92.7187 471.572 86.2927C469.32 81.4984 466.352 77.5204 462.155 73.4406L456.013 67.5245L461.029 63.5465C466.659 59.1605 472.801 50.6944 474.643 44.6764C476.383 38.9643 475.154 38.1483 467.068 39.7804C458.368 41.4124 449.462 46.1044 443.628 52.1224L438.817 57.1204L438.101 53.0404C436.258 42.2284 425.51 28.7643 414.25 23.0522C407.802 19.7882 407.085 19.7882 406.266 22.9503ZM447.313 78.2349C452.226 81.3967 455.911 85.1704 458.879 90.169C461.541 94.6565 461.643 94.9625 459.698 94.2487C458.879 93.9427 457.958 94.147 457.549 94.759C457.242 95.371 457.754 95.8805 458.777 95.983C459.8 95.983 460.107 96.289 459.391 96.595C457.447 97.3088 457.754 98.737 459.903 99.2465C461.029 99.5525 461.029 99.5525 459.596 99.4508C458.47 99.349 456.627 98.8388 455.604 98.431C453.864 97.7165 453.864 97.819 455.911 99.8585C458.265 102.205 458.061 104.041 455.297 104.041C454.069 104.041 453.864 104.653 454.478 106.795C455.092 109.549 455.092 109.549 453.454 107.611C451.816 105.673 451.816 105.673 452.226 108.325C452.737 111.487 451.509 112.099 449.974 109.447C449.462 108.427 448.643 108.019 448.234 108.427C447.824 108.835 448.029 109.753 448.643 110.365C449.36 111.079 449.872 111.997 449.872 112.405C449.872 113.731 447.006 113.323 446.392 111.895C446.085 111.283 446.085 111.895 446.392 113.323C446.801 115.465 446.494 116.077 444.856 116.587C443.321 116.995 442.911 117.607 443.321 118.831C443.935 120.259 443.628 120.463 441.58 119.851C439.943 119.443 439.533 119.545 440.454 120.157C441.58 120.973 441.376 121.585 439.533 123.319C436.872 125.767 434.927 126.073 434.211 124.135C434.006 123.523 433.391 123.217 432.982 123.625C432.573 124.033 432.675 124.951 433.289 125.665C434.62 127.297 432.163 131.173 430.526 130.051C429.911 129.745 428.99 130.459 428.478 131.785L427.66 134.131L426.943 131.785C426.227 129.541 423.258 128.521 423.258 130.561C423.258 131.071 424.077 131.581 424.998 131.581C426.329 131.581 426.432 131.887 425.51 132.805C424.691 133.621 423.975 133.621 422.849 132.703C421.825 131.887 421.211 131.785 420.699 132.601C419.573 134.437 417.935 133.723 418.652 131.581C419.062 130.459 418.857 129.541 418.242 129.541C417.628 129.541 417.116 130.255 417.116 131.071C417.116 132.805 415.479 133.111 414.557 131.581C414.148 130.969 413.431 130.765 412.92 131.173C412.408 131.479 409.542 129.235 406.471 126.175C394.699 114.139 393.778 96.595 404.424 84.7627C409.03 79.6624 416.298 75.4806 420.597 75.4806C423.156 75.4806 423.258 75.5826 423.258 82.0087C423.258 87.7209 423.565 88.8424 425.51 90.169C426.739 91.087 428.785 91.8007 429.911 91.8007C431.038 91.8007 433.084 91.087 434.313 90.169C436.258 88.8424 436.565 87.721 436.565 82.2129C436.565 78.7444 436.872 75.4806 437.179 75.1746C438.305 74.0526 442.911 75.4806 447.313 78.2349Z" fill="#111111"/>
<path d="M455.501 92.8205C455.808 93.3308 456.32 93.841 456.627 93.841C456.832 93.841 457.037 93.3308 457.037 92.8205C457.037 92.2085 456.525 91.8008 455.911 91.8008C455.399 91.8008 455.194 92.2085 455.501 92.8205Z" fill="#111111"/>
<path d="M451.509 101.491C451.919 102.306 452.328 103.021 452.533 103.021C452.738 103.021 452.942 102.306 452.942 101.491C452.942 100.675 452.533 99.9609 451.919 99.9609C451.407 99.9609 451.202 100.675 451.509 101.491Z" fill="#111111"/>
<path d="M449.36 105.06C449.053 105.571 449.257 106.081 449.77 106.081C450.384 106.081 450.895 105.571 450.895 105.06C450.895 104.448 450.691 104.041 450.486 104.041C450.179 104.041 449.667 104.448 449.36 105.06Z" fill="#111111"/>
<path d="M438.612 114.649C438.612 114.852 439.329 115.567 440.147 116.281C441.068 116.994 441.683 117.097 441.683 116.485C441.683 115.975 440.966 115.261 440.147 114.852C439.329 114.546 438.612 114.445 438.612 114.649Z" fill="#111111"/>
<path d="M436.053 121.381C435.644 121.993 435.746 123.013 436.36 123.625C437.691 124.95 438.715 123.217 437.691 121.483C436.974 120.463 436.667 120.463 436.053 121.381Z" fill="#111111"/>
<path d="M428.274 128.215C427.046 129.745 427.046 129.847 428.683 129.235C429.707 128.827 431.038 128.521 431.549 128.521C432.061 128.521 432.47 128.011 432.47 127.501C432.47 125.869 429.809 126.277 428.274 128.215Z" fill="#111111"/>
<path d="M420.699 128.521C420.392 129.031 420.597 129.54 421.108 129.54C421.723 129.54 422.235 129.031 422.235 128.521C422.235 127.909 422.03 127.501 421.825 127.501C421.518 127.501 421.006 127.909 420.699 128.521Z" fill="#111111"/>
<path d="M642.82 23.5623C626.647 25.3983 619.38 30.9064 592.664 61.2006C586.522 68.2386 579.971 75.5827 578.231 77.5205C576.491 79.459 568.916 87.9246 561.444 96.3909C549.98 109.141 527.563 133.825 525.618 135.661C525.311 135.967 515.996 146.269 504.941 158.611C493.989 170.954 476.485 190.232 466.147 201.554C455.808 212.773 441.068 228.89 433.494 237.152C425.919 245.516 416.707 255.614 413.022 259.592C409.337 263.468 401.558 272.138 395.723 278.666C389.889 285.194 382.826 292.232 379.857 294.17C373.511 298.556 364.811 300.902 355.086 300.902C333.079 300.902 304.418 311 284.97 325.586C270.844 336.195 250.065 358.533 244.742 369.039C243.821 370.875 242.593 372.099 242.081 371.793C241.467 371.385 241.057 366.998 241.057 361.899C241.057 351.189 237.885 330.788 234.302 318.344C225.294 287.54 208.814 262.142 191.413 252.452C179.642 245.924 168.28 245.516 156.406 251.024C142.178 257.756 135.013 273.77 138.698 291.008C141.052 302.33 150.367 317.936 163.468 332.42C166.232 335.378 168.28 338.031 168.177 338.234C167.973 338.438 165.925 337.928 163.673 337.113C161.319 336.296 154.359 334.971 148.012 334.053C133.068 331.808 123.241 332.93 112.698 338.132C98.3675 345.069 90.6905 355.37 88.746 370.161L88.0297 375.566L74.0061 380.462C66.3292 383.115 55.3766 387.501 49.6444 390.255L39.2037 395.151L37.2589 392.805C33.4716 388.113 35.007 384.237 42.7864 379.137C49.3374 374.751 62.8489 367.713 67.5575 366.183C73.9037 364.041 76.258 361.49 76.258 356.391C76.258 347.211 70.2188 345.681 54.6601 350.883C37.2589 356.697 23.6451 364.449 13.7161 374.241C3.58252 384.441 0.511719 394.437 0.511719 418.203C0.511719 435.033 1.53532 445.437 5.32263 465.123C15.7633 521.122 42.5816 574.264 82.0923 617.717C86.2893 622.307 95.7067 631.588 103.179 638.32C135.934 668.309 163.673 685.547 216.798 709.313L222.838 711.965L222.428 721.349L222.121 730.835L196.838 731.345C171.862 731.855 171.555 731.855 168.996 734.303C166.13 736.955 165.311 742.973 167.358 746.747C170.224 752.051 160.705 751.745 349.15 751.745H523.776L527.256 748.277C531.862 743.687 532.067 738.587 527.768 734.303L524.799 731.345H497.981H471.265L471.572 721.553L471.879 711.863L482.422 707.681C509.65 697.073 545.373 676.672 569.838 657.905C584.782 646.378 612.931 618.838 624.805 603.946C665.237 553.354 690.11 492.051 693.488 434.727C694.921 409.023 692.67 390.663 686.835 381.585C684.071 377.199 675.268 368.834 668.922 364.449C657.662 356.799 630.229 346.19 624.702 347.313C618.97 348.638 616.104 357.206 619.892 361.796C620.608 362.511 627.159 366.08 634.529 369.651C650.088 377.199 658.686 383.931 658.686 388.623C658.686 391.377 656.434 394.743 654.592 394.743C654.08 394.743 648.245 392.091 641.591 388.827C634.836 385.665 627.159 382.197 624.498 381.074C621.836 380.055 617.946 377.402 615.9 375.159C609.962 368.834 598.089 361.49 588.774 358.329C580.995 355.779 579.152 355.575 564.003 355.676C550.594 355.676 546.193 356.085 539.641 357.818C533.192 359.553 520.091 364.449 512.721 367.815C511.902 368.121 511.39 365.877 511.083 360.878C510.264 347.414 503.099 336.195 492.044 330.788C487.13 328.442 484.879 327.933 478.021 327.933C464.099 327.933 454.376 333.747 441.99 349.659L435.03 358.43L434.723 352.616C434.518 348.129 434.927 345.884 436.462 343.436C438.51 340.173 502.28 276.524 618.56 161.875C651.93 129.031 681.512 99.0431 684.276 95.3711C691.338 86.0885 693.898 77.5205 693.284 64.9746C692.977 57.0185 692.362 54.4685 689.496 48.2465C681.512 31.1104 662.985 21.3183 642.82 23.5623ZM657.15 43.6565C657.662 44.0644 657.048 44.5745 655.615 44.9825C653.26 45.5945 653.363 45.6964 656.434 45.7985C662.985 46.0024 667.182 51.0005 668.614 60.1806C670.253 70.2787 667.182 75.1747 646.915 93.7386C634.529 105.163 595.734 143.311 510.366 227.972C437.691 299.984 418.447 319.671 413.431 326.912C410.77 330.687 404.833 347.007 404.833 350.474C404.833 353.84 403.708 353.534 398.18 348.843C395.621 346.599 393.062 344.763 392.448 344.763C391.936 344.763 391.527 346.599 391.527 348.741C391.527 350.985 391.117 353.025 390.503 353.433C389.991 353.739 387.534 358.023 385.078 362.919C379.243 374.342 376.787 378.831 376.07 379.443C375.763 379.749 373.921 382.707 372.078 386.073C367.369 394.743 356.007 409.431 348.023 417.183C344.236 420.855 340.449 424.629 339.528 425.547C338.607 426.567 337.071 427.383 336.047 427.383C333.898 427.383 332.772 429.015 334.41 429.831C335.126 430.137 334.819 430.239 333.591 429.933C332.362 429.627 330.827 430.035 330.111 430.953C329.394 431.769 328.166 432.483 327.347 432.483C326.528 432.483 326.119 432.891 326.426 433.401C326.835 433.911 325.709 434.625 324.071 435.033C322.536 435.339 320.079 436.665 318.749 437.889C317.418 439.113 316.19 439.929 316.087 439.623C315.985 439.317 314.962 439.827 313.937 440.745C312.914 441.561 311.584 442.173 310.97 441.969C310.355 441.765 309.127 442.275 308.308 443.193C307.387 444.009 305.442 445.233 304.009 445.743C301.552 446.661 301.347 447.069 302.576 448.599C303.702 450.027 303.702 450.129 302.576 449.109C300.938 447.681 298.072 448.497 299.096 450.231C299.505 450.843 298.993 450.741 298.072 449.925C296.537 448.701 296.332 448.803 296.332 450.741C296.332 451.863 295.923 452.883 295.308 452.883C294.796 452.883 294.387 452.577 294.591 452.067C294.694 451.659 294.284 451.353 293.773 451.353C293.159 451.353 292.852 451.761 293.056 452.271C293.159 452.679 283.947 452.781 272.585 452.373C255.695 451.761 251.6 451.353 250.577 450.129C249.861 449.211 248.529 445.029 247.608 440.847C240.545 409.227 264.293 363.123 299.915 339.255C316.19 328.34 338.3 321.201 360.614 319.772C375.046 318.854 385.487 315.081 394.188 307.838C399.101 303.656 415.377 286.214 481.092 214.202C495.729 198.188 514.256 177.992 522.24 169.321C535.649 154.633 579.357 105.877 613.443 67.5246C629.922 48.9605 635.348 44.6765 644.867 42.5344C647.222 42.0244 655.615 42.8404 657.15 43.6565ZM180.461 271.22C188.547 275.3 199.09 288.866 206.357 304.574C212.908 318.65 219.153 341.498 218.334 348.332C218.026 351.189 217.924 351.189 206.357 341.192C166.028 306.41 153.233 287.54 161.524 275.3C165.721 269.078 173.193 267.548 180.461 271.22ZM485.698 353.433C489.383 357.003 491.02 363.837 489.792 370.467C488.564 376.79 485.288 383.013 475.257 398.109C470.753 404.943 466.352 412.083 465.533 414.021C463.792 418.101 464.611 422.895 467.273 424.323C472.083 426.873 474.233 425.649 487.335 413.103C506.681 394.641 524.594 384.033 544.964 378.831C554.279 376.484 556.94 376.178 567.483 376.587C581.302 377.199 588.262 379.341 596.144 385.563C607.506 394.539 609.041 410.349 599.317 418.509C593.278 423.609 588.57 423.303 570.656 416.571C563.491 413.817 561.956 413.613 548.137 413.613C535.445 413.613 532.374 414.021 526.949 415.959C513.335 420.753 499.926 431.361 495.012 441.051C493.784 443.601 491.942 445.845 491.02 446.151C488.154 447.069 441.068 451.761 427.455 452.475C416.707 453.087 414.967 452.985 415.684 451.761C416.195 450.945 418.857 446.967 421.62 442.785C427.967 433.197 434.62 419.019 442.707 397.803C454.069 368.019 460.926 356.391 469.627 351.903C475.359 349.047 481.706 349.556 485.698 353.433ZM162.24 357.309C175.137 360.675 189.98 366.795 200.216 372.915C206.357 376.587 225.806 391.071 231.64 396.273C231.845 396.477 230.719 401.577 229.081 407.697C226.523 417.591 226.216 420.345 226.318 433.809L226.42 449.007L222.224 448.395C219.971 448.089 213.011 447.375 206.767 446.763C180.665 444.111 130.407 434.727 105.43 427.689C100.415 426.261 95.8088 424.833 95.3996 424.629C93.2501 423.405 107.376 416.265 121.501 411.675C141.257 405.045 162.957 406.575 184.862 416.265C194.381 420.345 196.94 420.141 198.988 414.939C200.625 410.655 197.452 406.167 188.649 400.149C177.799 392.907 170.941 390.459 159.681 389.847C152.926 389.541 148.626 389.847 143.815 391.173C132.658 394.131 128.359 394.743 124.162 394.131C112.186 392.193 105.533 378.117 111.163 366.489C113.619 361.49 117.611 358.329 124.879 355.676C131.942 353.127 148.934 353.943 162.24 357.309ZM46.2666 425.649C82.2973 444.213 144.02 459.921 208.814 467.061C274.938 474.405 289.883 475.323 344.953 475.323C390.298 475.323 443.73 472.467 470.344 468.694C471.776 468.489 476.383 468.082 480.58 467.673C528.893 463.389 595.529 448.497 631.049 433.809C642.308 429.219 660.528 419.937 666.772 415.653L671.685 412.185L672.402 416.877C673.631 426.057 673.323 427.791 669.229 431.667C652.135 447.885 610.269 464.104 552.436 476.751C522.854 483.279 475.052 489.909 441.683 492.153C436.36 492.562 430.935 492.969 429.706 493.174C428.478 493.377 413.738 494.092 396.952 494.805C308.922 498.376 210.35 491.439 142.28 476.853C91.7147 466.041 48.109 449.415 28.3536 433.503L22.5191 428.811L22.6214 421.671C22.6214 410.349 22.9285 410.145 30.5032 415.857C33.9834 418.611 41.1486 422.997 46.2666 425.649ZM44.2194 469.612C61.4159 478.18 67.6598 480.831 83.5256 486.543C89.6672 488.685 95.2967 490.827 95.9109 491.338C98.0605 492.663 113.619 496.641 129.485 499.906C137.674 501.538 144.942 503.169 145.658 503.374C146.579 503.68 145.863 504.802 143.611 506.638C141.769 508.168 140.028 509.698 139.721 510.004C139.005 510.718 128.871 518.266 122.73 522.447C117.202 526.324 109.422 530.403 107.478 530.403C105.942 530.403 86.0844 516.939 81.274 512.554C75.8486 507.759 70.9353 507.556 68.4787 512.146C66.2267 516.633 67.2504 519.387 73.1872 524.488L78.2032 528.873L72.3683 532.138C69.1952 533.974 67.0456 535.504 67.5575 535.606C70.2188 535.912 72.7778 535.096 76.3604 532.852L80.2498 530.403L83.1164 532.852C84.6518 534.076 91.1005 538.258 97.2421 541.93C114.336 552.232 129.69 557.332 156.099 561.412C170.838 563.656 170.941 563.656 167.87 565.288C166.232 566.206 159.476 570.694 153.028 575.284C139.619 584.668 125.596 591.91 115.769 594.358C112.084 595.276 109.013 596.5 109.013 597.112C109.115 600.988 144.327 638.932 156.918 648.623C164.493 654.437 160.808 653.213 150.776 646.583C131.532 633.73 114.439 618.736 97.2421 599.458C63.5654 561.616 36.9518 512.349 29.6843 474.099C28.1489 465.735 27.7395 462.063 28.6607 462.063C28.8654 462.063 35.9283 465.429 44.2194 469.612ZM189.366 510.922C197.247 512.043 206.665 513.166 210.35 513.573C214.034 513.879 220.688 514.594 225.191 515.103C263.679 519.592 292.033 521.223 331.953 521.223C349.457 521.326 363.889 521.529 363.889 521.734C363.889 522.856 357.031 537.442 354.472 541.93C349.969 549.58 348.433 554.068 349.047 557.026C349.866 560.8 351.913 562.228 356.622 562.432C361.74 562.534 365.22 560.596 368.496 555.904C371.873 551.008 383.337 525.813 383.337 523.264C383.337 521.632 384.054 521.223 386.715 521.223C391.834 521.223 434.006 518.266 444.753 517.144C450.077 516.633 457.549 515.92 461.336 515.614C465.124 515.308 469.013 514.9 470.037 514.696C471.06 514.491 475.564 513.982 480.068 513.676C484.572 513.267 493.682 512.248 500.335 511.431C506.988 510.513 512.618 510.004 512.925 510.31C513.846 511.228 500.642 533.362 492.556 544.378C479.351 562.534 469.013 574.57 451.919 592.012C426.943 617.411 408.109 631.588 384.976 642.197C374.432 647.093 371.668 647.093 375.865 642.197C379.038 638.422 381.291 633.424 381.291 629.854C381.291 625.367 377.503 626.897 368.905 634.954C363.684 639.952 353.039 646.378 351.913 645.358C351.708 645.052 352.425 644.542 353.551 644.134C357.236 643.012 357.85 640.462 356.314 633.118C355.7 630.364 355.189 629.548 354.575 630.569C353.961 631.487 353.654 631.588 353.654 630.67C353.654 629.957 355.291 627.712 357.339 625.57C360.102 622.714 361.842 621.796 363.787 622.001C365.425 622.204 367.676 621.389 369.417 620.062C371.771 618.226 372.18 617.206 371.976 613.84C371.668 610.474 372.283 609.148 375.763 605.068C384.669 594.664 397.361 573.448 403.912 557.944C407.597 548.968 412.817 532.75 413.636 527.14C414.455 522.244 412.613 521.938 410.156 526.425C407.393 531.424 391.834 554.578 387.227 560.392C369.826 582.526 343.213 608.536 322.536 624.04C311.481 632.2 294.694 640.768 281.49 644.951C265.112 650.255 257.435 651.274 235.428 651.274C216.286 651.274 214.239 651.071 203.901 648.418C197.759 646.787 187.933 643.522 181.893 640.973C171.657 636.689 158.248 629.854 157.123 628.324C156.816 627.916 155.484 626.998 154.052 626.285C149.855 624.143 135.627 613.739 135.627 612.821C135.627 612.412 139.312 610.168 143.713 607.924C148.217 605.68 152.106 603.436 152.516 602.926C152.824 602.314 154.87 602.008 157.123 602.11C162.752 602.314 165.721 599.458 164.902 594.562C164.288 590.992 164.493 590.686 170.327 586.708C173.602 584.362 181.586 577.528 188.035 571.408C198.476 561.514 200.216 560.29 204.208 559.678C215.672 558.148 242.491 547.948 249.554 542.542C251.907 540.706 252.214 533.974 250.065 531.73C248.529 530.302 248.734 529.69 251.907 524.692C253.853 521.632 254.978 519.184 254.467 519.184C253.955 519.184 252.112 521.428 250.27 524.283C248.427 527.037 246.483 529.384 245.971 529.384C245.357 529.384 240.238 531.526 234.609 534.075C200.421 549.682 166.744 552.538 135.627 542.338C131.635 541.114 129.383 539.584 131.43 539.584C132.146 539.584 134.808 537.952 137.367 536.014C139.926 534.075 141.769 532.444 141.462 532.444C141.154 532.444 138.493 534.075 135.524 536.014C132.453 537.952 129.485 539.584 128.768 539.584C127.029 539.584 117.611 536.014 112.698 533.463L108.706 531.424L112.493 529.894C115.974 528.466 120.068 525.813 134.603 515.715C137.674 513.472 141.973 510.004 144.122 507.964L148.012 504.19L161.524 506.638C168.996 507.964 181.484 509.901 189.366 510.922Z" fill="#111111"/>
<path d="M640.977 62.7303C634.734 68.6464 639.033 78.5408 647.938 78.5408C651.623 78.5408 652.851 78.0305 655.001 75.3784C659.198 70.4824 658.481 64.2603 653.466 61.7103C649.064 59.3643 644.253 59.7723 640.977 62.7303Z" fill="#111111"/>
<path d="M620.71 88.639C617.128 92.311 616.923 94.8608 620.096 98.5328C623.372 102.205 628.592 102.205 631.868 98.4311C634.836 94.9625 634.734 91.2905 631.561 88.2305C628.183 84.8645 624.395 84.967 620.71 88.639Z" fill="#111111"/>
<path d="M611.293 115.975C610.884 116.281 610.576 117.097 610.576 117.709C610.576 118.321 611.088 118.219 611.805 117.505C612.419 116.893 612.726 116.077 612.522 115.771C612.215 115.465 611.601 115.567 611.293 115.975Z" fill="#111111"/>
<path d="M605.766 123.42C603.412 125.665 601.774 127.501 602.183 127.501C603.207 127.501 604.538 126.379 607.916 122.605C612.01 118.117 610.986 118.524 605.766 123.42Z" fill="#111111"/>
<path d="M486.721 231.337C478.942 241.334 460.107 266.426 460.107 266.834C460.107 268.364 462.36 266.528 465.328 262.448C467.17 259.796 469.423 256.94 470.344 256.022C471.162 255.104 473.517 252.247 475.461 249.596C477.407 246.842 479.965 243.476 481.194 241.946C485.493 236.438 490.815 228.482 490.815 227.564C490.815 227.053 491.43 226.34 492.147 226.135C492.761 225.829 492.965 225.523 492.351 225.523C491.839 225.422 489.28 228.073 486.721 231.337Z" fill="#111111"/>
<path d="M367.984 334.46C367.472 335.582 366.346 337.01 365.732 337.826C365.016 338.54 363.07 341.192 361.433 343.64C359.795 346.19 358.055 348.741 357.646 349.25C357.134 349.862 352.425 356.798 347.205 364.653C341.985 372.506 335.433 381.891 332.567 385.563C325.197 394.947 316.394 408.002 317.008 408.513C317.315 408.819 319.363 406.371 321.717 403.106C324.071 399.945 326.938 396.068 328.063 394.641C331.953 389.541 335.126 385.052 348.638 365.162C356.11 354.249 362.456 345.069 362.763 344.763C363.377 344.252 369.11 336.092 370.44 333.746C370.85 333.134 370.747 332.522 370.133 332.522C369.519 332.522 368.598 333.44 367.984 334.46Z" fill="#111111"/>
<path d="M335.229 346.496C331.646 352.004 328.473 356.697 328.063 357.003C327.756 357.309 326.426 359.145 325.197 361.184C323.048 364.755 322.843 364.856 317.929 364.347C313.528 363.938 312.505 364.244 310.252 366.489C307.489 369.345 306.773 373.935 308.615 377.402C309.945 379.749 307.899 384.645 302.985 391.071C298.788 396.579 298.072 399.537 302.166 394.538C303.804 392.702 305.442 390.663 306.056 389.948C306.568 389.336 308.206 387.194 309.536 385.358C311.686 382.401 312.505 381.992 316.497 381.992C323.867 381.992 327.961 375.669 324.89 368.937C323.969 366.795 324.378 365.673 328.78 359.654C334.819 351.189 336.661 348.332 339.323 343.539C340.449 341.498 341.78 339.561 342.394 339.152C342.906 338.846 343.417 338.132 343.417 337.52C343.417 334.971 341.165 337.52 335.229 346.496Z" fill="#111111"/>
<path d="M368.598 352.107C366.244 355.37 366.551 359.348 369.315 361.899C372.283 364.653 375.149 364.754 378.322 362.205C380.984 360.063 381.598 354.146 379.345 351.495C377.196 348.944 370.543 349.352 368.598 352.107Z" fill="#111111"/>
<path d="M353.654 383.727C353.654 385.869 355.393 387.909 356.622 387.194C357.339 386.685 357.339 385.869 356.417 384.543C355.086 382.196 353.654 381.891 353.654 383.727Z" fill="#111111"/>
<path d="M296.639 402.699C292.442 403.107 290.19 406.167 290.19 411.573C290.19 417.081 293.67 420.549 298.994 420.549C303.702 420.549 307.899 416.571 307.899 412.185C307.899 405.453 303.804 401.985 296.639 402.699Z" fill="#111111"/>
<path d="M332.465 405.045C329.496 406.575 326.733 412.592 327.449 415.755C328.473 419.835 331.748 422.283 336.047 422.283C343.929 422.283 349.047 412.185 343.827 406.881C341.37 404.433 335.536 403.515 332.465 405.045Z" fill="#111111"/>
<path d="M261.734 424.323C261.734 425.751 261.939 426.261 262.246 425.547C262.451 424.935 262.451 423.711 262.246 422.997C261.939 422.385 261.734 422.895 261.734 424.323Z" fill="#111111"/>
<path d="M292.033 425.138C289.781 427.791 276.884 447.375 276.884 448.191C276.884 449.925 281.285 444.416 287.222 435.542C290.702 430.239 294.08 425.547 294.592 425.241C295.206 424.832 295.104 424.323 294.489 423.914C293.977 423.608 292.852 424.119 292.033 425.138Z" fill="#111111"/>
<path d="M293.363 443.601C289.883 447.477 287.12 450.843 287.12 451.251C287.12 452.883 290.19 451.557 291.726 449.109C292.749 447.579 295.001 444.825 296.741 442.887C300.631 438.705 301.859 436.563 300.631 436.563C300.017 436.563 296.844 439.725 293.363 443.601Z" fill="#111111"/>
<path d="M46.9831 486.442C47.2902 486.951 49.1327 488.278 51.0775 489.399C53.6365 490.929 54.4554 491.133 54.046 490.011C53.7389 489.196 52.92 488.584 52.2035 488.584C51.487 488.584 50.361 487.869 49.6445 487.054C48.3138 485.421 46.0619 484.912 46.9831 486.442Z" fill="#111111"/>
<path d="M56.912 493.071C56.1955 493.887 54.2506 494.907 52.6129 495.213C50.9752 495.622 49.8492 496.234 50.1563 496.743C50.4633 497.152 52.5106 496.743 54.7625 495.622C56.912 494.601 59.5734 493.683 60.597 493.683C62.1324 493.683 62.2347 493.48 60.904 492.663C58.8568 491.338 58.2427 491.439 56.912 493.071Z" fill="#111111"/>
<path d="M71.959 498.477C72.5732 498.681 73.8015 498.681 74.518 498.477C75.1321 498.171 74.6204 497.967 73.1873 497.967C71.7542 497.967 71.2425 498.171 71.959 498.477Z" fill="#111111"/>
<path d="M78.1003 499.497C79.3286 499.701 81.1711 499.701 82.1952 499.497C83.1164 499.191 82.0923 498.988 79.8407 499.089C77.589 499.089 76.7698 499.294 78.1003 499.497Z" fill="#111111"/>
<path d="M109.218 502.761C107.376 505.005 104.202 507.759 102.053 508.983C99.903 510.207 97.5492 512.146 96.8322 513.37C95.5018 515.512 95.5018 515.512 97.4463 513.777C98.5725 512.859 99.903 512.043 100.517 512.043C101.131 512.043 101.848 511.737 102.053 511.228C102.258 510.819 104.202 508.983 106.455 507.045C111.163 502.965 114.643 498.783 113.312 498.783C112.8 498.783 110.958 500.619 109.218 502.761Z" fill="#111111"/>
<path d="M52.7153 502.353C52.7153 502.863 53.2272 504.087 53.739 504.903C54.2507 505.719 54.7626 505.923 54.7626 505.413C54.7626 504.801 54.2507 503.679 53.739 502.863C53.2272 502.047 52.7153 501.741 52.7153 502.353Z" fill="#111111"/>
<path d="M63.9749 528.261C63.9749 528.873 64.3843 529.588 64.9984 529.894C65.6126 530.2 65.7149 529.791 65.4078 528.976C64.6913 527.14 63.9749 526.834 63.9749 528.261Z" fill="#111111"/>
<path d="M93.6593 546.724C91.7148 547.744 87.4157 549.784 84.242 551.314L78.4075 554.068L81.0691 558.148C83.4236 561.718 83.9349 562.024 84.5491 560.392C85.6753 557.536 85.5732 556.21 84.447 557.944C83.5257 559.27 83.3207 559.27 82.3995 557.944C81.8882 557.128 81.3762 555.904 81.3762 555.394C81.3762 554.374 91.3048 548.763 93.0452 548.763C93.5572 548.763 94.9898 547.845 96.4231 546.724C99.6988 544.173 98.3676 544.173 93.6593 546.724Z" fill="#111111"/>
<path d="M104.612 554.883C101.234 556.618 98.1634 557.637 97.6513 557.331C97.1393 557.025 96.7301 557.331 96.7301 557.943C96.7301 558.555 96.218 558.76 95.6039 558.352C94.9897 558.046 94.0685 558.249 93.6593 558.861C93.2501 559.576 91.3048 560.188 89.2581 560.29C87.1085 560.391 85.266 561.106 84.959 561.921C84.0377 564.369 85.3681 564.472 90.8956 562.533C97.3442 560.29 114.132 551.823 112.084 551.823C111.265 551.926 107.887 553.252 104.612 554.883Z" fill="#111111"/>
<path d="M135.524 563.35C132.351 565.084 125.083 569.265 119.352 572.631C113.619 575.896 106.352 579.67 103.281 580.894C100.006 582.22 98.0605 583.546 98.6746 583.954C101.029 585.28 122.525 574.06 139.516 562.533C144.839 558.861 142.28 559.372 135.524 563.35Z" fill="#111111"/>
<path d="M152.619 519.795C146.579 525.711 141.871 530.812 142.076 531.118C142.383 531.424 146.272 528.261 150.674 524.08C155.075 519.897 160.501 514.797 162.752 512.757C165.209 510.513 166.232 508.983 165.311 508.983C164.39 508.983 158.76 513.879 152.619 519.795Z" fill="#111111"/>
<path d="M207.893 518.775C205.846 520.816 204.208 522.958 204.208 523.57C204.208 524.283 206.05 522.753 208.405 520.305C213.42 514.9 213.113 513.573 207.893 518.775Z" fill="#111111"/>
<path d="M459.698 519.898C459.084 521.326 459.186 521.428 460.21 520.51C460.927 519.796 461.234 518.98 460.927 518.674C460.619 518.368 460.005 518.878 459.698 519.898Z" fill="#111111"/>
<path d="M220.688 531.525C215.979 536.523 212.397 540.91 212.601 541.216C213.215 541.828 227.341 526.935 228.876 524.181C229.388 523.059 229.696 522.244 229.593 522.244C229.388 522.345 225.396 526.425 220.688 531.525Z" fill="#111111"/>
<path d="M457.344 523.468C455.706 525.711 452.635 533.463 453.147 533.973C453.455 534.279 454.478 532.342 455.501 529.689C456.525 526.935 457.754 524.181 458.368 523.468C458.879 522.856 459.084 522.244 458.777 522.244C458.572 522.244 457.856 522.856 457.344 523.468Z" fill="#111111"/>
<path d="M164.8 530.2C160.91 533.974 156.304 538.156 154.666 539.38C153.028 540.604 152.004 541.93 152.312 542.236C153.028 543.052 156.406 540.4 166.13 531.627C172.988 525.406 174.728 523.264 172.784 523.264C172.272 523.264 168.792 526.425 164.8 530.2Z" fill="#111111"/>
<path d="M271.049 530.914C262.451 544.582 247.813 566.614 247.097 567.124C246.79 567.43 245.869 568.756 245.152 570.184L243.821 572.734L246.585 570.184C249.042 568.042 261.53 550.498 261.53 549.375C261.53 549.069 263.884 545.194 266.647 540.706C269.514 536.217 271.766 532.239 271.766 531.933C271.766 531.526 272.994 529.69 274.427 527.752C275.963 525.813 276.884 523.977 276.577 523.671C276.27 523.365 273.813 526.63 271.049 530.914Z" fill="#111111"/>
<path d="M338.197 525.61C337.276 526.834 333.796 533.566 330.316 540.604C326.938 547.642 320.591 559.78 316.292 567.532C312.095 575.284 308.82 581.914 309.024 582.22C309.331 582.526 309.945 581.812 310.355 580.792C310.662 579.772 311.993 577.426 313.119 575.794C317.725 569.164 323.662 558.25 333.386 538.768C340.244 524.794 341.78 520.917 338.197 525.61Z" fill="#111111"/>
<path d="M433.699 537.034C432.777 539.074 432.777 539.583 433.904 539.583C435.234 539.583 436.565 537.544 436.565 535.402C436.565 533.566 434.825 534.586 433.699 537.034Z" fill="#111111"/>
<path d="M299.505 539.176C298.276 540.706 297.355 542.236 297.355 542.746C297.355 545.091 300.017 548.866 302.166 549.375C304.111 549.886 304.316 550.293 303.395 551.416C301.04 554.17 303.497 552.741 307.387 548.968C312.607 544.072 313.323 541.216 309.945 538.564C306.261 535.708 302.064 535.911 299.505 539.176Z" fill="#111111"/>
<path d="M450.486 538.053C450.179 538.87 450.384 539.583 450.793 539.583C451.305 539.583 451.919 538.87 452.328 538.053C452.635 537.238 452.43 536.523 452.021 536.523C451.509 536.523 450.895 537.238 450.486 538.053Z" fill="#111111"/>
<path d="M270.435 539.38C269.514 540.4 268.388 542.746 268.08 544.479C267.671 546.315 266.954 547.438 266.34 547.03C265.726 546.724 265.624 546.927 266.033 547.642C266.443 548.254 267.159 548.56 267.568 548.254C268.08 548.05 269.207 548.662 270.23 549.784C272.38 552.129 277.6 552.435 280.466 550.396C283.025 548.56 283.025 542.44 280.466 539.583C278.112 537.034 272.687 536.829 270.435 539.38Z" fill="#111111"/>
<path d="M431.447 542.949C422.644 547.539 417.219 559.678 420.187 568.041C423.565 577.527 430.628 582.322 441.273 582.423C446.801 582.423 448.234 582.016 452.533 579.057C459.493 574.264 463.383 566.716 462.667 559.677C460.926 544.582 444.753 535.911 431.447 542.949Z" fill="#111111"/>
<path d="M176.571 544.684C175.65 545.296 175.547 545.703 176.264 545.703C176.878 545.703 177.799 545.194 178.106 544.684C178.925 543.46 178.515 543.46 176.571 544.684Z" fill="#111111"/>
<path d="M298.993 562.533C296.946 566.92 295.309 570.898 295.309 571.306C295.309 571.816 295.001 572.224 294.489 572.224C293.67 572.224 293.363 572.836 288.962 581.914C287.427 585.076 285.277 588.952 284.049 590.584C281.387 594.358 281.387 595.684 284.151 592.726C285.379 591.502 288.143 586.912 290.395 582.628C292.647 578.344 295.104 574.06 295.82 573.243C296.537 572.428 298.174 568.756 299.505 565.084C300.733 561.412 302.268 557.842 302.781 557.128C303.293 556.413 303.497 555.598 303.19 555.292C302.883 554.986 300.938 558.249 298.993 562.533Z" fill="#111111"/>
<path d="M477.714 556.924C477.714 558.352 477.918 558.861 478.225 558.148C478.43 557.536 478.43 556.312 478.225 555.598C477.918 554.986 477.714 555.495 477.714 556.924Z" fill="#111111"/>
<path d="M331.953 577.12C323.764 588.238 319.67 592.828 318.339 592.318C316.804 591.604 311.686 594.46 306.056 599.254C288.553 614.044 269.207 624.856 253.853 628.324C243.821 630.67 241.057 632.608 241.057 637.504C241.057 639.442 241.979 641.176 243.923 642.604C246.278 644.542 247.506 644.746 251.805 644.134C270.23 641.788 297.151 627.304 314.757 610.27C322.639 602.824 323.969 600.988 323.969 598.234C323.969 596.092 323.355 594.664 322.332 594.256C321 593.746 321 593.44 322.127 592.114C322.843 591.298 323.969 590.074 324.481 589.36C325.095 588.646 328.37 584.566 331.748 580.384C339.016 571.306 339.63 570.489 338.504 569.776C338.095 569.571 335.126 572.836 331.953 577.12Z" fill="#111111"/>
<path d="M227.751 580.486C223.554 585.076 215.979 592.93 211.066 597.928C206.05 602.926 202.263 607.312 202.468 607.618C203.389 608.536 235.939 575.691 235.939 573.855C235.939 572.937 235.837 572.224 235.632 572.224C235.53 572.224 231.947 575.997 227.751 580.486Z" fill="#111111"/>
<path d="M254.569 583.444C239.215 599.662 221.302 609.148 200.114 612.412L195.508 613.126L198.578 610.474L201.649 607.72L197.861 610.372C195.303 612.208 192.744 613.024 189.877 613.024C182.098 613.024 177.697 621.286 182.712 626.285C188.138 631.69 218.948 625.774 236.963 615.88C247.301 610.27 253.443 605.476 262.144 596.5C271.458 586.912 273.813 583.75 273.813 580.792C273.813 577.426 270.332 574.264 266.545 574.264C263.884 574.264 261.939 575.794 254.569 583.444Z" fill="#111111"/>
<path d="M430.833 589.768C428.785 593.338 427.046 596.806 427.046 597.418C427.046 598.132 426.636 598.744 426.124 598.744C425.714 598.744 425.305 599.356 425.305 600.172C425.305 600.988 424.691 601.906 424.077 602.11C423.156 602.518 423.258 602.722 424.282 602.722C425.305 602.824 427.762 599.356 430.833 593.542C436.462 582.832 436.565 580.18 430.833 589.768Z" fill="#111111"/>
<path d="M396.338 589.36C392.653 593.44 395.724 600.784 401.046 600.784C403.912 600.784 407.904 596.806 407.904 594.052C407.904 591.196 403.708 587.524 400.534 587.524C399.101 587.524 397.259 588.34 396.338 589.36Z" fill="#111111"/>
<path d="M419.369 609.76C417.526 612.922 415.377 616.594 414.455 617.818C413.534 619.144 413.022 620.164 413.329 620.164C414.148 620.164 421.211 610.168 421.211 609.046C421.211 608.434 422.132 607.414 423.258 606.598C424.998 605.374 425.1 603.844 423.361 603.844C423.054 603.844 421.211 606.496 419.369 609.76Z" fill="#111111"/>
<path d="M216.696 629.854C213.011 633.526 211.68 635.566 212.499 636.077C213.215 636.484 214.547 635.872 215.672 634.342C216.798 633.017 219.255 630.16 221.097 628.018C226.318 622.204 222.838 623.632 216.696 629.854Z" fill="#111111"/>
<path d="M219.05 639.646C217.924 641.38 219.05 641.686 221.199 640.054C222.94 638.728 222.94 638.626 221.404 638.524C220.483 638.524 219.357 639.034 219.05 639.646Z" fill="#111111"/>
<path d="M264.805 29.1721C261.018 31.1101 258.766 33.0482 256.924 36.1082C251.907 44.6762 254.262 50.2863 266.443 58.8543C278.009 66.9123 289.576 77.1123 295.923 84.7624C299.301 88.8421 302.986 93.3304 304.214 94.7587L306.466 97.4102L306.568 93.3304C306.568 87.6181 304.009 73.5424 300.836 62.7304C295.513 44.3702 286.096 29.7841 278.112 27.5401C272.482 26.0101 270.639 26.2141 264.805 29.1721Z" fill="#111111"/>
<path d="M497.571 46.41C489.485 50.5921 489.178 60.7921 496.957 64.7701C503.406 68.1362 509.854 64.9742 510.981 57.9361C512.311 49.2661 504.737 42.738 497.571 46.41Z" fill="#111111"/>
<path d="M218.436 50.2864C214.342 53.0404 210.555 56.8145 207.893 60.5885C204.208 65.9946 203.799 66.4025 203.082 64.3625C202.058 61.7105 199.09 61.6085 196.019 64.0565L193.665 65.8925L196.429 72.6245C197.861 76.3986 199.09 79.8665 199.09 80.3768C199.09 80.9888 197.554 81.9068 195.61 82.6206C190.594 84.2523 184.248 90.0664 181.586 95.5744C171.863 115.567 193.46 138.517 214.547 130.663C225.499 126.481 232.254 116.995 232.152 105.571C232.152 95.5744 227.034 88.0268 217.003 83.1308L212.192 80.8863L215.775 78.6425C220.585 75.6846 226.523 69.0546 228.876 63.8525C230.105 61.0985 230.822 57.3244 230.822 52.7344V45.9004H227.853C225.909 45.9004 222.326 47.5324 218.436 50.2864Z" fill="#111111"/>
<path d="M149.957 48.9604C146.375 52.5305 147.705 58.3445 152.721 60.9965C155.997 62.8325 157.941 62.5265 160.705 59.6705C165.823 54.6725 162.752 46.9204 155.587 46.9204C153.335 46.9204 151.185 47.7364 149.957 48.9604Z" fill="#111111"/>
<path d="M108.501 61.0985C103.588 64.0565 101.643 66.9125 101.131 71.7066C100.62 75.5826 100.927 76.6024 103.486 79.3564C105.123 80.9889 111.572 85.0687 117.919 88.333C127.95 93.4325 138.391 100.471 149.753 109.753C151.595 111.283 153.335 112.303 153.642 111.997C154.256 111.283 148.934 97.819 144.942 89.9647C141.155 82.6207 132.965 70.9926 127.847 65.8925C121.091 59.1605 114.336 57.5285 108.501 61.0985Z" fill="#111111"/>
<path d="M517.531 81.1924C513.13 86.803 516.61 94.8608 523.469 95.065C526.232 95.1668 527.665 94.453 529.917 91.9025C531.453 90.169 532.783 87.5167 532.783 86.0885C532.783 79.2547 521.83 75.6846 517.531 81.1924Z" fill="#111111"/>
<path d="M65.2032 98.2264C55.786 101.185 47.9044 113.527 48.9279 123.726C49.4398 129.846 54.353 137.293 60.8017 141.577C63.463 143.413 73.5967 148.411 83.5256 152.899C108.604 164.119 128.052 175.033 143.304 186.457C154.973 195.229 172.17 210.019 176.571 215.119C184.453 224.095 184.76 221.545 177.697 206.653C161.524 172.483 137.367 140.659 108.808 116.179C89.8722 99.9607 76.7699 94.4527 65.2032 98.2264Z" fill="#111111"/>
<path d="M263.781 109.651C256.309 115.975 260.813 128.521 270.537 128.521C275.245 128.521 280.978 122.911 280.978 118.423C280.978 108.937 270.844 103.735 263.781 109.651Z" fill="#111111"/>
<path d="M498.492 114.241C495.012 118.015 498.697 123.727 503.201 121.381C506.579 119.545 505.248 112.201 501.563 112.201C500.847 112.201 499.517 113.119 498.492 114.241Z" fill="#111111"/>
<path d="M304.521 136.579C301.245 139.231 300.938 140.047 300.938 144.841C300.938 149.635 301.245 150.451 304.725 153.613C307.592 156.163 309.536 157.081 312.198 157.081C321.922 157.081 327.756 148.105 323.56 139.843C319.977 133.009 310.662 131.377 304.521 136.579Z" fill="#111111"/>
<path d="M361.331 139.945C358.567 141.475 357.748 142.801 357.748 145.963C357.748 151.471 364.913 154.021 369.008 149.941C371.566 147.391 371.566 144.739 369.315 141.985C366.96 139.333 363.889 138.517 361.331 139.945Z" fill="#111111"/>
<path d="M173.705 144.025C172.988 144.739 172.477 146.473 172.477 147.901C172.477 151.063 174.216 153.001 177.083 153.001C180.051 153.001 181.689 151.063 181.689 147.697C181.689 143.617 176.469 141.271 173.705 144.025Z" fill="#111111"/>
<path d="M480.58 145.249C477.714 148.819 481.706 154.735 485.493 152.389C489.076 150.145 487.745 143.821 483.65 143.821C482.627 143.821 481.296 144.535 480.58 145.249Z" fill="#111111"/>
<path d="M225.704 155.959C220.381 157.693 216.593 160.244 212.09 165.241C206.563 171.361 203.799 178.705 203.799 186.967C203.901 192.374 204.822 194.719 215.775 216.854C226.42 238.274 228.467 241.538 233.893 246.944C244.743 257.858 259.687 262.652 273.608 259.694C292.954 255.716 306.568 241.538 309.946 221.852C312.914 204.716 302.883 183.806 287.427 174.727C284.97 173.299 278.009 170.137 271.971 167.791C265.931 165.446 257.128 161.671 252.317 159.529C245.152 156.265 242.286 155.551 235.939 155.347C231.743 155.245 227.137 155.449 225.704 155.959ZM248.325 174.523C253.034 176.869 259.789 179.828 263.372 181.153C283.742 188.905 292.647 198.188 293.977 213.182C295.104 225.625 289.371 235.928 278.112 241.436C266.443 247.148 250.679 244.088 243.207 234.704C241.57 232.663 235.53 221.546 229.798 210.019C220.381 191.251 219.46 188.803 219.869 184.724C220.381 179.725 222.838 175.951 227.751 172.585C232.971 169.118 238.192 169.627 248.325 174.523Z" fill="#111111"/>
<path d="M257.64 195.025C256.924 195.739 256.411 197.473 256.411 198.901C256.411 202.369 258.152 204.002 261.734 204.002C264.498 204.002 266.647 201.655 266.647 198.494C266.647 194.719 260.404 192.271 257.64 195.025Z" fill="#111111"/>
<path d="M241.263 205.226C239.01 207.469 239.829 212.059 242.593 213.385C247.711 215.63 252.522 209.51 248.632 205.633C246.79 203.696 243.002 203.491 241.263 205.226Z" fill="#111111"/>
<path d="M272.789 209.101C271.663 210.223 270.742 211.855 270.742 212.671C270.742 214.405 274.324 218.281 275.963 218.281C280.978 218.281 282.922 211.549 278.726 208.693C275.758 206.653 275.246 206.653 272.789 209.101Z" fill="#111111"/>
<path d="M255.899 219.302C252.112 223.483 257.026 229.909 262.144 227.564C265.01 226.34 265.419 222.871 262.962 219.505C261.018 216.751 258.356 216.649 255.899 219.302Z" fill="#111111"/>
<path d="M23.7475 172.993C15.4563 175.951 9.72412 184.213 9.72412 193.291C9.72412 198.493 14.228 206.653 18.8342 209.611C25.2828 213.895 29.1726 214.406 42.4793 212.467C57.0144 210.428 92.8401 210.122 103.895 211.958C108.092 212.671 117.407 214.609 124.572 216.343C131.737 218.078 138.186 219.302 138.698 219.097C140.028 218.69 125.903 208.286 115.155 201.757C93.7614 188.905 76.9749 181.357 57.3215 175.951C41.251 171.565 30.7079 170.647 23.7475 172.993Z" fill="#111111"/>
<path d="M324.583 172.993C321.512 176.053 323.253 180.541 327.552 180.541C328.78 180.541 330.213 180.031 330.93 179.317C331.646 178.603 332.158 177.175 332.158 175.951C332.158 171.667 327.654 169.933 324.583 172.993Z" fill="#111111"/>
<path d="M431.959 176.971C427.148 181.664 429.399 189.109 436.258 191.15C440.557 192.475 446.801 186.967 446.801 181.97C446.801 181.052 445.47 179.011 443.832 177.38C439.943 173.605 435.439 173.402 431.959 176.971Z" fill="#111111"/>
<path d="M663.497 175.543C655.308 177.379 646.096 183.295 626.647 199.309C612.01 211.243 601.978 220.321 602.797 221.035C603.002 221.239 604.538 220.832 606.175 220.015C610.576 217.669 629.411 213.283 639.749 212.161C644.867 211.652 653.568 211.141 659.198 211.141C673.938 211.04 679.26 208.795 683.354 200.737C686.221 195.025 685.914 189.007 682.331 183.397C677.93 176.461 671.481 173.809 663.497 175.543Z" fill="#111111"/>
<path d="M370.543 178.399C361.024 180.847 351.504 189.517 348.126 198.8C344.236 209.816 347.921 225.218 356.417 232.663C363.48 238.783 367.574 240.212 378.22 240.212C387.535 240.212 388.251 240.007 393.778 236.744C404.936 230.012 410.565 219.404 409.746 206.756C408.621 190.232 396.952 178.705 380.472 177.889C376.685 177.685 372.283 177.889 370.543 178.399ZM386.101 193.904C394.495 197.983 398.282 209.407 393.676 216.854C390.503 222.056 384.873 225.625 379.448 226.136C373.307 226.646 368.598 224.3 364.196 218.486C353.551 204.409 369.929 186.049 386.101 193.904Z" fill="#111111"/>
<path d="M640.977 233.684C640.158 235.01 638.419 238.682 637.087 241.742C635.859 244.802 634.529 247.76 634.119 248.168C633.71 248.678 630.946 248.269 627.876 247.454C617.537 244.394 608.325 246.23 597.27 253.471C589.798 258.47 584.885 263.876 581.609 271.118C579.664 275.198 579.357 277.748 579.357 287.642C579.357 298.25 579.664 299.984 582.121 305.186C590.105 322.322 609.348 331.91 627.978 328.034C637.497 325.994 644.355 322.118 651.009 314.978C657.15 308.45 660.221 301.514 661.245 292.13C661.961 286.52 661.347 283.256 658.174 272.75C657.56 270.71 658.072 270.404 662.78 269.384C671.992 267.446 676.701 263.774 674.04 260.612C672.504 258.776 664.622 256.94 655.103 256.124C647.119 255.512 646.914 255.41 647.119 252.962C647.631 246.739 646.096 235.417 644.355 233.378L642.615 231.133L640.977 233.684ZM630.742 260.612C635.552 262.652 640.158 266.63 643.639 271.628C646.403 275.606 647.426 281.522 645.379 281.522C644.662 281.522 644.662 282.134 645.379 283.562C646.3 285.194 646.198 285.602 644.764 285.602C643.536 285.602 643.229 286.214 643.639 287.846L644.253 290.192L642.411 287.846C640.772 285.704 640.465 285.602 639.237 287.03C638.112 288.458 638.214 288.662 639.647 288.05C640.67 287.642 641.284 287.948 641.284 288.968C641.284 289.784 640.67 290.498 640.056 290.396C636.678 290.294 635.041 290.804 635.655 291.824C636.064 292.436 636.985 292.64 637.804 292.334C638.521 292.028 639.442 292.232 639.647 292.64C639.954 293.048 638.316 294.068 635.962 294.782C632.174 295.904 631.867 296.21 633.402 297.332C635.348 298.76 634.734 300.086 632.481 299.168C631.56 298.862 630.639 299.678 630.025 301.616C629.001 304.574 628.49 304.778 621.631 305.084C618.049 305.288 616.002 307.022 617.946 308.144C618.56 308.552 618.868 309.368 618.663 309.98C618.356 310.796 617.332 310.388 615.9 308.96C614.057 307.328 613.136 307.124 612.317 307.94C611.498 308.756 611.601 309.062 612.829 309.062C613.75 309.062 614.876 309.572 615.285 310.184C616.002 311.51 612.931 311.102 609.144 309.572C607.711 308.96 607.404 309.062 607.916 309.98C608.427 310.694 609.758 311.612 610.986 312.122C612.931 312.938 612.931 313.04 610.372 313.04C608.734 313.142 607.506 312.632 607.506 312.02C607.506 311.51 607.096 311.204 606.687 311.51C605.152 312.428 599.522 308.246 596.349 303.962C590.207 295.496 589.593 282.644 595.018 273.056C602.183 260.408 617.435 255.104 630.742 260.612ZM620.813 307.022C620.813 307.532 620.403 308.042 619.789 308.042C619.278 308.042 618.765 307.532 618.765 307.022C618.765 306.41 619.278 306.002 619.789 306.002C620.403 306.002 620.813 306.41 620.813 307.022Z" fill="#111111"/>
<path d="M641.796 283.562C642.104 284.072 642.616 284.582 642.923 284.582C643.127 284.582 643.332 284.072 643.332 283.562C643.332 282.95 642.82 282.542 642.206 282.542C641.694 282.542 641.489 282.95 641.796 283.562Z" fill="#111111"/>
<path d="M629.513 296.822C629.206 297.332 629.411 297.842 629.923 297.842C630.537 297.842 631.049 297.332 631.049 296.822C631.049 296.21 630.844 295.802 630.64 295.802C630.332 295.802 629.82 296.21 629.513 296.822Z" fill="#111111"/>
<path d="M625.93 297.944C625.93 298.454 626.442 298.658 626.955 298.352C627.569 298.046 627.978 297.536 627.978 297.23C627.978 297.026 627.569 296.822 626.955 296.822C626.442 296.822 625.93 297.332 625.93 297.944Z" fill="#111111"/>
<path d="M622.962 301.616C622.245 302.432 621.938 303.35 622.348 303.758C622.655 304.064 623.27 303.86 623.679 303.248C624.088 302.636 625.316 302.126 626.34 302.228C627.364 302.33 628.387 301.922 628.592 301.412C629.206 299.78 624.498 299.984 622.962 301.616Z" fill="#111111"/>
<path d="M604.435 309.164C604.435 309.674 604.947 309.878 605.459 309.572C606.073 309.266 606.482 308.756 606.482 308.45C606.482 308.246 606.073 308.042 605.459 308.042C604.947 308.042 604.435 308.552 604.435 309.164Z" fill="#111111"/>
<path d="M106.25 236.233C104.714 238.681 104.714 239.192 106.045 241.64C109.013 246.842 117.202 245.006 117.202 239.192C117.202 233.479 109.422 231.439 106.25 236.233Z" fill="#111111"/>
<path d="M45.5501 251.738C38.2826 254.492 35.1094 256.532 29.9914 261.836C18.0153 274.076 15.7634 292.232 24.1569 309.062C35.9283 332.318 70.833 335.072 87.5177 314.06C93.6593 306.308 96.1159 299.066 96.1159 288.05C96.218 279.38 96.0138 278.36 92.3289 271.118C88.0298 262.346 83.2186 257.552 74.2109 253.166C66.9434 249.596 52.9201 248.882 45.5501 251.738ZM69.0929 265.202C74.1085 267.752 80.8641 275.198 82.3995 279.992C84.3448 285.908 83.0136 297.23 79.6357 302.432C76.4628 307.431 68.3764 313.652 62.8489 315.387C54.1484 317.936 40.7392 311.918 35.6213 303.146C33.3693 299.27 32.7551 296.924 32.448 289.784C32.0386 279.482 33.267 275.504 39.1015 269.996C42.377 266.732 46.9832 264.59 54.2507 262.754C57.6286 261.938 65.2032 263.264 69.0929 265.202Z" fill="#111111"/>
<path d="M42.0698 273.668C38.4873 276.32 42.4793 281.624 46.8808 279.89C49.1327 279.074 49.8492 276.626 48.6209 274.28C47.3926 272.036 44.6289 271.73 42.0698 273.668Z" fill="#111111"/>
<path d="M67.6598 273.974C66.7386 274.79 66.0221 275.912 66.0221 276.422C66.0221 277.34 68.8881 280.502 69.7071 280.502C71.5495 280.502 74.2109 278.054 74.2109 276.422C74.2109 275.3 73.2897 273.974 72.266 273.362C69.7071 272.036 69.5023 272.036 67.6598 273.974Z" fill="#111111"/>
<path d="M55.786 282.338C54.046 283.766 53.6365 284.786 54.2506 286.52C54.7625 288.356 55.5814 288.764 58.1403 288.458C60.8017 288.254 61.5182 287.642 61.723 285.398C62.1324 281.522 58.8568 279.89 55.786 282.338Z" fill="#111111"/>
<path d="M41.0462 292.334C39.1014 294.272 38.9991 294.986 40.6368 296.618C42.684 298.658 47.3926 298.148 48.1091 295.802C49.4398 291.518 44.3218 289.07 41.0462 292.334Z" fill="#111111"/>
<path d="M67.7622 292.333C66.2268 293.966 67.1481 296.924 69.6047 298.046C71.7543 299.066 72.5732 298.964 74.0062 297.536C75.3369 296.21 75.4392 295.394 74.6203 293.966C73.4944 292.13 68.9906 291.109 67.7622 292.333Z" fill="#111111"/>
<path d="M53.4319 301.31C52.5107 303.656 53.6367 305.798 55.8886 306.512C58.5499 307.431 61.1089 305.186 60.6995 302.534C60.29 299.78 54.3532 298.862 53.4319 301.31Z" fill="#111111"/>
<path d="M345.055 263.264C341.473 267.446 341.575 271.73 345.363 275.504C347.512 277.646 349.355 278.462 351.913 278.462C356.929 278.462 358.669 277.646 360.307 274.28C362.661 269.894 362.149 266.426 358.874 263.06C354.575 258.776 348.74 258.878 345.055 263.264Z" fill="#111111"/>
<path d="M535.138 267.242C527.154 272.036 530.326 283.562 540.255 286.01C546.09 287.438 552.231 281.828 552.231 275.096C552.231 266.732 542.917 262.448 535.138 267.242Z" fill="#111111"/>
<path d="M306.978 278.972C303.395 284.377 309.741 289.478 314.04 284.786C316.292 282.338 316.19 280.196 313.938 278.156C311.277 275.708 308.922 276.014 306.978 278.972Z" fill="#111111"/>
<path d="M261.325 287.234C257.947 288.968 255.388 293.558 255.388 297.536C255.388 301.106 258.561 306.41 262.041 308.654C267.876 312.428 277.702 307.838 279.852 300.29C282.615 290.498 270.742 282.134 261.325 287.234Z" fill="#111111"/>
<path d="M115.974 307.124C113.722 308.348 113.619 312.428 115.667 314.162C117.611 315.794 120.273 315.08 122.013 312.428C123.344 310.49 123.241 309.98 121.399 308.144C118.942 305.696 118.431 305.594 115.974 307.124Z" fill="#111111"/>
<path d="M529.814 313.856C525.413 315.998 522.547 320.69 522.547 325.892C522.547 339.152 538.618 344.864 548.239 334.97C559.294 323.648 544.554 306.614 529.814 313.856Z" fill="#111111"/>
<path d="M128.461 731.446C124.572 732.976 122.32 736.445 122.32 741.239C122.32 744.707 122.832 745.931 125.493 748.073C129.793 751.643 134.603 751.643 138.8 747.869C141.257 745.727 141.973 744.197 141.973 741.341C141.973 736.649 139.414 732.773 135.422 731.446C131.737 730.121 131.839 730.121 128.461 731.446Z" fill="#111111"/>
<path d="M599.624 731.855C595.735 733.487 594.199 736.139 594.199 740.831C594.199 747.665 600.239 751.949 606.994 749.705C615.593 746.849 615.9 736.139 607.506 731.855C603.924 730.019 603.821 730.019 599.624 731.855Z" fill="#111111"/>
<path d="M43.0935 733.894C41.1487 735.73 40.4321 737.363 40.4321 740.32C40.4321 747.971 47.1879 752.561 53.6366 749.297C57.4239 747.257 58.8569 744.809 58.8569 740.219C58.8569 732.67 48.8257 728.591 43.0935 733.894Z" fill="#111111"/>
<path d="M83.9348 733.894C81.9903 735.73 81.3761 737.465 81.3761 740.729C81.4782 745.421 82.6044 747.664 86.1873 749.5C92.431 752.866 99.8009 748.073 99.8009 740.831C99.8009 732.569 89.6672 728.08 83.9348 733.894Z" fill="#111111"/>
<path d="M556.019 734.201C552.129 738.281 552.231 743.687 556.223 747.767C558.169 749.705 560.318 750.725 562.263 750.725C566.153 750.725 571.884 746.747 572.704 743.585C575.058 734.201 562.672 727.265 556.019 734.201Z" fill="#111111"/>
<path d="M636.883 734.201C629.922 741.443 637.292 752.867 646.812 749.705C654.08 747.359 655.922 739.709 650.6 734.303C646.403 730.223 640.773 730.121 636.883 734.201Z" fill="#111111"/>
</g>
<defs>
<clipPath id="clip0_28_374">
<rect width="694" height="752" fill="white"/>
</clipPath>
</defs>
</svg>
